<svg xmlns="http://www.w3.org/2000/svg" xmlns:xlink="http://www.w3.org/1999/xlink" width="50" zoomAndPan="magnify" viewBox="0 0 37.5 30.000001" height="40" preserveAspectRatio="xMidYMid meet" version="1.0"><defs><clipPath id="id1"><path d="M 0.363281 0 L 36.652344 0 L 36.652344 29.03125 L 0.363281 29.03125 Z M 0.363281 0 " clip-rule="nonzero"/></clipPath><clipPath id="id2"><path d="M 6.890625 10 L 8.355469 10 L 8.355469 10.925781 L 6.890625 10.925781 Z M 6.890625 10 " clip-rule="nonzero"/></clipPath><clipPath id="id3"><path d="M 11.554688 2.941406 L 22 2.941406 L 22 10.257812 L 11.554688 10.257812 Z M 11.554688 2.941406 " clip-rule="nonzero"/></clipPath><clipPath id="id4"><path d="M 9.6875 5.988281 L 29.398438 5.988281 L 29.398438 14.390625 L 9.6875 14.390625 Z M 9.6875 5.988281 " clip-rule="nonzero"/></clipPath><clipPath id="id5"><path d="M 6.890625 10 L 8.355469 10 L 8.355469 10.925781 L 6.890625 10.925781 Z M 6.890625 10 " clip-rule="nonzero"/></clipPath><clipPath id="id6"><path d="M 14.621094 13.191406 L 17.421875 13.191406 L 17.421875 15.757812 L 14.621094 15.757812 Z M 14.621094 13.191406 " clip-rule="nonzero"/></clipPath><clipPath id="id7"><path d="M 22.757812 13.191406 L 25.558594 13.191406 L 25.558594 15.757812 L 22.757812 15.757812 Z M 22.757812 13.191406 " clip-rule="nonzero"/></clipPath><clipPath id="id8"><path d="M 0.363281 18 L 6 18 L 6 24 L 0.363281 24 Z M 0.363281 18 " clip-rule="nonzero"/></clipPath><clipPath id="id9"><path d="M 11 19 L 16 19 L 16 25.742188 L 11 25.742188 Z M 11 19 " clip-rule="nonzero"/></clipPath><clipPath id="id10"><path d="M 31 19 L 36 19 L 36 25.742188 L 31 25.742188 Z M 31 19 " clip-rule="nonzero"/></clipPath></defs><g clip-path="url(#id1)"><path fill="#ffffff" d="M 0.363281 0 L 37.136719 0 L 37.136719 36.773438 L 0.363281 36.773438 Z M 0.363281 0 " fill-opacity="1" fill-rule="nonzero"/><path fill="#ffffff" d="M 0.363281 0 L 37.136719 0 L 37.136719 29.417969 L 0.363281 29.417969 Z M 0.363281 0 " fill-opacity="1" fill-rule="nonzero"/><path fill="#ffffff" d="M 0.363281 0 L 37.136719 0 L 37.136719 29.417969 L 0.363281 29.417969 Z M 0.363281 0 " fill-opacity="1" fill-rule="nonzero"/><path fill="#ffffff" d="M 0.363281 0 L 37.136719 0 L 37.136719 29.417969 L 0.363281 29.417969 Z M 0.363281 0 " fill-opacity="1" fill-rule="nonzero"/></g><g clip-path="url(#id2)"><path fill="#c48e3c" d="M 8.335938 10.421875 C 8.304688 10.191406 8.097656 10.007812 7.867188 10.007812 L 7.34375 10.007812 C 7.117188 10.007812 6.953125 10.191406 6.980469 10.421875 C 7.011719 10.652344 7.21875 10.835938 7.449219 10.835938 L 7.972656 10.835938 C 8.199219 10.835938 8.363281 10.652344 8.335938 10.421875 Z M 8.335938 10.421875 " fill-opacity="1" fill-rule="evenodd"/></g><g clip-path="url(#id3)"><path fill="#c48e3c" d="M 16.738281 2.851562 L 18 5.628906 C 18.023438 5.675781 18.070312 5.707031 18.125 5.714844 L 21.824219 6.011719 C 21.9375 6.023438 22.015625 5.910156 21.972656 5.804688 L 21.003906 3.6875 C 20.984375 3.640625 20.945312 3.613281 20.898438 3.601562 L 16.742188 2.851562 Z M 12.558594 3.6875 L 11.570312 5.796875 C 11.523438 5.902344 11.605469 6.019531 11.71875 6.007812 L 15.425781 5.628906 C 15.480469 5.625 15.527344 5.59375 15.546875 5.542969 L 16.738281 2.851562 L 12.664062 3.601562 C 12.617188 3.613281 12.578125 3.640625 12.558594 3.6875 Z M 16.753906 5.09375 L 16.753906 9.394531 L 20.175781 8.746094 L 20.175781 6.652344 C 20.175781 6.566406 20.253906 6.496094 20.339844 6.503906 L 20.757812 6.570312 C 20.832031 6.578125 20.890625 6.640625 20.890625 6.71875 L 20.890625 9.152344 C 20.890625 9.21875 20.84375 9.28125 20.773438 9.292969 L 17.03125 10.101562 C 16.847656 10.140625 16.660156 10.140625 16.480469 10.101562 L 12.777344 9.320312 C 12.710938 9.304688 12.664062 9.25 12.660156 9.179688 L 12.597656 6.707031 C 12.597656 6.628906 12.65625 6.566406 12.734375 6.558594 L 15.878906 6.28125 C 15.933594 6.273438 15.980469 6.242188 16.003906 6.191406 L 16.476562 5.039062 C 16.539062 4.890625 16.757812 4.9375 16.757812 5.097656 Z M 16.753906 5.09375 " fill-opacity="1" fill-rule="evenodd"/></g><g clip-path="url(#id4)"><path fill="#540b66" d="M 13.265625 11.730469 L 14.703125 11.730469 C 14.953125 11.730469 15.183594 11.933594 15.214844 12.183594 C 15.246094 12.4375 15.070312 12.640625 14.816406 12.640625 L 10.160156 12.640625 C 9.9375 12.640625 9.78125 12.816406 9.808594 13.039062 C 9.835938 13.261719 10.039062 13.4375 10.261719 13.4375 L 12.710938 13.4375 L 12.722656 14.304688 L 14.308594 14.304688 C 14.433594 13.4375 15.222656 12.804688 16.097656 12.804688 C 16.972656 12.804688 17.71875 13.441406 17.777344 14.304688 L 20.496094 14.304688 L 20.496094 14.292969 L 22.058594 14.292969 C 22.253906 14.292969 22.433594 14.179688 22.507812 14.003906 L 22.632812 13.71875 C 22.914062 13.070312 23.585938 12.640625 24.3125 12.640625 C 24.972656 12.640625 25.558594 12.996094 25.824219 13.558594 L 26.058594 14.046875 C 26.128906 14.199219 26.285156 14.292969 26.464844 14.292969 L 28.671875 14.292969 C 28.886719 14.292969 29.078125 14.15625 29.136719 13.960938 L 29.277344 13.511719 C 29.371094 13.210938 29.226562 12.90625 28.9375 12.78125 L 29.039062 10.910156 C 29.082031 10.175781 28.902344 9.457031 28.523438 8.828125 L 27.628906 7.484375 C 27 6.539062 25.894531 5.976562 24.6875 5.992188 L 23.09375 6.011719 L 22.390625 6.011719 C 22.324219 6.269531 22.082031 6.46875 21.785156 6.445312 L 21.214844 6.402344 C 21.277344 6.492188 21.3125 6.601562 21.3125 6.71875 L 21.3125 9.15625 C 21.3125 9.425781 21.125 9.660156 20.859375 9.71875 L 17.117188 10.523438 C 16.878906 10.574219 16.628906 10.578125 16.390625 10.527344 L 15.191406 10.277344 L 13.191406 10.289062 L 12.726562 10.292969 L 11.289062 10.300781 C 11.066406 10.300781 10.910156 10.480469 10.9375 10.699219 C 10.964844 10.921875 11.164062 11.101562 11.386719 11.101562 L 12.683594 11.101562 L 12.691406 11.734375 L 13.269531 11.734375 Z M 23.09375 8.964844 C 22.878906 8.921875 22.730469 8.738281 22.742188 8.53125 L 22.792969 7.449219 C 22.804688 7.195312 23.039062 6.992188 23.308594 7.007812 L 25.398438 7.109375 C 25.910156 7.132812 26.367188 7.398438 26.613281 7.816406 L 27.46875 9.292969 C 27.613281 9.542969 27.363281 9.847656 27.066406 9.789062 L 23.09375 8.972656 Z M 23.09375 8.964844 " fill-opacity="1" fill-rule="evenodd"/></g><path fill="#c48e3c" d="M 11.726562 8.394531 C 11.753906 8.617188 11.957031 8.796875 12.175781 8.796875 L 12.21875 8.796875 L 12.195312 7.992188 L 12.078125 7.992188 C 11.855469 7.992188 11.699219 8.171875 11.726562 8.394531 Z M 11.726562 8.394531 " fill-opacity="1" fill-rule="evenodd"/><path fill="#c48e3c" d="M 10.796875 7.902344 C 11.027344 7.902344 11.191406 7.71875 11.160156 7.488281 C 11.128906 7.257812 10.921875 7.074219 10.691406 7.074219 L 10.167969 7.074219 C 9.9375 7.074219 9.773438 7.257812 9.804688 7.488281 C 9.832031 7.71875 10.042969 7.902344 10.273438 7.902344 Z M 10.796875 7.902344 " fill-opacity="1" fill-rule="evenodd"/><path fill="#c48e3c" d="M 10.042969 9.046875 L 9.519531 9.046875 C 9.289062 9.046875 9.125 9.230469 9.15625 9.460938 C 9.183594 9.691406 9.390625 9.875 9.621094 9.875 L 10.148438 9.875 C 10.375 9.875 10.539062 9.691406 10.511719 9.460938 C 10.480469 9.230469 10.273438 9.046875 10.042969 9.046875 Z M 10.042969 9.046875 " fill-opacity="1" fill-rule="evenodd"/><g clip-path="url(#id5)"><path fill="#c48e3c" d="M 8.335938 10.421875 C 8.304688 10.191406 8.097656 10.007812 7.867188 10.007812 L 7.34375 10.007812 C 7.117188 10.007812 6.953125 10.191406 6.980469 10.421875 C 7.011719 10.652344 7.21875 10.835938 7.449219 10.835938 L 7.972656 10.835938 C 8.199219 10.835938 8.363281 10.652344 8.335938 10.421875 Z M 8.335938 10.421875 " fill-opacity="1" fill-rule="evenodd"/></g><path fill="#c48e3c" d="M 8.746094 11.628906 L 8.222656 11.628906 C 7.992188 11.628906 7.828125 11.8125 7.859375 12.042969 C 7.886719 12.273438 8.097656 12.457031 8.324219 12.457031 L 8.851562 12.457031 C 9.078125 12.457031 9.242188 12.273438 9.214844 12.042969 C 9.183594 11.8125 8.976562 11.628906 8.746094 11.628906 Z M 8.746094 11.628906 " fill-opacity="1" fill-rule="evenodd"/><path fill="#c48e3c" d="M 10.863281 13.890625 L 10.335938 13.890625 C 10.109375 13.890625 9.945312 14.074219 9.972656 14.304688 C 10.003906 14.535156 10.210938 14.71875 10.441406 14.71875 L 10.964844 14.71875 C 11.195312 14.71875 11.359375 14.535156 11.328125 14.304688 C 11.300781 14.074219 11.089844 13.890625 10.863281 13.890625 Z M 10.863281 13.890625 " fill-opacity="1" fill-rule="evenodd"/><g clip-path="url(#id6)"><path fill="#540b66" d="M 16.101562 13.195312 C 15.351562 13.195312 14.722656 13.769531 14.6875 14.476562 C 14.65625 15.183594 15.234375 15.757812 15.980469 15.757812 C 16.730469 15.757812 17.359375 15.183594 17.394531 14.476562 C 17.425781 13.769531 16.847656 13.195312 16.101562 13.195312 Z M 16.101562 13.195312 " fill-opacity="1" fill-rule="evenodd"/></g><g clip-path="url(#id7)"><path fill="#540b66" d="M 24.25 13.195312 C 23.503906 13.195312 22.871094 13.769531 22.839844 14.476562 C 22.804688 15.183594 23.382812 15.757812 24.132812 15.757812 C 24.878906 15.757812 25.511719 15.183594 25.546875 14.476562 C 25.578125 13.769531 25 13.195312 24.25 13.195312 Z M 24.25 13.195312 " fill-opacity="1" fill-rule="evenodd"/></g><g clip-path="url(#id8)"><path fill="#540b66" d="M 0.886719 23.488281 C 0.84375 23.488281 0.8125 23.472656 0.789062 23.449219 C 0.765625 23.421875 0.757812 23.386719 0.761719 23.347656 L 1.394531 18.210938 C 1.402344 18.171875 1.417969 18.136719 1.445312 18.113281 C 1.472656 18.085938 1.507812 18.074219 1.550781 18.074219 L 3.414062 18.074219 C 3.960938 18.074219 4.394531 18.207031 4.71875 18.46875 C 5.039062 18.734375 5.203125 19.09375 5.203125 19.542969 C 5.203125 19.585938 5.195312 19.664062 5.1875 19.765625 L 4.9375 21.792969 C 4.898438 22.128906 4.777344 22.421875 4.582031 22.683594 C 4.386719 22.941406 4.128906 23.140625 3.8125 23.277344 C 3.496094 23.417969 3.140625 23.488281 2.75 23.488281 Z M 2.128906 22.335938 C 2.128906 22.371094 2.144531 22.386719 2.179688 22.386719 L 2.933594 22.386719 C 3.136719 22.386719 3.308594 22.316406 3.453125 22.167969 C 3.597656 22.019531 3.6875 21.824219 3.722656 21.574219 L 3.917969 19.980469 C 3.921875 19.945312 3.925781 19.898438 3.925781 19.835938 C 3.925781 19.628906 3.871094 19.464844 3.761719 19.347656 C 3.65625 19.230469 3.507812 19.171875 3.320312 19.171875 L 2.570312 19.171875 C 2.5625 19.171875 2.550781 19.175781 2.535156 19.1875 C 2.523438 19.199219 2.515625 19.210938 2.515625 19.226562 Z M 2.128906 22.335938 " fill-opacity="1" fill-rule="nonzero"/></g><path fill="#540b66" d="M 6.53125 19.226562 C 6.335938 19.226562 6.179688 19.167969 6.058594 19.050781 C 5.941406 18.933594 5.882812 18.78125 5.882812 18.589844 C 5.882812 18.347656 5.960938 18.148438 6.117188 17.992188 C 6.277344 17.832031 6.476562 17.753906 6.71875 17.753906 C 6.917969 17.753906 7.078125 17.808594 7.191406 17.921875 C 7.308594 18.03125 7.367188 18.179688 7.367188 18.367188 C 7.367188 18.621094 7.289062 18.824219 7.128906 18.984375 C 6.972656 19.144531 6.773438 19.226562 6.53125 19.226562 Z M 5.523438 23.488281 C 5.484375 23.488281 5.453125 23.472656 5.429688 23.449219 C 5.40625 23.421875 5.398438 23.386719 5.402344 23.347656 L 5.859375 19.628906 C 5.875 19.535156 5.925781 19.488281 6.011719 19.488281 L 6.988281 19.488281 C 7.03125 19.488281 7.058594 19.5 7.078125 19.527344 C 7.101562 19.550781 7.109375 19.585938 7.105469 19.628906 L 6.648438 23.347656 C 6.644531 23.386719 6.625 23.421875 6.601562 23.449219 C 6.574219 23.472656 6.542969 23.488281 6.5 23.488281 Z M 5.523438 23.488281 " fill-opacity="1" fill-rule="nonzero"/><path fill="#540b66" d="M 10.003906 19.425781 C 10.359375 19.425781 10.644531 19.53125 10.855469 19.738281 C 11.066406 19.949219 11.171875 20.238281 11.171875 20.609375 C 11.171875 20.65625 11.167969 20.734375 11.15625 20.847656 L 10.847656 23.347656 C 10.84375 23.386719 10.828125 23.421875 10.800781 23.449219 C 10.777344 23.472656 10.742188 23.488281 10.703125 23.488281 L 9.726562 23.488281 C 9.683594 23.488281 9.652344 23.472656 9.628906 23.449219 C 9.605469 23.421875 9.597656 23.386719 9.601562 23.347656 L 9.878906 21.128906 L 9.886719 21.027344 C 9.886719 20.878906 9.847656 20.757812 9.769531 20.664062 C 9.6875 20.570312 9.578125 20.523438 9.441406 20.523438 C 9.289062 20.523438 9.160156 20.578125 9.050781 20.691406 C 8.9375 20.800781 8.871094 20.949219 8.851562 21.128906 L 8.582031 23.347656 C 8.566406 23.441406 8.515625 23.488281 8.425781 23.488281 L 7.453125 23.488281 C 7.410156 23.488281 7.378906 23.472656 7.359375 23.449219 C 7.339844 23.421875 7.332031 23.386719 7.335938 23.347656 L 7.792969 19.628906 C 7.796875 19.585938 7.8125 19.550781 7.839844 19.527344 C 7.863281 19.5 7.898438 19.488281 7.941406 19.488281 L 8.914062 19.488281 C 8.957031 19.488281 8.988281 19.5 9.007812 19.527344 C 9.03125 19.550781 9.042969 19.585938 9.039062 19.628906 L 9.007812 19.84375 C 9 19.867188 9.003906 19.882812 9.019531 19.890625 C 9.03125 19.894531 9.046875 19.886719 9.0625 19.867188 C 9.292969 19.574219 9.609375 19.425781 10.003906 19.425781 Z M 10.003906 19.425781 " fill-opacity="1" fill-rule="nonzero"/><g clip-path="url(#id9)"><path fill="#540b66" d="M 14.273438 19.628906 C 14.289062 19.535156 14.34375 19.488281 14.429688 19.488281 L 15.402344 19.488281 C 15.445312 19.488281 15.476562 19.5 15.496094 19.527344 C 15.515625 19.550781 15.523438 19.585938 15.519531 19.628906 L 15.101562 23.039062 C 15.015625 23.742188 14.753906 24.25 14.320312 24.554688 C 13.886719 24.859375 13.371094 25.011719 12.765625 25.011719 C 12.570312 25.011719 12.351562 24.992188 12.109375 24.957031 C 12.019531 24.941406 11.988281 24.890625 12.007812 24.800781 L 12.148438 23.941406 C 12.167969 23.84375 12.226562 23.804688 12.316406 23.820312 C 12.507812 23.859375 12.679688 23.878906 12.835938 23.878906 C 13.117188 23.878906 13.351562 23.8125 13.53125 23.679688 C 13.710938 23.542969 13.820312 23.332031 13.855469 23.042969 L 13.765625 23.125 C 13.578125 23.292969 13.316406 23.378906 12.984375 23.378906 C 12.652344 23.378906 12.359375 23.304688 12.101562 23.15625 C 11.84375 23.003906 11.679688 22.742188 11.605469 22.367188 C 11.578125 22.246094 11.566406 22.101562 11.566406 21.933594 C 11.566406 21.808594 11.578125 21.648438 11.597656 21.453125 C 11.644531 21.070312 11.730469 20.746094 11.859375 20.476562 C 12.015625 20.15625 12.230469 19.902344 12.507812 19.710938 C 12.78125 19.519531 13.089844 19.425781 13.421875 19.425781 C 13.773438 19.425781 14.035156 19.53125 14.203125 19.742188 C 14.214844 19.761719 14.226562 19.769531 14.238281 19.765625 C 14.253906 19.761719 14.261719 19.746094 14.265625 19.71875 Z M 13.910156 22.023438 C 13.972656 21.898438 14.019531 21.707031 14.050781 21.445312 C 14.070312 21.269531 14.082031 21.167969 14.082031 21.136719 C 14.082031 21.058594 14.066406 20.976562 14.042969 20.886719 C 14.015625 20.773438 13.964844 20.683594 13.886719 20.621094 C 13.808594 20.554688 13.707031 20.523438 13.578125 20.523438 C 13.34375 20.523438 13.164062 20.644531 13.039062 20.886719 C 12.9375 21.03125 12.878906 21.222656 12.851562 21.457031 C 12.839844 21.519531 12.835938 21.605469 12.835938 21.714844 C 12.835938 21.839844 12.851562 21.941406 12.882812 22.015625 C 12.90625 22.125 12.960938 22.214844 13.042969 22.28125 C 13.128906 22.347656 13.234375 22.378906 13.363281 22.378906 C 13.613281 22.378906 13.796875 22.261719 13.910156 22.023438 Z M 13.910156 22.023438 " fill-opacity="1" fill-rule="nonzero"/></g><path fill="#540b66" d="M 15.882812 21.792969 C 15.839844 21.792969 15.808594 21.78125 15.789062 21.753906 C 15.769531 21.730469 15.761719 21.695312 15.765625 21.652344 L 15.867188 20.832031 C 15.871094 20.792969 15.886719 20.757812 15.917969 20.734375 C 15.945312 20.707031 15.980469 20.695312 16.023438 20.695312 L 18.480469 20.695312 C 18.523438 20.695312 18.554688 20.707031 18.574219 20.734375 C 18.597656 20.757812 18.605469 20.792969 18.597656 20.832031 L 18.5 21.652344 C 18.492188 21.695312 18.476562 21.730469 18.445312 21.753906 C 18.417969 21.78125 18.382812 21.792969 18.34375 21.792969 Z M 15.882812 21.792969 " fill-opacity="1" fill-rule="nonzero"/><path fill="#540b66" d="M 18.96875 23.488281 C 18.929688 23.488281 18.894531 23.472656 18.871094 23.449219 C 18.847656 23.421875 18.839844 23.386719 18.84375 23.347656 L 19.480469 18.210938 C 19.484375 18.171875 19.5 18.136719 19.527344 18.113281 C 19.558594 18.085938 19.59375 18.074219 19.632812 18.074219 L 21.5 18.074219 C 22.046875 18.074219 22.480469 18.207031 22.800781 18.46875 C 23.125 18.734375 23.285156 19.09375 23.285156 19.542969 C 23.285156 19.585938 23.28125 19.664062 23.269531 19.765625 L 23.023438 21.792969 C 22.980469 22.128906 22.863281 22.421875 22.667969 22.683594 C 22.46875 22.941406 22.214844 23.140625 21.894531 23.277344 C 21.578125 23.417969 21.222656 23.488281 20.832031 23.488281 Z M 20.214844 22.335938 C 20.214844 22.371094 20.230469 22.386719 20.261719 22.386719 L 21.019531 22.386719 C 21.21875 22.386719 21.390625 22.316406 21.535156 22.167969 C 21.679688 22.019531 21.773438 21.824219 21.808594 21.574219 L 22 19.980469 C 22.007812 19.945312 22.011719 19.898438 22.011719 19.835938 C 22.011719 19.628906 21.957031 19.464844 21.847656 19.347656 C 21.738281 19.230469 21.589844 19.171875 21.40625 19.171875 L 20.65625 19.171875 C 20.644531 19.171875 20.632812 19.175781 20.621094 19.1875 C 20.609375 19.199219 20.601562 19.210938 20.601562 19.226562 Z M 20.214844 22.335938 " fill-opacity="1" fill-rule="nonzero"/><path fill="#540b66" d="M 25.179688 23.550781 C 24.730469 23.550781 24.367188 23.425781 24.082031 23.179688 C 23.800781 22.929688 23.628906 22.59375 23.570312 22.171875 C 23.554688 22.0625 23.546875 21.953125 23.546875 21.839844 C 23.546875 21.71875 23.554688 21.597656 23.570312 21.476562 C 23.601562 21.230469 23.664062 20.980469 23.757812 20.726562 C 23.925781 20.320312 24.179688 20 24.523438 19.769531 C 24.863281 19.539062 25.253906 19.425781 25.699219 19.425781 C 26.136719 19.425781 26.496094 19.539062 26.773438 19.769531 C 27.050781 20 27.226562 20.316406 27.292969 20.71875 C 27.3125 20.835938 27.324219 20.976562 27.324219 21.136719 C 27.324219 21.277344 27.316406 21.386719 27.308594 21.457031 C 27.277344 21.71875 27.21875 21.945312 27.136719 22.140625 C 26.984375 22.574219 26.734375 22.917969 26.386719 23.167969 C 26.042969 23.421875 25.640625 23.550781 25.179688 23.550781 Z M 25.320312 22.449219 C 25.464844 22.449219 25.589844 22.402344 25.699219 22.308594 C 25.808594 22.210938 25.890625 22.082031 25.953125 21.914062 C 25.996094 21.800781 26.027344 21.65625 26.054688 21.476562 C 26.066406 21.363281 26.070312 21.28125 26.070312 21.234375 C 26.070312 21.015625 26.027344 20.839844 25.941406 20.710938 C 25.855469 20.585938 25.726562 20.523438 25.550781 20.523438 C 25.257812 20.523438 25.050781 20.691406 24.933594 21.027344 C 24.875 21.15625 24.839844 21.304688 24.824219 21.476562 C 24.808594 21.574219 24.800781 21.667969 24.800781 21.761719 C 24.800781 21.96875 24.84375 22.136719 24.933594 22.261719 C 25.019531 22.386719 25.148438 22.449219 25.320312 22.449219 Z M 25.320312 22.449219 " fill-opacity="1" fill-rule="nonzero"/><path fill="#540b66" d="M 30.285156 19.425781 C 30.640625 19.425781 30.925781 19.53125 31.136719 19.738281 C 31.347656 19.949219 31.453125 20.238281 31.453125 20.609375 C 31.453125 20.65625 31.449219 20.734375 31.4375 20.847656 L 31.128906 23.347656 C 31.125 23.386719 31.109375 23.421875 31.082031 23.449219 C 31.058594 23.472656 31.023438 23.488281 30.980469 23.488281 L 30.007812 23.488281 C 29.964844 23.488281 29.933594 23.472656 29.910156 23.449219 C 29.886719 23.421875 29.878906 23.386719 29.882812 23.347656 L 30.160156 21.128906 L 30.167969 21.027344 C 30.167969 20.878906 30.128906 20.757812 30.046875 20.664062 C 29.96875 20.570312 29.859375 20.523438 29.722656 20.523438 C 29.570312 20.523438 29.441406 20.578125 29.328125 20.691406 C 29.21875 20.800781 29.152344 20.949219 29.132812 21.128906 L 28.863281 23.347656 C 28.847656 23.441406 28.792969 23.488281 28.707031 23.488281 L 27.734375 23.488281 C 27.691406 23.488281 27.660156 23.472656 27.640625 23.449219 C 27.617188 23.421875 27.609375 23.386719 27.617188 23.347656 L 28.074219 19.628906 C 28.078125 19.585938 28.09375 19.550781 28.117188 19.527344 C 28.144531 19.5 28.179688 19.488281 28.222656 19.488281 L 29.195312 19.488281 C 29.234375 19.488281 29.265625 19.5 29.289062 19.527344 C 29.3125 19.550781 29.324219 19.585938 29.320312 19.628906 L 29.289062 19.84375 C 29.28125 19.867188 29.285156 19.882812 29.296875 19.890625 C 29.3125 19.894531 29.328125 19.886719 29.34375 19.867188 C 29.574219 19.574219 29.886719 19.425781 30.285156 19.425781 Z M 30.285156 19.425781 " fill-opacity="1" fill-rule="nonzero"/><g clip-path="url(#id10)"><path fill="#540b66" d="M 34.554688 19.628906 C 34.570312 19.535156 34.621094 19.488281 34.710938 19.488281 L 35.683594 19.488281 C 35.726562 19.488281 35.757812 19.5 35.777344 19.527344 C 35.796875 19.550781 35.804688 19.585938 35.800781 19.628906 L 35.382812 23.039062 C 35.296875 23.742188 35.035156 24.25 34.601562 24.554688 C 34.167969 24.859375 33.648438 25.011719 33.046875 25.011719 C 32.851562 25.011719 32.632812 24.992188 32.390625 24.957031 C 32.300781 24.941406 32.269531 24.890625 32.289062 24.800781 L 32.429688 23.941406 C 32.449219 23.84375 32.503906 23.804688 32.597656 23.820312 C 32.789062 23.859375 32.960938 23.878906 33.117188 23.878906 C 33.398438 23.878906 33.632812 23.8125 33.8125 23.679688 C 33.992188 23.542969 34.101562 23.332031 34.136719 23.042969 L 34.046875 23.125 C 33.859375 23.292969 33.597656 23.378906 33.265625 23.378906 C 32.933594 23.378906 32.640625 23.304688 32.378906 23.15625 C 32.121094 23.003906 31.957031 22.742188 31.886719 22.367188 C 31.859375 22.246094 31.847656 22.101562 31.847656 21.933594 C 31.847656 21.808594 31.855469 21.648438 31.878906 21.453125 C 31.925781 21.070312 32.011719 20.746094 32.140625 20.476562 C 32.296875 20.15625 32.511719 19.902344 32.785156 19.710938 C 33.0625 19.519531 33.367188 19.425781 33.703125 19.425781 C 34.054688 19.425781 34.316406 19.53125 34.484375 19.742188 C 34.496094 19.761719 34.507812 19.769531 34.519531 19.765625 C 34.53125 19.761719 34.542969 19.746094 34.546875 19.71875 Z M 34.191406 22.023438 C 34.253906 21.898438 34.300781 21.707031 34.332031 21.445312 C 34.351562 21.269531 34.363281 21.167969 34.363281 21.136719 C 34.363281 21.058594 34.347656 20.976562 34.324219 20.886719 C 34.296875 20.773438 34.246094 20.683594 34.167969 20.621094 C 34.089844 20.554688 33.988281 20.523438 33.859375 20.523438 C 33.625 20.523438 33.445312 20.644531 33.316406 20.886719 C 33.21875 21.03125 33.15625 21.222656 33.132812 21.457031 C 33.121094 21.519531 33.117188 21.605469 33.117188 21.714844 C 33.117188 21.839844 33.132812 21.941406 33.160156 22.015625 C 33.1875 22.125 33.242188 22.214844 33.324219 22.28125 C 33.40625 22.347656 33.515625 22.378906 33.644531 22.378906 C 33.894531 22.378906 34.078125 22.261719 34.191406 22.023438 Z M 34.191406 22.023438 " fill-opacity="1" fill-rule="nonzero"/></g></svg>