<svg xmlns="http://www.w3.org/2000/svg" xmlns:xlink="http://www.w3.org/1999/xlink" width="50" zoomAndPan="magnify" viewBox="0 0 37.5 30.000001" height="40" preserveAspectRatio="xMidYMid meet" version="1.0"><defs><clipPath id="id1"><path d="M 7.753906 10.609375 L 9.214844 10.609375 L 9.214844 11.542969 L 7.753906 11.542969 Z M 7.753906 10.609375 " clip-rule="nonzero"/></clipPath><clipPath id="id2"><path d="M 12.417969 3.472656 L 22.953125 3.472656 L 22.953125 10.875 L 12.417969 10.875 Z M 12.417969 3.472656 " clip-rule="nonzero"/></clipPath><clipPath id="id3"><path d="M 10.550781 6.609375 L 30.257812 6.609375 L 30.257812 15 L 10.550781 15 Z M 10.550781 6.609375 " clip-rule="nonzero"/></clipPath><clipPath id="id4"><path d="M 7.753906 10.609375 L 9.214844 10.609375 L 9.214844 11.542969 L 7.753906 11.542969 Z M 7.753906 10.609375 " clip-rule="nonzero"/></clipPath><clipPath id="id5"><path d="M 15.484375 13.8125 L 18.285156 13.8125 L 18.285156 16.375 L 15.484375 16.375 Z M 15.484375 13.8125 " clip-rule="nonzero"/></clipPath><clipPath id="id6"><path d="M 23.621094 13.8125 L 26.421875 13.8125 L 26.421875 16.375 L 23.621094 16.375 Z M 23.621094 13.8125 " clip-rule="nonzero"/></clipPath><clipPath id="id7"><path d="M 32 20 L 36.652344 20 L 36.652344 26 L 32 26 Z M 32 20 " clip-rule="nonzero"/></clipPath></defs><g clip-path="url(#id1)"><path fill="#c48e3c" d="M 9.195312 11.042969 C 9.167969 10.8125 8.957031 10.628906 8.730469 10.628906 L 8.207031 10.628906 C 7.976562 10.628906 7.8125 10.8125 7.84375 11.042969 C 7.875 11.273438 8.082031 11.457031 8.3125 11.457031 L 8.832031 11.457031 C 9.0625 11.457031 9.226562 11.273438 9.195312 11.042969 Z M 9.195312 11.042969 " fill-opacity="1" fill-rule="evenodd"/></g><g clip-path="url(#id2)"><path fill="#c48e3c" d="M 17.601562 3.472656 L 18.863281 6.246094 C 18.886719 6.292969 18.933594 6.328125 18.988281 6.332031 L 22.6875 6.632812 C 22.796875 6.640625 22.878906 6.527344 22.832031 6.421875 L 21.867188 4.304688 C 21.847656 4.261719 21.808594 4.230469 21.761719 4.222656 L 17.605469 3.472656 Z M 13.417969 4.304688 L 12.433594 6.417969 C 12.386719 6.523438 12.46875 6.636719 12.582031 6.625 L 16.289062 6.25 C 16.34375 6.246094 16.386719 6.210938 16.410156 6.164062 L 17.601562 3.472656 L 13.527344 4.222656 C 13.480469 4.230469 13.441406 4.261719 13.417969 4.304688 Z M 17.617188 5.714844 L 17.617188 10.015625 L 21.035156 9.363281 L 21.035156 7.269531 C 21.035156 7.183594 21.113281 7.113281 21.199219 7.125 L 21.621094 7.191406 C 21.695312 7.199219 21.75 7.261719 21.75 7.335938 L 21.75 9.769531 C 21.75 9.839844 21.703125 9.898438 21.636719 9.914062 L 17.894531 10.71875 C 17.710938 10.757812 17.523438 10.757812 17.34375 10.71875 L 13.640625 9.941406 C 13.574219 9.925781 13.527344 9.867188 13.523438 9.800781 L 13.460938 7.328125 C 13.457031 7.25 13.519531 7.183594 13.59375 7.179688 L 16.742188 6.902344 C 16.796875 6.894531 16.84375 6.863281 16.863281 6.8125 L 17.339844 5.660156 C 17.402344 5.511719 17.621094 5.554688 17.621094 5.714844 Z M 17.617188 5.714844 " fill-opacity="1" fill-rule="evenodd"/></g><g clip-path="url(#id3)"><path fill="#ffffff" d="M 14.128906 12.347656 L 15.566406 12.347656 C 15.816406 12.347656 16.046875 12.550781 16.078125 12.804688 C 16.109375 13.054688 15.933594 13.257812 15.679688 13.257812 L 11.023438 13.257812 C 10.800781 13.257812 10.644531 13.4375 10.671875 13.65625 C 10.699219 13.882812 10.902344 14.058594 11.121094 14.058594 L 13.570312 14.058594 L 13.582031 14.921875 L 15.171875 14.921875 C 15.292969 14.058594 16.082031 13.425781 16.960938 13.425781 C 17.832031 13.425781 18.582031 14.0625 18.640625 14.921875 L 21.359375 14.921875 L 21.359375 14.914062 L 22.921875 14.914062 C 23.117188 14.914062 23.296875 14.796875 23.371094 14.625 L 23.496094 14.339844 C 23.773438 13.691406 24.445312 13.261719 25.175781 13.261719 C 25.835938 13.261719 26.421875 13.617188 26.6875 14.175781 L 26.917969 14.667969 C 26.992188 14.820312 27.148438 14.914062 27.328125 14.914062 L 29.53125 14.914062 C 29.746094 14.914062 29.941406 14.777344 30 14.578125 L 30.140625 14.132812 C 30.234375 13.832031 30.089844 13.523438 29.796875 13.398438 L 29.902344 11.53125 C 29.945312 10.796875 29.765625 10.074219 29.386719 9.449219 L 28.488281 8.101562 C 27.859375 7.15625 26.753906 6.597656 25.546875 6.609375 L 23.957031 6.628906 L 23.25 6.632812 C 23.183594 6.886719 22.945312 7.089844 22.648438 7.066406 L 22.078125 7.019531 C 22.140625 7.113281 22.175781 7.222656 22.175781 7.339844 L 22.175781 9.773438 C 22.175781 10.046875 21.988281 10.277344 21.722656 10.335938 L 17.980469 11.144531 C 17.742188 11.195312 17.488281 11.195312 17.253906 11.144531 L 16.054688 10.894531 L 14.054688 10.90625 L 13.589844 10.910156 L 12.148438 10.917969 C 11.929688 10.917969 11.773438 11.097656 11.796875 11.320312 C 11.824219 11.539062 12.027344 11.71875 12.25 11.71875 L 13.542969 11.71875 L 13.554688 12.355469 L 14.132812 12.355469 Z M 23.953125 9.585938 C 23.738281 9.539062 23.59375 9.359375 23.601562 9.148438 L 23.652344 8.070312 C 23.664062 7.8125 23.902344 7.609375 24.167969 7.625 L 26.261719 7.726562 C 26.773438 7.75 27.230469 8.015625 27.472656 8.4375 L 28.328125 9.910156 C 28.476562 10.160156 28.226562 10.46875 27.925781 10.410156 L 23.953125 9.589844 Z M 23.953125 9.585938 " fill-opacity="1" fill-rule="evenodd"/></g><path fill="#c48e3c" d="M 12.585938 9.015625 C 12.613281 9.238281 12.816406 9.414062 13.039062 9.414062 L 13.078125 9.414062 L 13.058594 8.613281 L 12.941406 8.613281 C 12.71875 8.613281 12.5625 8.792969 12.585938 9.011719 Z M 12.585938 9.015625 " fill-opacity="1" fill-rule="evenodd"/><path fill="#c48e3c" d="M 11.660156 8.523438 C 11.886719 8.523438 12.050781 8.339844 12.023438 8.109375 C 11.992188 7.878906 11.785156 7.695312 11.554688 7.695312 L 11.03125 7.695312 C 10.800781 7.695312 10.636719 7.878906 10.667969 8.109375 C 10.695312 8.339844 10.902344 8.523438 11.132812 8.523438 Z M 11.660156 8.523438 " fill-opacity="1" fill-rule="evenodd"/><path fill="#c48e3c" d="M 10.902344 9.667969 L 10.378906 9.667969 C 10.148438 9.667969 9.984375 9.851562 10.015625 10.082031 C 10.046875 10.3125 10.253906 10.496094 10.484375 10.496094 L 11.007812 10.496094 C 11.238281 10.496094 11.402344 10.3125 11.371094 10.082031 C 11.34375 9.851562 11.132812 9.667969 10.902344 9.667969 Z M 10.902344 9.667969 " fill-opacity="1" fill-rule="evenodd"/><g clip-path="url(#id4)"><path fill="#c48e3c" d="M 9.195312 11.042969 C 9.167969 10.8125 8.957031 10.628906 8.730469 10.628906 L 8.207031 10.628906 C 7.976562 10.628906 7.8125 10.8125 7.84375 11.042969 C 7.875 11.273438 8.082031 11.457031 8.3125 11.457031 L 8.832031 11.457031 C 9.0625 11.457031 9.226562 11.273438 9.195312 11.042969 Z M 9.195312 11.042969 " fill-opacity="1" fill-rule="evenodd"/></g><path fill="#c48e3c" d="M 9.609375 12.246094 L 9.082031 12.246094 C 8.855469 12.246094 8.691406 12.433594 8.71875 12.660156 C 8.75 12.890625 8.957031 13.074219 9.1875 13.074219 L 9.710938 13.074219 C 9.941406 13.074219 10.105469 12.890625 10.074219 12.660156 C 10.046875 12.433594 9.835938 12.246094 9.609375 12.246094 Z M 9.609375 12.246094 " fill-opacity="1" fill-rule="evenodd"/><path fill="#c48e3c" d="M 11.722656 14.507812 L 11.199219 14.507812 C 10.96875 14.507812 10.804688 14.691406 10.835938 14.921875 C 10.867188 15.152344 11.074219 15.335938 11.304688 15.335938 L 11.828125 15.335938 C 12.058594 15.335938 12.222656 15.152344 12.191406 14.921875 C 12.160156 14.691406 11.953125 14.507812 11.722656 14.507812 Z M 11.722656 14.507812 " fill-opacity="1" fill-rule="evenodd"/><g clip-path="url(#id5)"><path fill="#ffffff" d="M 16.964844 13.816406 C 16.214844 13.816406 15.582031 14.390625 15.550781 15.097656 C 15.515625 15.804688 16.09375 16.375 16.84375 16.375 C 17.589844 16.375 18.222656 15.804688 18.257812 15.097656 C 18.289062 14.390625 17.710938 13.816406 16.964844 13.816406 Z M 16.964844 13.816406 " fill-opacity="1" fill-rule="evenodd"/></g><g clip-path="url(#id6)"><path fill="#ffffff" d="M 25.113281 13.816406 C 24.367188 13.816406 23.734375 14.390625 23.699219 15.097656 C 23.667969 15.804688 24.246094 16.375 24.996094 16.375 C 25.742188 16.375 26.375 15.804688 26.40625 15.097656 C 26.4375 14.390625 25.863281 13.816406 25.113281 13.816406 Z M 25.113281 13.816406 " fill-opacity="1" fill-rule="evenodd"/></g><path fill="#ffffff" d="M 1.746094 24.105469 C 1.707031 24.105469 1.671875 24.09375 1.648438 24.066406 C 1.628906 24.042969 1.617188 24.007812 1.621094 23.964844 L 2.257812 18.828125 C 2.261719 18.789062 2.277344 18.757812 2.304688 18.730469 C 2.335938 18.707031 2.371094 18.691406 2.414062 18.691406 L 4.277344 18.691406 C 4.824219 18.691406 5.257812 18.824219 5.578125 19.089844 C 5.902344 19.355469 6.0625 19.710938 6.0625 20.160156 C 6.0625 20.207031 6.058594 20.28125 6.050781 20.386719 L 5.800781 22.410156 C 5.757812 22.746094 5.640625 23.042969 5.445312 23.300781 C 5.25 23.558594 4.992188 23.757812 4.671875 23.898438 C 4.355469 24.035156 4.003906 24.105469 3.609375 24.105469 Z M 2.992188 22.953125 C 2.992188 22.988281 3.007812 23.007812 3.039062 23.007812 L 3.796875 23.007812 C 3.996094 23.007812 4.171875 22.933594 4.316406 22.785156 C 4.460938 22.640625 4.550781 22.441406 4.585938 22.195312 L 4.78125 20.601562 C 4.785156 20.566406 4.789062 20.515625 4.789062 20.453125 C 4.789062 20.246094 4.734375 20.085938 4.625 19.96875 C 4.515625 19.847656 4.371094 19.789062 4.183594 19.789062 L 3.433594 19.789062 C 3.421875 19.789062 3.410156 19.796875 3.398438 19.808594 C 3.386719 19.816406 3.378906 19.828125 3.378906 19.84375 Z M 2.992188 22.953125 " fill-opacity="1" fill-rule="nonzero"/><path fill="#ffffff" d="M 7.394531 19.84375 C 7.199219 19.84375 7.039062 19.785156 6.921875 19.671875 C 6.800781 19.554688 6.742188 19.398438 6.742188 19.207031 C 6.742188 18.96875 6.820312 18.769531 6.980469 18.609375 C 7.136719 18.453125 7.335938 18.371094 7.578125 18.371094 C 7.78125 18.371094 7.9375 18.429688 8.054688 18.539062 C 8.171875 18.652344 8.230469 18.800781 8.230469 18.984375 C 8.230469 19.238281 8.148438 19.445312 7.992188 19.605469 C 7.835938 19.765625 7.636719 19.84375 7.394531 19.84375 Z M 6.386719 24.105469 C 6.347656 24.105469 6.316406 24.09375 6.292969 24.066406 C 6.265625 24.042969 6.257812 24.007812 6.265625 23.964844 L 6.71875 20.246094 C 6.734375 20.152344 6.789062 20.105469 6.875 20.105469 L 7.851562 20.105469 C 7.890625 20.105469 7.921875 20.121094 7.941406 20.144531 C 7.960938 20.171875 7.972656 20.203125 7.96875 20.246094 L 7.511719 23.964844 C 7.503906 24.007812 7.488281 24.042969 7.460938 24.066406 C 7.4375 24.09375 7.402344 24.105469 7.363281 24.105469 Z M 6.386719 24.105469 " fill-opacity="1" fill-rule="nonzero"/><path fill="#ffffff" d="M 10.867188 20.042969 C 11.222656 20.042969 11.507812 20.148438 11.71875 20.359375 C 11.929688 20.566406 12.035156 20.855469 12.035156 21.226562 C 12.035156 21.273438 12.027344 21.355469 12.019531 21.46875 L 11.710938 23.964844 C 11.707031 24.007812 11.691406 24.042969 11.664062 24.066406 C 11.636719 24.09375 11.605469 24.105469 11.5625 24.105469 L 10.589844 24.105469 C 10.546875 24.105469 10.515625 24.09375 10.492188 24.066406 C 10.46875 24.042969 10.460938 24.007812 10.464844 23.964844 L 10.742188 21.746094 L 10.75 21.648438 C 10.75 21.496094 10.710938 21.375 10.628906 21.28125 C 10.550781 21.1875 10.441406 21.140625 10.300781 21.140625 C 10.152344 21.140625 10.023438 21.199219 9.910156 21.308594 C 9.800781 21.421875 9.734375 21.566406 9.714844 21.746094 L 9.445312 23.964844 C 9.429688 24.058594 9.375 24.105469 9.289062 24.105469 L 8.316406 24.105469 C 8.273438 24.105469 8.242188 24.09375 8.222656 24.066406 C 8.199219 24.042969 8.191406 24.007812 8.199219 23.964844 L 8.65625 20.246094 C 8.660156 20.203125 8.675781 20.171875 8.699219 20.144531 C 8.726562 20.121094 8.761719 20.105469 8.800781 20.105469 L 9.777344 20.105469 C 9.816406 20.105469 9.847656 20.121094 9.871094 20.144531 C 9.894531 20.171875 9.90625 20.203125 9.902344 20.246094 L 9.871094 20.464844 C 9.863281 20.488281 9.867188 20.503906 9.878906 20.507812 C 9.894531 20.515625 9.90625 20.507812 9.921875 20.484375 C 10.15625 20.191406 10.46875 20.042969 10.867188 20.042969 Z M 10.867188 20.042969 " fill-opacity="1" fill-rule="nonzero"/><path fill="#ffffff" d="M 15.136719 20.246094 C 15.152344 20.152344 15.203125 20.105469 15.292969 20.105469 L 16.265625 20.105469 C 16.304688 20.105469 16.335938 20.121094 16.359375 20.144531 C 16.378906 20.171875 16.386719 20.203125 16.382812 20.246094 L 15.964844 23.65625 C 15.878906 24.363281 15.617188 24.867188 15.183594 25.171875 C 14.75 25.476562 14.230469 25.628906 13.628906 25.628906 C 13.433594 25.628906 13.214844 25.609375 12.96875 25.574219 C 12.882812 25.558594 12.847656 25.507812 12.871094 25.421875 L 13.011719 24.5625 C 13.03125 24.464844 13.085938 24.421875 13.179688 24.4375 C 13.371094 24.480469 13.542969 24.5 13.699219 24.5 C 13.980469 24.5 14.210938 24.433594 14.394531 24.296875 C 14.574219 24.164062 14.683594 23.953125 14.71875 23.664062 L 14.625 23.742188 C 14.441406 23.914062 14.179688 23.996094 13.84375 23.996094 C 13.515625 23.996094 13.21875 23.921875 12.960938 23.773438 C 12.703125 23.625 12.539062 23.359375 12.46875 22.984375 C 12.441406 22.867188 12.429688 22.722656 12.429688 22.550781 C 12.429688 22.425781 12.4375 22.269531 12.460938 22.070312 C 12.507812 21.691406 12.59375 21.363281 12.722656 21.097656 C 12.878906 20.777344 13.09375 20.523438 13.367188 20.332031 C 13.644531 20.140625 13.949219 20.042969 14.285156 20.042969 C 14.636719 20.042969 14.898438 20.148438 15.066406 20.359375 C 15.078125 20.382812 15.089844 20.390625 15.101562 20.386719 C 15.113281 20.378906 15.125 20.363281 15.128906 20.339844 Z M 14.773438 22.644531 C 14.835938 22.519531 14.882812 22.324219 14.914062 22.0625 C 14.933594 21.886719 14.945312 21.785156 14.945312 21.753906 C 14.945312 21.675781 14.929688 21.59375 14.902344 21.507812 C 14.878906 21.394531 14.828125 21.304688 14.75 21.242188 C 14.671875 21.175781 14.570312 21.140625 14.4375 21.140625 C 14.207031 21.140625 14.027344 21.265625 13.898438 21.507812 C 13.800781 21.652344 13.738281 21.84375 13.714844 22.078125 C 13.703125 22.140625 13.699219 22.226562 13.699219 22.335938 C 13.699219 22.457031 13.710938 22.558594 13.742188 22.636719 C 13.769531 22.746094 13.824219 22.832031 13.90625 22.898438 C 13.988281 22.964844 14.09375 23 14.226562 23 C 14.476562 23 14.660156 22.878906 14.773438 22.644531 Z M 14.773438 22.644531 " fill-opacity="1" fill-rule="nonzero"/><path fill="#ffffff" d="M 16.746094 22.410156 C 16.703125 22.410156 16.671875 22.398438 16.652344 22.375 C 16.628906 22.347656 16.621094 22.3125 16.628906 22.273438 L 16.730469 21.453125 C 16.734375 21.410156 16.75 21.378906 16.777344 21.351562 C 16.808594 21.328125 16.84375 21.3125 16.886719 21.3125 L 19.34375 21.3125 C 19.386719 21.3125 19.417969 21.328125 19.4375 21.351562 C 19.457031 21.378906 19.464844 21.410156 19.460938 21.453125 L 19.359375 22.273438 C 19.355469 22.3125 19.335938 22.347656 19.308594 22.375 C 19.28125 22.398438 19.246094 22.410156 19.203125 22.410156 Z M 16.746094 22.410156 " fill-opacity="1" fill-rule="nonzero"/><path fill="#ffffff" d="M 19.832031 24.105469 C 19.789062 24.105469 19.757812 24.09375 19.734375 24.066406 C 19.710938 24.042969 19.703125 24.007812 19.707031 23.964844 L 20.34375 18.828125 C 20.347656 18.789062 20.363281 18.757812 20.390625 18.730469 C 20.417969 18.707031 20.453125 18.691406 20.496094 18.691406 L 22.363281 18.691406 C 22.90625 18.691406 23.339844 18.824219 23.664062 19.089844 C 23.984375 19.355469 24.148438 19.710938 24.148438 20.160156 C 24.148438 20.207031 24.140625 20.28125 24.132812 20.386719 L 23.886719 22.410156 C 23.84375 22.746094 23.722656 23.042969 23.527344 23.300781 C 23.332031 23.558594 23.074219 23.757812 22.757812 23.898438 C 22.441406 24.035156 22.085938 24.105469 21.695312 24.105469 Z M 21.074219 22.953125 C 21.074219 22.988281 21.089844 23.007812 21.125 23.007812 L 21.878906 23.007812 C 22.082031 23.007812 22.253906 22.933594 22.398438 22.785156 C 22.542969 22.640625 22.632812 22.441406 22.671875 22.195312 L 22.863281 20.601562 C 22.867188 20.566406 22.871094 20.515625 22.871094 20.453125 C 22.871094 20.246094 22.816406 20.085938 22.710938 19.96875 C 22.601562 19.847656 22.453125 19.789062 22.269531 19.789062 L 21.519531 19.789062 C 21.507812 19.789062 21.496094 19.796875 21.480469 19.808594 C 21.46875 19.816406 21.464844 19.828125 21.464844 19.84375 Z M 21.074219 22.953125 " fill-opacity="1" fill-rule="nonzero"/><path fill="#ffffff" d="M 26.042969 24.167969 C 25.59375 24.167969 25.226562 24.042969 24.945312 23.796875 C 24.660156 23.546875 24.492188 23.214844 24.433594 22.789062 C 24.417969 22.683594 24.410156 22.570312 24.410156 22.457031 C 24.410156 22.339844 24.417969 22.21875 24.433594 22.09375 C 24.464844 21.847656 24.527344 21.597656 24.621094 21.34375 C 24.789062 20.9375 25.042969 20.621094 25.382812 20.390625 C 25.722656 20.160156 26.117188 20.042969 26.5625 20.042969 C 27 20.042969 27.355469 20.160156 27.632812 20.390625 C 27.914062 20.621094 28.085938 20.933594 28.152344 21.335938 C 28.175781 21.453125 28.183594 21.59375 28.183594 21.753906 C 28.183594 21.898438 28.179688 22.007812 28.171875 22.078125 C 28.140625 22.335938 28.082031 22.5625 28 22.757812 C 27.84375 23.191406 27.59375 23.535156 27.25 23.789062 C 26.902344 24.042969 26.5 24.167969 26.042969 24.167969 Z M 26.183594 23.070312 C 26.328125 23.070312 26.453125 23.023438 26.5625 22.925781 C 26.667969 22.832031 26.753906 22.699219 26.816406 22.535156 C 26.855469 22.421875 26.890625 22.277344 26.914062 22.09375 C 26.925781 21.980469 26.933594 21.902344 26.933594 21.855469 C 26.933594 21.632812 26.890625 21.457031 26.804688 21.332031 C 26.71875 21.207031 26.589844 21.140625 26.414062 21.140625 C 26.121094 21.140625 25.914062 21.3125 25.792969 21.648438 C 25.738281 21.773438 25.703125 21.925781 25.6875 22.09375 C 25.671875 22.191406 25.664062 22.289062 25.664062 22.378906 C 25.664062 22.585938 25.707031 22.753906 25.792969 22.878906 C 25.882812 23.007812 26.011719 23.070312 26.183594 23.070312 Z M 26.183594 23.070312 " fill-opacity="1" fill-rule="nonzero"/><path fill="#ffffff" d="M 31.148438 20.042969 C 31.503906 20.042969 31.785156 20.148438 32 20.359375 C 32.210938 20.566406 32.316406 20.855469 32.316406 21.226562 C 32.316406 21.273438 32.308594 21.355469 32.300781 21.46875 L 31.988281 23.964844 C 31.984375 24.007812 31.96875 24.042969 31.945312 24.066406 C 31.917969 24.09375 31.886719 24.105469 31.84375 24.105469 L 30.867188 24.105469 C 30.828125 24.105469 30.792969 24.09375 30.769531 24.066406 C 30.75 24.042969 30.738281 24.007812 30.746094 23.964844 L 31.023438 21.746094 L 31.03125 21.648438 C 31.03125 21.496094 30.992188 21.375 30.910156 21.28125 C 30.832031 21.1875 30.722656 21.140625 30.582031 21.140625 C 30.433594 21.140625 30.300781 21.199219 30.191406 21.308594 C 30.078125 21.421875 30.015625 21.566406 29.996094 21.746094 L 29.726562 23.964844 C 29.710938 24.058594 29.65625 24.105469 29.570312 24.105469 L 28.59375 24.105469 C 28.554688 24.105469 28.523438 24.09375 28.5 24.066406 C 28.480469 24.042969 28.472656 24.007812 28.480469 23.964844 L 28.933594 20.246094 C 28.941406 20.203125 28.957031 20.171875 28.980469 20.144531 C 29.007812 20.121094 29.042969 20.105469 29.082031 20.105469 L 30.054688 20.105469 C 30.097656 20.105469 30.128906 20.121094 30.152344 20.144531 C 30.175781 20.171875 30.183594 20.203125 30.179688 20.246094 L 30.148438 20.464844 C 30.144531 20.488281 30.148438 20.503906 30.160156 20.507812 C 30.171875 20.515625 30.1875 20.507812 30.203125 20.484375 C 30.4375 20.191406 30.75 20.042969 31.148438 20.042969 Z M 31.148438 20.042969 " fill-opacity="1" fill-rule="nonzero"/><g clip-path="url(#id7)"><path fill="#ffffff" d="M 35.417969 20.246094 C 35.433594 20.152344 35.484375 20.105469 35.570312 20.105469 L 36.546875 20.105469 C 36.585938 20.105469 36.617188 20.121094 36.640625 20.144531 C 36.660156 20.171875 36.667969 20.203125 36.660156 20.246094 L 36.246094 23.65625 C 36.15625 24.363281 35.898438 24.867188 35.464844 25.171875 C 35.03125 25.476562 34.511719 25.628906 33.910156 25.628906 C 33.714844 25.628906 33.492188 25.609375 33.25 25.574219 C 33.164062 25.558594 33.128906 25.507812 33.152344 25.421875 L 33.289062 24.5625 C 33.3125 24.464844 33.367188 24.421875 33.460938 24.4375 C 33.652344 24.480469 33.824219 24.5 33.976562 24.5 C 34.261719 24.5 34.492188 24.433594 34.675781 24.296875 C 34.855469 24.164062 34.960938 23.953125 35 23.664062 L 34.90625 23.742188 C 34.722656 23.914062 34.460938 23.996094 34.125 23.996094 C 33.796875 23.996094 33.5 23.921875 33.242188 23.773438 C 32.984375 23.625 32.820312 23.359375 32.75 22.984375 C 32.722656 22.867188 32.707031 22.722656 32.707031 22.550781 C 32.707031 22.425781 32.71875 22.269531 32.738281 22.070312 C 32.789062 21.691406 32.875 21.363281 33.003906 21.097656 C 33.15625 20.777344 33.375 20.523438 33.648438 20.332031 C 33.925781 20.140625 34.230469 20.042969 34.566406 20.042969 C 34.917969 20.042969 35.175781 20.148438 35.347656 20.359375 C 35.359375 20.382812 35.371094 20.390625 35.382812 20.386719 C 35.394531 20.378906 35.402344 20.363281 35.410156 20.339844 Z M 35.054688 22.644531 C 35.117188 22.519531 35.164062 22.324219 35.191406 22.0625 C 35.214844 21.886719 35.222656 21.785156 35.222656 21.753906 C 35.222656 21.675781 35.210938 21.59375 35.183594 21.507812 C 35.160156 21.394531 35.109375 21.304688 35.03125 21.242188 C 34.953125 21.175781 34.847656 21.140625 34.71875 21.140625 C 34.488281 21.140625 34.308594 21.265625 34.179688 21.507812 C 34.082031 21.652344 34.019531 21.84375 33.996094 22.078125 C 33.984375 22.140625 33.976562 22.226562 33.976562 22.335938 C 33.976562 22.457031 33.992188 22.558594 34.023438 22.636719 C 34.050781 22.746094 34.105469 22.832031 34.1875 22.898438 C 34.269531 22.964844 34.375 23 34.503906 23 C 34.757812 23 34.9375 22.878906 35.054688 22.644531 Z M 35.054688 22.644531 " fill-opacity="1" fill-rule="nonzero"/></g></svg>