<svg xmlns="http://www.w3.org/2000/svg" xmlns:xlink="http://www.w3.org/1999/xlink" width="50" zoomAndPan="magnify" viewBox="0 0 37.5 37.499999" height="50" preserveAspectRatio="xMidYMid meet" version="1.0"><defs><clipPath id="id1"><path d="M 0 0 L 37.007812 0 L 37.007812 37.007812 L 0 37.007812 Z M 0 0 " clip-rule="nonzero"/></clipPath><clipPath id="id2"><path d="M 7 12.734375 L 8.535156 12.734375 L 8.535156 13.714844 L 7 13.714844 Z M 7 12.734375 " clip-rule="nonzero"/></clipPath><clipPath id="id3"><path d="M 11.894531 5.242188 L 22.953125 5.242188 L 22.953125 13 L 11.894531 13 Z M 11.894531 5.242188 " clip-rule="nonzero"/></clipPath><clipPath id="id4"><path d="M 10 8.535156 L 30.625 8.535156 L 30.625 17.355469 L 10 17.355469 Z M 10 8.535156 " clip-rule="nonzero"/></clipPath><clipPath id="id5"><path d="M 7 12.734375 L 8.535156 12.734375 L 8.535156 13.714844 L 7 13.714844 Z M 7 12.734375 " clip-rule="nonzero"/></clipPath><clipPath id="id6"><path d="M 15.113281 16.09375 L 18.054688 16.09375 L 18.054688 18.789062 L 15.113281 18.789062 Z M 15.113281 16.09375 " clip-rule="nonzero"/></clipPath><clipPath id="id7"><path d="M 23.65625 16.09375 L 26.59375 16.09375 L 26.59375 18.789062 L 23.65625 18.789062 Z M 23.65625 16.09375 " clip-rule="nonzero"/></clipPath><clipPath id="id8"><path d="M 33 22 L 37.007812 22 L 37.007812 29 L 33 29 Z M 33 22 " clip-rule="nonzero"/></clipPath></defs><g clip-path="url(#id1)"><path fill="#ffffff" d="M 0 0 L 37.5 0 L 37.5 45 L 0 45 Z M 0 0 " fill-opacity="1" fill-rule="nonzero"/><path fill="#ffffff" d="M 0 0 L 37.5 0 L 37.5 37.5 L 0 37.5 Z M 0 0 " fill-opacity="1" fill-rule="nonzero"/><path fill="#ffffff" d="M 0 0 L 37.5 0 L 37.5 37.5 L 0 37.5 Z M 0 0 " fill-opacity="1" fill-rule="nonzero"/><path fill="#ffffff" d="M 0 0 L 37.5 0 L 37.5 37.5 L 0 37.5 Z M 0 0 " fill-opacity="1" fill-rule="nonzero"/><rect x="-3.75" width="45" fill="#540b66" y="-3.75" height="44.999999" fill-opacity="1"/><rect x="-3.75" width="45" fill="#ffffff" y="-3.75" height="44.999999" fill-opacity="1"/><rect x="-3.75" width="45" fill="#540b66" y="-3.75" height="44.999999" fill-opacity="1"/></g><g clip-path="url(#id2)"><path fill="#c48e3c" d="M 8.515625 13.1875 C 8.484375 12.945312 8.265625 12.753906 8.023438 12.753906 L 7.476562 12.753906 C 7.234375 12.753906 7.0625 12.945312 7.09375 13.1875 C 7.125 13.429688 7.34375 13.625 7.585938 13.625 L 8.132812 13.625 C 8.375 13.625 8.546875 13.429688 8.515625 13.1875 Z M 8.515625 13.1875 " fill-opacity="1" fill-rule="evenodd"/></g><g clip-path="url(#id3)"><path fill="#c48e3c" d="M 17.335938 5.242188 L 18.664062 8.15625 C 18.683594 8.207031 18.734375 8.238281 18.792969 8.246094 L 22.675781 8.558594 C 22.792969 8.570312 22.875 8.449219 22.828125 8.339844 L 21.816406 6.117188 C 21.792969 6.070312 21.753906 6.039062 21.703125 6.027344 L 17.339844 5.242188 Z M 12.945312 6.117188 L 11.910156 8.332031 C 11.863281 8.445312 11.949219 8.566406 12.066406 8.554688 L 15.960938 8.15625 C 16.015625 8.152344 16.0625 8.117188 16.085938 8.066406 L 17.335938 5.242188 L 13.058594 6.027344 C 13.011719 6.039062 12.96875 6.070312 12.945312 6.117188 Z M 17.351562 7.59375 L 17.351562 12.109375 L 20.941406 11.429688 L 20.941406 9.230469 C 20.941406 9.140625 21.023438 9.066406 21.117188 9.074219 L 21.554688 9.144531 C 21.636719 9.15625 21.695312 9.21875 21.695312 9.296875 L 21.695312 11.855469 C 21.695312 11.925781 21.644531 11.988281 21.570312 12.003906 L 17.644531 12.851562 C 17.453125 12.890625 17.253906 12.890625 17.066406 12.851562 L 13.179688 12.03125 C 13.109375 12.015625 13.058594 11.957031 13.054688 11.886719 L 12.992188 9.289062 C 12.988281 9.207031 13.050781 9.140625 13.132812 9.132812 L 16.433594 8.839844 C 16.492188 8.835938 16.542969 8.800781 16.5625 8.746094 L 17.0625 7.539062 C 17.125 7.382812 17.359375 7.429688 17.359375 7.597656 Z M 17.351562 7.59375 " fill-opacity="1" fill-rule="evenodd"/></g><g clip-path="url(#id4)"><path fill="#ffffff" d="M 13.691406 14.558594 L 15.199219 14.558594 C 15.460938 14.558594 15.703125 14.773438 15.738281 15.039062 C 15.769531 15.300781 15.585938 15.515625 15.320312 15.515625 L 10.433594 15.515625 C 10.199219 15.515625 10.035156 15.703125 10.0625 15.933594 C 10.089844 16.167969 10.304688 16.355469 10.535156 16.355469 L 13.105469 16.355469 L 13.121094 17.261719 L 14.785156 17.261719 C 14.914062 16.355469 15.742188 15.691406 16.664062 15.691406 C 17.582031 15.691406 18.367188 16.359375 18.429688 17.261719 L 21.28125 17.261719 L 21.28125 17.253906 L 22.921875 17.253906 C 23.125 17.253906 23.316406 17.132812 23.394531 16.949219 L 23.523438 16.648438 C 23.816406 15.96875 24.523438 15.519531 25.289062 15.519531 C 25.980469 15.519531 26.597656 15.890625 26.875 16.480469 L 27.117188 16.992188 C 27.195312 17.152344 27.359375 17.253906 27.546875 17.253906 L 29.863281 17.253906 C 30.085938 17.253906 30.289062 17.109375 30.351562 16.902344 L 30.5 16.433594 C 30.597656 16.117188 30.445312 15.792969 30.140625 15.664062 L 30.25 13.703125 C 30.292969 12.929688 30.105469 12.171875 29.707031 11.515625 L 28.765625 10.101562 C 28.105469 9.109375 26.945312 8.523438 25.679688 8.539062 L 24.007812 8.554688 L 23.269531 8.558594 C 23.199219 8.828125 22.945312 9.039062 22.636719 9.011719 L 22.035156 8.964844 C 22.101562 9.0625 22.136719 9.179688 22.136719 9.300781 L 22.136719 11.855469 C 22.136719 12.140625 21.941406 12.386719 21.664062 12.449219 L 17.734375 13.292969 C 17.484375 13.347656 17.21875 13.351562 16.96875 13.296875 L 15.710938 13.035156 L 13.613281 13.046875 L 13.125 13.050781 L 11.613281 13.058594 C 11.382812 13.058594 11.21875 13.246094 11.246094 13.480469 C 11.273438 13.710938 11.488281 13.898438 11.71875 13.898438 L 13.078125 13.898438 L 13.089844 14.566406 L 13.695312 14.566406 Z M 24.007812 11.660156 C 23.78125 11.613281 23.628906 11.421875 23.636719 11.203125 L 23.691406 10.070312 C 23.703125 9.800781 23.949219 9.585938 24.230469 9.601562 L 26.425781 9.707031 C 26.964844 9.734375 27.445312 10.011719 27.699219 10.453125 L 28.597656 12 C 28.75 12.265625 28.488281 12.585938 28.175781 12.523438 L 24.007812 11.664062 Z M 24.007812 11.660156 " fill-opacity="1" fill-rule="evenodd"/></g><path fill="#c48e3c" d="M 12.074219 11.0625 C 12.101562 11.292969 12.316406 11.480469 12.546875 11.480469 L 12.589844 11.480469 L 12.570312 10.640625 L 12.445312 10.640625 C 12.210938 10.640625 12.046875 10.828125 12.074219 11.058594 Z M 12.074219 11.0625 " fill-opacity="1" fill-rule="evenodd"/><path fill="#c48e3c" d="M 11.097656 10.542969 C 11.339844 10.542969 11.511719 10.351562 11.480469 10.109375 C 11.449219 9.867188 11.230469 9.675781 10.988281 9.675781 L 10.4375 9.675781 C 10.199219 9.675781 10.023438 9.867188 10.058594 10.109375 C 10.089844 10.351562 10.308594 10.542969 10.546875 10.542969 Z M 11.097656 10.542969 " fill-opacity="1" fill-rule="evenodd"/><path fill="#c48e3c" d="M 10.308594 11.746094 L 9.757812 11.746094 C 9.515625 11.746094 9.34375 11.9375 9.375 12.179688 C 9.40625 12.421875 9.625 12.613281 9.867188 12.613281 L 10.417969 12.613281 C 10.65625 12.613281 10.828125 12.421875 10.796875 12.179688 C 10.765625 11.9375 10.546875 11.746094 10.308594 11.746094 Z M 10.308594 11.746094 " fill-opacity="1" fill-rule="evenodd"/><g clip-path="url(#id5)"><path fill="#c48e3c" d="M 8.515625 13.1875 C 8.484375 12.945312 8.265625 12.753906 8.023438 12.753906 L 7.476562 12.753906 C 7.234375 12.753906 7.0625 12.945312 7.09375 13.1875 C 7.125 13.429688 7.34375 13.625 7.585938 13.625 L 8.132812 13.625 C 8.375 13.625 8.546875 13.429688 8.515625 13.1875 Z M 8.515625 13.1875 " fill-opacity="1" fill-rule="evenodd"/></g><path fill="#c48e3c" d="M 8.945312 14.453125 L 8.394531 14.453125 C 8.15625 14.453125 7.984375 14.648438 8.015625 14.886719 C 8.046875 15.128906 8.265625 15.324219 8.503906 15.324219 L 9.054688 15.324219 C 9.296875 15.324219 9.46875 15.128906 9.4375 14.886719 C 9.40625 14.648438 9.1875 14.453125 8.945312 14.453125 Z M 8.945312 14.453125 " fill-opacity="1" fill-rule="evenodd"/><path fill="#c48e3c" d="M 11.167969 16.828125 L 10.617188 16.828125 C 10.375 16.828125 10.203125 17.019531 10.234375 17.261719 C 10.265625 17.503906 10.484375 17.699219 10.726562 17.699219 L 11.277344 17.699219 C 11.519531 17.699219 11.691406 17.503906 11.65625 17.261719 C 11.628906 17.019531 11.410156 16.828125 11.167969 16.828125 Z M 11.167969 16.828125 " fill-opacity="1" fill-rule="evenodd"/><g clip-path="url(#id6)"><path fill="#ffffff" d="M 16.667969 16.101562 C 15.882812 16.101562 15.21875 16.703125 15.183594 17.445312 C 15.148438 18.1875 15.757812 18.789062 16.542969 18.789062 C 17.328125 18.789062 17.988281 18.1875 18.023438 17.445312 C 18.058594 16.703125 17.453125 16.101562 16.667969 16.101562 Z M 16.667969 16.101562 " fill-opacity="1" fill-rule="evenodd"/></g><g clip-path="url(#id7)"><path fill="#ffffff" d="M 25.222656 16.101562 C 24.4375 16.101562 23.773438 16.703125 23.738281 17.445312 C 23.707031 18.1875 24.3125 18.789062 25.097656 18.789062 C 25.882812 18.789062 26.546875 18.1875 26.582031 17.445312 C 26.613281 16.703125 26.007812 16.101562 25.222656 16.101562 Z M 25.222656 16.101562 " fill-opacity="1" fill-rule="evenodd"/></g><path fill="#ffffff" d="M 0.902344 26.902344 C 0.8125 26.902344 0.773438 26.855469 0.785156 26.765625 L 1.453125 21.355469 C 1.464844 21.265625 1.511719 21.21875 1.597656 21.21875 L 3.53125 21.21875 C 4.074219 21.21875 4.503906 21.351562 4.824219 21.621094 C 5.140625 21.886719 5.300781 22.246094 5.300781 22.695312 C 5.300781 22.75 5.296875 22.832031 5.285156 22.941406 L 5.007812 25.179688 C 4.96875 25.523438 4.855469 25.824219 4.660156 26.082031 C 4.464844 26.339844 4.210938 26.542969 3.894531 26.6875 C 3.578125 26.832031 3.222656 26.902344 2.832031 26.902344 Z M 2.003906 25.871094 C 2.003906 25.902344 2.019531 25.917969 2.042969 25.917969 L 2.996094 25.917969 C 3.238281 25.917969 3.445312 25.835938 3.613281 25.667969 C 3.78125 25.5 3.882812 25.277344 3.921875 24.996094 L 4.15625 23.125 C 4.160156 23.089844 4.164062 23.035156 4.164062 22.972656 C 4.164062 22.734375 4.101562 22.546875 3.972656 22.410156 C 3.847656 22.269531 3.671875 22.199219 3.441406 22.199219 L 2.5 22.199219 C 2.46875 22.199219 2.453125 22.21875 2.453125 22.25 Z M 2.003906 25.871094 " fill-opacity="1" fill-rule="nonzero"/><path fill="#ffffff" d="M 6.738281 22.332031 C 6.554688 22.332031 6.40625 22.277344 6.300781 22.171875 C 6.191406 22.066406 6.136719 21.925781 6.136719 21.753906 C 6.136719 21.527344 6.210938 21.339844 6.355469 21.191406 C 6.503906 21.042969 6.683594 20.96875 6.902344 20.96875 C 7.089844 20.96875 7.238281 21.019531 7.347656 21.121094 C 7.457031 21.226562 7.511719 21.363281 7.511719 21.542969 C 7.511719 21.769531 7.4375 21.957031 7.292969 22.105469 C 7.144531 22.253906 6.960938 22.332031 6.738281 22.332031 Z M 5.753906 26.902344 C 5.667969 26.902344 5.632812 26.855469 5.640625 26.765625 L 6.121094 22.867188 C 6.132812 22.773438 6.179688 22.726562 6.265625 22.726562 L 7.113281 22.726562 C 7.203125 22.726562 7.246094 22.773438 7.234375 22.867188 L 6.753906 26.765625 C 6.738281 26.855469 6.6875 26.902344 6.601562 26.902344 Z M 5.753906 26.902344 " fill-opacity="1" fill-rule="nonzero"/><path fill="#ffffff" d="M 10.238281 22.664062 C 10.617188 22.664062 10.917969 22.769531 11.140625 22.988281 C 11.363281 23.203125 11.472656 23.503906 11.472656 23.890625 C 11.472656 23.9375 11.46875 24.023438 11.457031 24.140625 L 11.140625 26.765625 C 11.125 26.855469 11.070312 26.902344 10.984375 26.902344 L 10.140625 26.902344 C 10.054688 26.902344 10.015625 26.855469 10.027344 26.765625 L 10.320312 24.378906 C 10.324219 24.34375 10.328125 24.300781 10.328125 24.246094 C 10.328125 24.070312 10.277344 23.925781 10.175781 23.8125 C 10.078125 23.699219 9.941406 23.644531 9.773438 23.644531 C 9.582031 23.644531 9.414062 23.710938 9.277344 23.847656 C 9.136719 23.984375 9.054688 24.160156 9.027344 24.378906 L 8.734375 26.765625 C 8.726562 26.855469 8.675781 26.902344 8.582031 26.902344 L 7.746094 26.902344 C 7.652344 26.902344 7.613281 26.855469 7.621094 26.765625 L 8.105469 22.867188 C 8.113281 22.773438 8.164062 22.726562 8.257812 22.726562 L 9.09375 22.726562 C 9.183594 22.726562 9.226562 22.773438 9.214844 22.867188 L 9.183594 23.09375 C 9.183594 23.140625 9.199219 23.148438 9.230469 23.117188 C 9.480469 22.816406 9.816406 22.664062 10.238281 22.664062 Z M 10.238281 22.664062 " fill-opacity="1" fill-rule="nonzero"/><path fill="#ffffff" d="M 14.890625 22.867188 C 14.902344 22.773438 14.949219 22.726562 15.035156 22.726562 L 15.882812 22.726562 C 15.972656 22.726562 16.011719 22.773438 15.992188 22.867188 L 15.546875 26.527344 C 15.460938 27.238281 15.203125 27.746094 14.769531 28.046875 C 14.335938 28.347656 13.8125 28.5 13.195312 28.5 C 13.011719 28.5 12.816406 28.488281 12.609375 28.460938 C 12.535156 28.457031 12.5 28.40625 12.511719 28.316406 L 12.632812 27.558594 C 12.636719 27.515625 12.65625 27.480469 12.6875 27.457031 C 12.722656 27.433594 12.761719 27.425781 12.804688 27.4375 C 12.992188 27.464844 13.152344 27.480469 13.273438 27.480469 C 13.609375 27.480469 13.875 27.402344 14.074219 27.253906 C 14.269531 27.101562 14.390625 26.855469 14.4375 26.519531 C 14.441406 26.503906 14.4375 26.496094 14.425781 26.492188 C 14.417969 26.488281 14.402344 26.496094 14.386719 26.511719 C 14.160156 26.730469 13.855469 26.835938 13.476562 26.835938 C 13.136719 26.835938 12.832031 26.75 12.566406 26.582031 C 12.300781 26.410156 12.132812 26.136719 12.054688 25.757812 C 12.035156 25.644531 12.023438 25.503906 12.023438 25.34375 C 12.023438 25.203125 12.035156 25.019531 12.054688 24.792969 C 12.117188 24.359375 12.207031 24.015625 12.324219 23.757812 C 12.476562 23.429688 12.695312 23.164062 12.980469 22.964844 C 13.269531 22.761719 13.585938 22.664062 13.933594 22.664062 C 14.332031 22.664062 14.625 22.785156 14.808594 23.027344 C 14.828125 23.046875 14.839844 23.050781 14.851562 23.046875 C 14.859375 23.039062 14.871094 23.027344 14.875 23.003906 Z M 14.507812 25.449219 C 14.566406 25.292969 14.617188 25.070312 14.65625 24.78125 C 14.675781 24.625 14.6875 24.492188 14.6875 24.382812 C 14.6875 24.285156 14.679688 24.203125 14.664062 24.132812 C 14.636719 23.988281 14.570312 23.871094 14.472656 23.78125 C 14.371094 23.691406 14.242188 23.644531 14.078125 23.644531 C 13.921875 23.644531 13.78125 23.691406 13.660156 23.78125 C 13.539062 23.871094 13.441406 23.988281 13.375 24.132812 C 13.28125 24.289062 13.214844 24.511719 13.175781 24.792969 C 13.160156 24.925781 13.152344 25.046875 13.152344 25.148438 C 13.152344 25.261719 13.164062 25.359375 13.195312 25.441406 C 13.21875 25.585938 13.285156 25.703125 13.394531 25.796875 C 13.503906 25.882812 13.640625 25.929688 13.800781 25.929688 C 13.96875 25.929688 14.113281 25.882812 14.234375 25.796875 C 14.359375 25.703125 14.449219 25.589844 14.507812 25.449219 Z M 14.507812 25.449219 " fill-opacity="1" fill-rule="nonzero"/><path fill="#ffffff" d="M 16.480469 24.996094 C 16.390625 24.996094 16.351562 24.949219 16.367188 24.855469 L 16.449219 24.148438 C 16.464844 24.058594 16.515625 24.011719 16.601562 24.011719 L 19.097656 24.011719 C 19.1875 24.011719 19.230469 24.058594 19.21875 24.148438 L 19.128906 24.855469 C 19.117188 24.949219 19.070312 24.996094 18.984375 24.996094 Z M 16.480469 24.996094 " fill-opacity="1" fill-rule="nonzero"/><path fill="#ffffff" d="M 19.722656 26.902344 C 19.632812 26.902344 19.597656 26.855469 19.609375 26.765625 L 20.273438 21.355469 C 20.285156 21.265625 20.332031 21.21875 20.417969 21.21875 L 22.351562 21.21875 C 22.894531 21.21875 23.324219 21.351562 23.644531 21.621094 C 23.964844 21.886719 24.125 22.246094 24.125 22.695312 C 24.125 22.75 24.117188 22.832031 24.105469 22.941406 L 23.828125 25.179688 C 23.792969 25.523438 23.675781 25.824219 23.480469 26.082031 C 23.285156 26.339844 23.03125 26.542969 22.714844 26.6875 C 22.398438 26.832031 22.042969 26.902344 21.652344 26.902344 Z M 20.828125 25.871094 C 20.828125 25.902344 20.839844 25.917969 20.867188 25.917969 L 21.816406 25.917969 C 22.0625 25.917969 22.265625 25.835938 22.433594 25.667969 C 22.601562 25.5 22.703125 25.277344 22.742188 24.996094 L 22.976562 23.125 C 22.980469 23.089844 22.984375 23.035156 22.984375 22.972656 C 22.984375 22.734375 22.921875 22.546875 22.796875 22.410156 C 22.667969 22.269531 22.492188 22.199219 22.265625 22.199219 L 21.320312 22.199219 C 21.289062 22.199219 21.273438 22.21875 21.273438 22.25 Z M 20.828125 25.871094 " fill-opacity="1" fill-rule="nonzero"/><path fill="#ffffff" d="M 26.167969 26.96875 C 25.722656 26.96875 25.359375 26.847656 25.070312 26.609375 C 24.785156 26.371094 24.609375 26.046875 24.542969 25.636719 C 24.523438 25.523438 24.511719 25.382812 24.511719 25.214844 C 24.511719 25.078125 24.519531 24.941406 24.539062 24.804688 C 24.578125 24.460938 24.65625 24.175781 24.765625 23.945312 C 24.933594 23.546875 25.1875 23.230469 25.527344 23.003906 C 25.867188 22.777344 26.261719 22.664062 26.703125 22.664062 C 27.136719 22.664062 27.492188 22.777344 27.769531 23.003906 C 28.042969 23.230469 28.21875 23.542969 28.296875 23.9375 C 28.324219 24.101562 28.335938 24.257812 28.335938 24.410156 C 28.335938 24.535156 28.328125 24.660156 28.3125 24.792969 C 28.285156 25.050781 28.21875 25.324219 28.109375 25.613281 C 27.933594 26.03125 27.679688 26.363281 27.335938 26.605469 C 26.996094 26.847656 26.605469 26.96875 26.167969 26.96875 Z M 26.289062 25.984375 C 26.460938 25.984375 26.613281 25.933594 26.746094 25.824219 C 26.875 25.714844 26.980469 25.566406 27.0625 25.375 C 27.121094 25.230469 27.164062 25.039062 27.191406 24.804688 C 27.207031 24.675781 27.21875 24.554688 27.21875 24.441406 C 27.21875 24.191406 27.160156 24 27.046875 23.855469 C 26.933594 23.714844 26.769531 23.644531 26.558594 23.644531 C 26.382812 23.644531 26.230469 23.695312 26.097656 23.800781 C 25.964844 23.902344 25.863281 24.046875 25.785156 24.230469 C 25.726562 24.386719 25.683594 24.578125 25.65625 24.804688 C 25.640625 24.925781 25.632812 25.046875 25.632812 25.164062 C 25.632812 25.417969 25.6875 25.621094 25.800781 25.765625 C 25.910156 25.914062 26.074219 25.984375 26.289062 25.984375 Z M 26.289062 25.984375 " fill-opacity="1" fill-rule="nonzero"/><path fill="#ffffff" d="M 31.398438 22.664062 C 31.777344 22.664062 32.078125 22.769531 32.300781 22.988281 C 32.519531 23.203125 32.632812 23.503906 32.632812 23.890625 C 32.632812 23.9375 32.625 24.023438 32.617188 24.140625 L 32.300781 26.765625 C 32.28125 26.855469 32.230469 26.902344 32.144531 26.902344 L 31.300781 26.902344 C 31.214844 26.902344 31.175781 26.855469 31.1875 26.765625 L 31.480469 24.378906 C 31.484375 24.34375 31.488281 24.300781 31.488281 24.246094 C 31.488281 24.070312 31.4375 23.925781 31.335938 23.8125 C 31.234375 23.699219 31.101562 23.644531 30.933594 23.644531 C 30.738281 23.644531 30.574219 23.710938 30.433594 23.847656 C 30.296875 23.984375 30.214844 24.160156 30.1875 24.378906 L 29.894531 26.765625 C 29.882812 26.855469 29.832031 26.902344 29.742188 26.902344 L 28.902344 26.902344 C 28.8125 26.902344 28.769531 26.855469 28.78125 26.765625 L 29.261719 22.867188 C 29.273438 22.773438 29.324219 22.726562 29.417969 22.726562 L 30.25 22.726562 C 30.34375 22.726562 30.382812 22.773438 30.375 22.867188 L 30.339844 23.09375 C 30.339844 23.140625 30.355469 23.148438 30.390625 23.117188 C 30.640625 22.816406 30.976562 22.664062 31.398438 22.664062 Z M 31.398438 22.664062 " fill-opacity="1" fill-rule="nonzero"/><g clip-path="url(#id8)"><path fill="#ffffff" d="M 36.050781 22.867188 C 36.0625 22.773438 36.109375 22.726562 36.195312 22.726562 L 37.042969 22.726562 C 37.132812 22.726562 37.171875 22.773438 37.152344 22.867188 L 36.707031 26.527344 C 36.621094 27.238281 36.363281 27.746094 35.929688 28.046875 C 35.496094 28.347656 34.96875 28.5 34.351562 28.5 C 34.167969 28.5 33.976562 28.488281 33.769531 28.460938 C 33.691406 28.457031 33.660156 28.40625 33.671875 28.316406 L 33.792969 27.558594 C 33.796875 27.515625 33.816406 27.480469 33.847656 27.457031 C 33.882812 27.433594 33.921875 27.425781 33.964844 27.4375 C 34.152344 27.464844 34.308594 27.480469 34.433594 27.480469 C 34.769531 27.480469 35.035156 27.402344 35.234375 27.253906 C 35.429688 27.101562 35.550781 26.855469 35.597656 26.519531 C 35.601562 26.503906 35.597656 26.496094 35.585938 26.492188 C 35.578125 26.488281 35.5625 26.496094 35.546875 26.511719 C 35.320312 26.730469 35.015625 26.835938 34.636719 26.835938 C 34.296875 26.835938 33.992188 26.75 33.726562 26.582031 C 33.460938 26.410156 33.292969 26.136719 33.214844 25.757812 C 33.195312 25.644531 33.183594 25.503906 33.183594 25.34375 C 33.183594 25.203125 33.195312 25.019531 33.214844 24.792969 C 33.273438 24.359375 33.363281 24.015625 33.484375 23.757812 C 33.636719 23.429688 33.855469 23.164062 34.140625 22.964844 C 34.429688 22.761719 34.746094 22.664062 35.09375 22.664062 C 35.492188 22.664062 35.785156 22.785156 35.96875 23.027344 C 35.984375 23.046875 36 23.050781 36.007812 23.046875 C 36.019531 23.039062 36.027344 23.027344 36.035156 23.003906 Z M 35.667969 25.449219 C 35.726562 25.292969 35.777344 25.070312 35.816406 24.78125 C 35.835938 24.625 35.847656 24.492188 35.847656 24.382812 C 35.847656 24.285156 35.839844 24.203125 35.824219 24.132812 C 35.796875 23.988281 35.730469 23.871094 35.628906 23.78125 C 35.53125 23.691406 35.398438 23.644531 35.238281 23.644531 C 35.082031 23.644531 34.941406 23.691406 34.820312 23.78125 C 34.699219 23.871094 34.601562 23.988281 34.53125 24.132812 C 34.4375 24.289062 34.375 24.511719 34.335938 24.792969 C 34.320312 24.925781 34.3125 25.046875 34.3125 25.148438 C 34.3125 25.261719 34.324219 25.359375 34.351562 25.441406 C 34.378906 25.585938 34.445312 25.703125 34.554688 25.796875 C 34.664062 25.882812 34.800781 25.929688 34.960938 25.929688 C 35.128906 25.929688 35.273438 25.882812 35.394531 25.796875 C 35.515625 25.703125 35.609375 25.589844 35.667969 25.449219 Z M 35.667969 25.449219 " fill-opacity="1" fill-rule="nonzero"/></g><path fill="#ffffff" d="M 9.421875 31.085938 C 9.421875 31.097656 9.417969 31.105469 9.410156 31.113281 C 9.40625 31.117188 9.394531 31.121094 9.382812 31.121094 L 8.703125 31.121094 C 8.695312 31.121094 8.691406 31.125 8.691406 31.132812 L 8.644531 31.519531 C 8.644531 31.53125 8.644531 31.535156 8.652344 31.535156 L 9.109375 31.535156 C 9.117188 31.535156 9.125 31.535156 9.128906 31.542969 C 9.132812 31.546875 9.136719 31.558594 9.136719 31.566406 L 9.121094 31.707031 C 9.117188 31.730469 9.101562 31.742188 9.082031 31.742188 L 8.628906 31.742188 C 8.621094 31.742188 8.613281 31.746094 8.613281 31.753906 L 8.5625 32.15625 C 8.5625 32.164062 8.566406 32.164062 8.574219 32.164062 L 9.257812 32.164062 C 9.28125 32.164062 9.289062 32.179688 9.285156 32.199219 L 9.265625 32.34375 C 9.265625 32.351562 9.261719 32.359375 9.253906 32.367188 C 9.25 32.375 9.242188 32.375 9.230469 32.375 L 8.335938 32.375 C 8.3125 32.375 8.300781 32.363281 8.304688 32.34375 L 8.476562 30.945312 C 8.480469 30.921875 8.492188 30.914062 8.515625 30.914062 L 9.410156 30.914062 C 9.421875 30.914062 9.429688 30.914062 9.433594 30.921875 C 9.4375 30.925781 9.441406 30.933594 9.4375 30.945312 Z M 9.421875 31.085938 " fill-opacity="1" fill-rule="nonzero"/><path fill="#ffffff" d="M 10.015625 32.375 C 10.003906 32.375 9.996094 32.375 9.992188 32.367188 C 9.988281 32.359375 9.984375 32.351562 9.988281 32.34375 L 10.160156 30.945312 C 10.160156 30.921875 10.175781 30.914062 10.195312 30.914062 L 10.367188 30.914062 C 10.375 30.914062 10.382812 30.914062 10.386719 30.921875 C 10.394531 30.925781 10.394531 30.933594 10.394531 30.945312 L 10.222656 32.34375 C 10.21875 32.351562 10.214844 32.359375 10.210938 32.367188 C 10.203125 32.375 10.195312 32.375 10.1875 32.375 Z M 10.015625 32.375 " fill-opacity="1" fill-rule="nonzero"/><path fill="#ffffff" d="M 12.402344 32.394531 C 12.261719 32.394531 12.152344 32.355469 12.070312 32.28125 C 11.988281 32.203125 11.949219 32.101562 11.949219 31.972656 C 11.949219 31.957031 11.949219 31.933594 11.953125 31.902344 L 12.070312 30.945312 C 12.074219 30.921875 12.085938 30.914062 12.105469 30.914062 L 12.277344 30.914062 C 12.289062 30.914062 12.296875 30.914062 12.300781 30.921875 C 12.304688 30.925781 12.304688 30.933594 12.304688 30.945312 L 12.1875 31.90625 C 12.1875 31.914062 12.1875 31.929688 12.1875 31.949219 C 12.1875 32.019531 12.207031 32.078125 12.25 32.121094 C 12.292969 32.164062 12.351562 32.183594 12.425781 32.183594 C 12.507812 32.183594 12.578125 32.160156 12.632812 32.105469 C 12.691406 32.054688 12.726562 31.988281 12.734375 31.90625 L 12.851562 30.945312 C 12.855469 30.933594 12.859375 30.925781 12.863281 30.921875 C 12.871094 30.914062 12.878906 30.914062 12.886719 30.914062 L 13.058594 30.914062 C 13.082031 30.914062 13.09375 30.921875 13.089844 30.945312 L 12.96875 31.902344 C 12.957031 32 12.925781 32.085938 12.875 32.160156 C 12.824219 32.234375 12.757812 32.292969 12.675781 32.332031 C 12.59375 32.375 12.503906 32.394531 12.402344 32.394531 Z M 12.496094 30.753906 C 12.476562 30.753906 12.46875 30.746094 12.46875 30.734375 C 12.46875 30.726562 12.472656 30.71875 12.476562 30.714844 L 12.605469 30.515625 C 12.617188 30.5 12.628906 30.492188 12.648438 30.492188 L 12.808594 30.492188 C 12.824219 30.492188 12.832031 30.496094 12.832031 30.507812 C 12.832031 30.515625 12.828125 30.523438 12.824219 30.53125 L 12.667969 30.734375 C 12.660156 30.746094 12.644531 30.753906 12.625 30.753906 Z M 12.496094 30.753906 " fill-opacity="1" fill-rule="nonzero"/><path fill="#ffffff" d="M 13.707031 32.375 C 13.699219 32.375 13.691406 32.375 13.6875 32.367188 C 13.683594 32.359375 13.679688 32.351562 13.683594 32.34375 L 13.851562 30.945312 C 13.855469 30.921875 13.867188 30.914062 13.890625 30.914062 L 14.0625 30.914062 C 14.070312 30.914062 14.078125 30.914062 14.082031 30.921875 C 14.085938 30.925781 14.089844 30.933594 14.089844 30.945312 L 13.917969 32.34375 C 13.914062 32.351562 13.910156 32.359375 13.90625 32.367188 C 13.898438 32.375 13.890625 32.375 13.882812 32.375 Z M 13.707031 32.375 " fill-opacity="1" fill-rule="nonzero"/><path fill="#ffffff" d="M 15.332031 31.46875 C 15.332031 31.480469 15.328125 31.488281 15.320312 31.496094 C 15.316406 31.5 15.304688 31.503906 15.292969 31.503906 L 15.097656 31.503906 C 15.089844 31.503906 15.085938 31.507812 15.085938 31.515625 L 15.027344 32.011719 C 15.023438 32.019531 15.023438 32.03125 15.023438 32.050781 C 15.023438 32.089844 15.03125 32.117188 15.054688 32.136719 C 15.074219 32.152344 15.105469 32.160156 15.144531 32.160156 L 15.199219 32.160156 C 15.210938 32.160156 15.21875 32.164062 15.21875 32.171875 C 15.222656 32.179688 15.226562 32.1875 15.226562 32.195312 L 15.210938 32.335938 C 15.207031 32.355469 15.195312 32.367188 15.175781 32.371094 L 15.074219 32.375 C 14.980469 32.375 14.90625 32.359375 14.855469 32.328125 C 14.808594 32.296875 14.785156 32.242188 14.785156 32.160156 C 14.785156 32.148438 14.785156 32.128906 14.789062 32.101562 L 14.859375 31.515625 C 14.859375 31.507812 14.855469 31.503906 14.847656 31.503906 L 14.742188 31.503906 C 14.734375 31.503906 14.726562 31.5 14.71875 31.496094 C 14.714844 31.488281 14.714844 31.480469 14.714844 31.46875 L 14.730469 31.339844 C 14.734375 31.316406 14.746094 31.304688 14.765625 31.304688 L 14.871094 31.304688 C 14.882812 31.304688 14.886719 31.304688 14.886719 31.296875 L 14.917969 31.0625 C 14.917969 31.050781 14.921875 31.042969 14.925781 31.039062 C 14.933594 31.03125 14.941406 31.027344 14.949219 31.027344 L 15.113281 31.027344 C 15.125 31.027344 15.132812 31.03125 15.136719 31.039062 C 15.140625 31.042969 15.140625 31.050781 15.140625 31.0625 L 15.113281 31.296875 C 15.113281 31.296875 15.113281 31.300781 15.113281 31.304688 C 15.117188 31.304688 15.121094 31.304688 15.125 31.304688 L 15.320312 31.304688 C 15.332031 31.304688 15.339844 31.308594 15.34375 31.316406 C 15.347656 31.324219 15.347656 31.332031 15.347656 31.339844 Z M 15.332031 31.46875 " fill-opacity="1" fill-rule="nonzero"/><path fill="#ffffff" d="M 16.210938 31.171875 C 16.171875 31.171875 16.140625 31.160156 16.117188 31.136719 C 16.089844 31.113281 16.078125 31.085938 16.078125 31.046875 C 16.078125 30.996094 16.09375 30.957031 16.125 30.921875 C 16.160156 30.886719 16.203125 30.871094 16.25 30.871094 C 16.289062 30.871094 16.324219 30.882812 16.347656 30.90625 C 16.371094 30.929688 16.382812 30.960938 16.382812 31 C 16.382812 31.050781 16.367188 31.089844 16.335938 31.125 C 16.300781 31.15625 16.261719 31.171875 16.210938 31.171875 Z M 15.980469 32.375 C 15.957031 32.375 15.949219 32.363281 15.953125 32.34375 L 16.074219 31.339844 C 16.078125 31.316406 16.089844 31.304688 16.109375 31.304688 L 16.28125 31.304688 C 16.304688 31.304688 16.3125 31.316406 16.308594 31.339844 L 16.1875 32.34375 C 16.1875 32.351562 16.183594 32.359375 16.175781 32.367188 C 16.167969 32.375 16.160156 32.375 16.152344 32.375 Z M 15.980469 32.375 " fill-opacity="1" fill-rule="nonzero"/><path fill="#ffffff" d="M 18.191406 31.289062 C 18.285156 31.289062 18.359375 31.316406 18.410156 31.371094 C 18.460938 31.421875 18.484375 31.496094 18.484375 31.59375 C 18.484375 31.605469 18.484375 31.628906 18.480469 31.660156 L 18.394531 32.34375 C 18.394531 32.363281 18.382812 32.375 18.359375 32.375 L 18.191406 32.375 C 18.179688 32.375 18.171875 32.375 18.167969 32.367188 C 18.164062 32.359375 18.164062 32.351562 18.164062 32.34375 L 18.242188 31.707031 C 18.242188 31.699219 18.242188 31.6875 18.242188 31.671875 C 18.242188 31.617188 18.226562 31.578125 18.199219 31.546875 C 18.171875 31.515625 18.132812 31.5 18.082031 31.5 C 18.027344 31.5 17.980469 31.519531 17.941406 31.554688 C 17.902344 31.59375 17.878906 31.644531 17.871094 31.707031 L 17.792969 32.34375 C 17.789062 32.363281 17.777344 32.375 17.753906 32.375 L 17.585938 32.375 C 17.578125 32.375 17.566406 32.375 17.5625 32.367188 C 17.558594 32.359375 17.558594 32.351562 17.558594 32.34375 L 17.636719 31.707031 C 17.636719 31.699219 17.640625 31.6875 17.640625 31.671875 C 17.640625 31.621094 17.625 31.578125 17.59375 31.546875 C 17.566406 31.515625 17.527344 31.5 17.476562 31.5 C 17.425781 31.5 17.382812 31.515625 17.347656 31.546875 C 17.308594 31.578125 17.285156 31.617188 17.273438 31.671875 L 17.1875 32.34375 C 17.1875 32.351562 17.183594 32.359375 17.179688 32.367188 C 17.171875 32.375 17.164062 32.375 17.152344 32.375 L 16.984375 32.375 C 16.972656 32.375 16.964844 32.375 16.960938 32.367188 C 16.953125 32.359375 16.953125 32.351562 16.953125 32.34375 L 17.078125 31.339844 C 17.082031 31.316406 17.09375 31.304688 17.113281 31.304688 L 17.28125 31.304688 C 17.304688 31.304688 17.316406 31.316406 17.3125 31.339844 L 17.308594 31.398438 C 17.304688 31.402344 17.304688 31.40625 17.308594 31.40625 C 17.3125 31.410156 17.316406 31.40625 17.316406 31.402344 C 17.386719 31.328125 17.476562 31.289062 17.589844 31.289062 C 17.65625 31.289062 17.710938 31.304688 17.757812 31.332031 C 17.800781 31.359375 17.835938 31.398438 17.855469 31.449219 C 17.859375 31.453125 17.863281 31.457031 17.863281 31.457031 C 17.867188 31.457031 17.871094 31.453125 17.875 31.449219 C 17.910156 31.394531 17.957031 31.355469 18.011719 31.332031 C 18.070312 31.304688 18.128906 31.289062 18.191406 31.289062 Z M 18.191406 31.289062 " fill-opacity="1" fill-rule="nonzero"/><path fill="#ffffff" d="M 19.574219 32.394531 C 19.464844 32.394531 19.378906 32.367188 19.308594 32.308594 C 19.238281 32.253906 19.191406 32.175781 19.175781 32.078125 C 19.167969 32.039062 19.164062 32 19.164062 31.953125 C 19.164062 31.925781 19.164062 31.890625 19.171875 31.835938 C 19.179688 31.75 19.203125 31.671875 19.230469 31.597656 C 19.273438 31.503906 19.339844 31.425781 19.421875 31.371094 C 19.503906 31.316406 19.601562 31.289062 19.710938 31.289062 C 19.8125 31.289062 19.898438 31.316406 19.964844 31.371094 C 20.035156 31.425781 20.078125 31.5 20.101562 31.597656 C 20.109375 31.636719 20.113281 31.683594 20.113281 31.734375 C 20.113281 31.765625 20.109375 31.800781 20.105469 31.835938 C 20.09375 31.921875 20.074219 32.003906 20.042969 32.074219 C 20 32.171875 19.9375 32.25 19.851562 32.308594 C 19.769531 32.363281 19.675781 32.394531 19.574219 32.394531 Z M 19.597656 32.183594 C 19.648438 32.183594 19.691406 32.167969 19.730469 32.140625 C 19.773438 32.109375 19.800781 32.070312 19.824219 32.015625 C 19.847656 31.96875 19.859375 31.910156 19.867188 31.839844 C 19.871094 31.800781 19.875 31.765625 19.875 31.734375 C 19.875 31.714844 19.871094 31.691406 19.871094 31.664062 C 19.859375 31.613281 19.835938 31.570312 19.804688 31.542969 C 19.773438 31.511719 19.730469 31.5 19.679688 31.5 C 19.628906 31.5 19.582031 31.511719 19.542969 31.542969 C 19.503906 31.570312 19.472656 31.613281 19.449219 31.664062 C 19.429688 31.71875 19.414062 31.777344 19.40625 31.839844 C 19.402344 31.875 19.402344 31.910156 19.402344 31.941406 C 19.402344 31.964844 19.402344 31.988281 19.402344 32.015625 C 19.414062 32.070312 19.4375 32.109375 19.46875 32.140625 C 19.503906 32.167969 19.546875 32.183594 19.597656 32.183594 Z M 19.597656 32.183594 " fill-opacity="1" fill-rule="nonzero"/><path fill="#ffffff" d="M 22.796875 30.914062 C 22.808594 30.914062 22.816406 30.914062 22.820312 30.921875 C 22.824219 30.925781 22.828125 30.933594 22.824219 30.945312 L 22.808594 31.089844 C 22.808594 31.101562 22.804688 31.109375 22.796875 31.113281 C 22.792969 31.121094 22.78125 31.121094 22.769531 31.121094 L 22.410156 31.121094 C 22.402344 31.121094 22.398438 31.125 22.394531 31.136719 L 22.246094 32.34375 C 22.246094 32.351562 22.242188 32.359375 22.234375 32.367188 C 22.230469 32.375 22.222656 32.375 22.210938 32.375 L 22.039062 32.375 C 22.03125 32.375 22.023438 32.375 22.015625 32.367188 C 22.011719 32.359375 22.011719 32.351562 22.011719 32.34375 L 22.160156 31.136719 C 22.160156 31.125 22.15625 31.121094 22.148438 31.121094 L 21.800781 31.121094 C 21.777344 31.121094 21.769531 31.113281 21.773438 31.089844 L 21.792969 30.945312 C 21.792969 30.921875 21.804688 30.914062 21.828125 30.914062 Z M 22.796875 30.914062 " fill-opacity="1" fill-rule="nonzero"/><path fill="#ffffff" d="M 23.960938 31.296875 C 24.003906 31.296875 24.039062 31.304688 24.066406 31.316406 C 24.082031 31.324219 24.085938 31.339844 24.082031 31.359375 L 24.027344 31.535156 C 24.023438 31.542969 24.015625 31.550781 24.011719 31.554688 C 24.003906 31.558594 23.996094 31.558594 23.988281 31.554688 C 23.96875 31.546875 23.949219 31.542969 23.921875 31.542969 C 23.90625 31.542969 23.894531 31.546875 23.882812 31.546875 C 23.828125 31.550781 23.777344 31.570312 23.734375 31.609375 C 23.691406 31.648438 23.664062 31.699219 23.660156 31.757812 L 23.585938 32.34375 C 23.585938 32.351562 23.582031 32.359375 23.574219 32.367188 C 23.570312 32.375 23.5625 32.375 23.550781 32.375 L 23.378906 32.375 C 23.371094 32.375 23.363281 32.375 23.355469 32.367188 C 23.351562 32.359375 23.351562 32.351562 23.351562 32.34375 L 23.476562 31.339844 C 23.476562 31.316406 23.488281 31.304688 23.511719 31.304688 L 23.679688 31.304688 C 23.703125 31.304688 23.710938 31.316406 23.710938 31.339844 L 23.699219 31.421875 C 23.699219 31.429688 23.699219 31.433594 23.703125 31.433594 C 23.703125 31.433594 23.707031 31.433594 23.714844 31.425781 C 23.777344 31.339844 23.859375 31.296875 23.960938 31.296875 Z M 23.960938 31.296875 " fill-opacity="1" fill-rule="nonzero"/><path fill="#ffffff" d="M 25.367188 31.339844 C 25.367188 31.332031 25.371094 31.324219 25.378906 31.316406 C 25.386719 31.308594 25.394531 31.304688 25.40625 31.304688 L 25.574219 31.304688 C 25.597656 31.304688 25.605469 31.316406 25.601562 31.339844 L 25.480469 32.34375 C 25.480469 32.351562 25.476562 32.359375 25.46875 32.367188 C 25.460938 32.375 25.453125 32.375 25.445312 32.375 L 25.273438 32.375 C 25.25 32.375 25.242188 32.363281 25.246094 32.34375 L 25.25 32.292969 C 25.253906 32.289062 25.25 32.285156 25.246094 32.28125 C 25.242188 32.28125 25.242188 32.28125 25.238281 32.285156 C 25.171875 32.359375 25.089844 32.394531 24.996094 32.394531 C 24.898438 32.394531 24.824219 32.367188 24.761719 32.316406 C 24.699219 32.261719 24.660156 32.191406 24.644531 32.101562 C 24.632812 32.054688 24.628906 32.007812 24.628906 31.960938 C 24.628906 31.917969 24.632812 31.875 24.640625 31.835938 C 24.648438 31.742188 24.671875 31.65625 24.703125 31.585938 C 24.746094 31.492188 24.800781 31.421875 24.875 31.371094 C 24.949219 31.316406 25.03125 31.289062 25.132812 31.289062 C 25.222656 31.289062 25.296875 31.324219 25.351562 31.390625 C 25.351562 31.394531 25.355469 31.398438 25.355469 31.394531 C 25.359375 31.394531 25.359375 31.390625 25.363281 31.386719 Z M 25.226562 32.082031 C 25.265625 32.027344 25.292969 31.949219 25.304688 31.839844 C 25.308594 31.804688 25.308594 31.769531 25.308594 31.742188 C 25.308594 31.679688 25.300781 31.628906 25.285156 31.59375 C 25.257812 31.53125 25.210938 31.5 25.144531 31.5 C 25.074219 31.5 25.015625 31.527344 24.972656 31.589844 C 24.921875 31.652344 24.894531 31.734375 24.882812 31.84375 C 24.878906 31.875 24.875 31.90625 24.875 31.933594 C 24.875 31.992188 24.882812 32.039062 24.898438 32.082031 C 24.925781 32.148438 24.980469 32.179688 25.058594 32.179688 C 25.125 32.179688 25.183594 32.148438 25.226562 32.082031 Z M 25.226562 32.082031 " fill-opacity="1" fill-rule="nonzero"/><path fill="#ffffff" d="M 27.472656 31.289062 C 27.566406 31.289062 27.636719 31.316406 27.691406 31.371094 C 27.742188 31.421875 27.765625 31.496094 27.765625 31.59375 C 27.765625 31.605469 27.765625 31.628906 27.761719 31.660156 L 27.675781 32.34375 C 27.671875 32.363281 27.660156 32.375 27.640625 32.375 L 27.472656 32.375 C 27.460938 32.375 27.453125 32.375 27.449219 32.367188 C 27.445312 32.359375 27.441406 32.351562 27.445312 32.34375 L 27.519531 31.707031 C 27.523438 31.699219 27.523438 31.6875 27.523438 31.671875 C 27.523438 31.617188 27.507812 31.578125 27.480469 31.546875 C 27.453125 31.515625 27.414062 31.5 27.363281 31.5 C 27.308594 31.5 27.261719 31.519531 27.222656 31.554688 C 27.183594 31.59375 27.160156 31.644531 27.152344 31.707031 L 27.074219 32.34375 C 27.070312 32.363281 27.058594 32.375 27.035156 32.375 L 26.867188 32.375 C 26.855469 32.375 26.847656 32.375 26.84375 32.367188 C 26.839844 32.359375 26.835938 32.351562 26.839844 32.34375 L 26.917969 31.707031 C 26.917969 31.699219 26.917969 31.6875 26.917969 31.671875 C 26.917969 31.621094 26.90625 31.578125 26.875 31.546875 C 26.847656 31.515625 26.808594 31.5 26.757812 31.5 C 26.707031 31.5 26.664062 31.515625 26.625 31.546875 C 26.589844 31.578125 26.566406 31.617188 26.550781 31.671875 L 26.46875 32.34375 C 26.46875 32.351562 26.464844 32.359375 26.457031 32.367188 C 26.453125 32.375 26.445312 32.375 26.433594 32.375 L 26.261719 32.375 C 26.253906 32.375 26.246094 32.375 26.238281 32.367188 C 26.234375 32.359375 26.234375 32.351562 26.234375 32.34375 L 26.359375 31.339844 C 26.359375 31.316406 26.371094 31.304688 26.394531 31.304688 L 26.5625 31.304688 C 26.585938 31.304688 26.59375 31.316406 26.59375 31.339844 L 26.585938 31.398438 C 26.585938 31.402344 26.585938 31.40625 26.589844 31.40625 C 26.59375 31.410156 26.597656 31.40625 26.597656 31.402344 C 26.667969 31.328125 26.757812 31.289062 26.871094 31.289062 C 26.9375 31.289062 26.992188 31.304688 27.039062 31.332031 C 27.082031 31.359375 27.117188 31.398438 27.136719 31.449219 C 27.140625 31.453125 27.140625 31.457031 27.144531 31.457031 C 27.148438 31.457031 27.152344 31.453125 27.152344 31.449219 C 27.191406 31.394531 27.238281 31.355469 27.292969 31.332031 C 27.347656 31.304688 27.410156 31.289062 27.472656 31.289062 Z M 27.472656 31.289062 " fill-opacity="1" fill-rule="nonzero"/><path fill="#ffffff" d="M 28.851562 32.394531 C 28.746094 32.394531 28.660156 32.367188 28.589844 32.308594 C 28.519531 32.253906 28.472656 32.175781 28.453125 32.078125 C 28.445312 32.039062 28.445312 32 28.445312 31.953125 C 28.445312 31.925781 28.445312 31.890625 28.449219 31.835938 C 28.460938 31.75 28.480469 31.671875 28.511719 31.597656 C 28.554688 31.503906 28.617188 31.425781 28.703125 31.371094 C 28.785156 31.316406 28.882812 31.289062 28.992188 31.289062 C 29.09375 31.289062 29.179688 31.316406 29.246094 31.371094 C 29.316406 31.425781 29.359375 31.5 29.378906 31.597656 C 29.390625 31.636719 29.394531 31.683594 29.394531 31.734375 C 29.394531 31.765625 29.390625 31.800781 29.386719 31.835938 C 29.375 31.921875 29.355469 32.003906 29.324219 32.074219 C 29.28125 32.171875 29.214844 32.25 29.132812 32.308594 C 29.050781 32.363281 28.957031 32.394531 28.851562 32.394531 Z M 28.878906 32.183594 C 28.929688 32.183594 28.972656 32.167969 29.011719 32.140625 C 29.050781 32.109375 29.082031 32.070312 29.105469 32.015625 C 29.125 31.96875 29.140625 31.910156 29.148438 31.839844 C 29.152344 31.800781 29.15625 31.765625 29.15625 31.734375 C 29.15625 31.714844 29.152344 31.691406 29.152344 31.664062 C 29.140625 31.613281 29.117188 31.570312 29.085938 31.542969 C 29.050781 31.511719 29.011719 31.5 28.960938 31.5 C 28.90625 31.5 28.863281 31.511719 28.824219 31.542969 C 28.78125 31.570312 28.753906 31.613281 28.730469 31.664062 C 28.710938 31.71875 28.695312 31.777344 28.6875 31.839844 C 28.683594 31.875 28.683594 31.910156 28.683594 31.941406 C 28.683594 31.964844 28.683594 31.988281 28.683594 32.015625 C 28.695312 32.070312 28.714844 32.109375 28.75 32.140625 C 28.785156 32.167969 28.824219 32.183594 28.878906 32.183594 Z M 28.878906 32.183594 " fill-opacity="1" fill-rule="nonzero"/></svg>