<svg xmlns="http://www.w3.org/2000/svg" xmlns:xlink="http://www.w3.org/1999/xlink" width="50" zoomAndPan="magnify" viewBox="0 0 37.5 30.000001" height="40" preserveAspectRatio="xMidYMid meet" version="1.0"><defs><clipPath id="id1"><path d="M 0.363281 0 L 36.652344 0 L 36.652344 29.03125 L 0.363281 29.03125 Z M 0.363281 0 " clip-rule="nonzero"/></clipPath><clipPath id="id2"><path d="M 7.238281 8.757812 L 8.765625 8.757812 L 8.765625 9.730469 L 7.238281 9.730469 Z M 7.238281 8.757812 " clip-rule="nonzero"/></clipPath><clipPath id="id3"><path d="M 12.105469 1.304688 L 23 1.304688 L 23 9 L 12.105469 9 Z M 12.105469 1.304688 " clip-rule="nonzero"/></clipPath><clipPath id="id4"><path d="M 10.15625 4.578125 L 30.734375 4.578125 L 30.734375 13.351562 L 10.15625 13.351562 Z M 10.15625 4.578125 " clip-rule="nonzero"/></clipPath><clipPath id="id5"><path d="M 7.238281 8.757812 L 8.765625 8.757812 L 8.765625 9.730469 L 7.238281 9.730469 Z M 7.238281 8.757812 " clip-rule="nonzero"/></clipPath><clipPath id="id6"><path d="M 15.308594 12.097656 L 18.234375 12.097656 L 18.234375 14.777344 L 15.308594 14.777344 Z M 15.308594 12.097656 " clip-rule="nonzero"/></clipPath><clipPath id="id7"><path d="M 23.804688 12.097656 L 26.730469 12.097656 L 26.730469 14.777344 L 23.804688 14.777344 Z M 23.804688 12.097656 " clip-rule="nonzero"/></clipPath><clipPath id="id8"><path d="M 0.363281 17 L 6 17 L 6 23 L 0.363281 23 Z M 0.363281 17 " clip-rule="nonzero"/></clipPath><clipPath id="id9"><path d="M 33 18 L 36.652344 18 L 36.652344 25 L 33 25 Z M 33 18 " clip-rule="nonzero"/></clipPath><clipPath id="id10"><path d="M 8 26 L 10 26 L 10 28.511719 L 8 28.511719 Z M 8 26 " clip-rule="nonzero"/></clipPath><clipPath id="id11"><path d="M 10 26 L 11 26 L 11 28.511719 L 10 28.511719 Z M 10 26 " clip-rule="nonzero"/></clipPath><clipPath id="id12"><path d="M 12 26 L 14 26 L 14 28.511719 L 12 28.511719 Z M 12 26 " clip-rule="nonzero"/></clipPath><clipPath id="id13"><path d="M 13 26 L 15 26 L 15 28.511719 L 13 28.511719 Z M 13 26 " clip-rule="nonzero"/></clipPath><clipPath id="id14"><path d="M 14 26 L 16 26 L 16 28.511719 L 14 28.511719 Z M 14 26 " clip-rule="nonzero"/></clipPath><clipPath id="id15"><path d="M 16 26 L 17 26 L 17 28.511719 L 16 28.511719 Z M 16 26 " clip-rule="nonzero"/></clipPath><clipPath id="id16"><path d="M 17 27 L 19 27 L 19 28.511719 L 17 28.511719 Z M 17 27 " clip-rule="nonzero"/></clipPath><clipPath id="id17"><path d="M 19 27 L 21 27 L 21 28.511719 L 19 28.511719 Z M 19 27 " clip-rule="nonzero"/></clipPath><clipPath id="id18"><path d="M 21 26 L 23 26 L 23 28.511719 L 21 28.511719 Z M 21 26 " clip-rule="nonzero"/></clipPath><clipPath id="id19"><path d="M 23 27 L 25 27 L 25 28.511719 L 23 28.511719 Z M 23 27 " clip-rule="nonzero"/></clipPath><clipPath id="id20"><path d="M 24 27 L 26 27 L 26 28.511719 L 24 28.511719 Z M 24 27 " clip-rule="nonzero"/></clipPath><clipPath id="id21"><path d="M 26 27 L 28 27 L 28 28.511719 L 26 28.511719 Z M 26 27 " clip-rule="nonzero"/></clipPath><clipPath id="id22"><path d="M 28 27 L 30 27 L 30 28.511719 L 28 28.511719 Z M 28 27 " clip-rule="nonzero"/></clipPath></defs><g clip-path="url(#id1)"><path fill="#ffffff" d="M 0.363281 0 L 37.136719 0 L 37.136719 36.773438 L 0.363281 36.773438 Z M 0.363281 0 " fill-opacity="1" fill-rule="nonzero"/><path fill="#ffffff" d="M 0.363281 0 L 37.136719 0 L 37.136719 29.417969 L 0.363281 29.417969 Z M 0.363281 0 " fill-opacity="1" fill-rule="nonzero"/><path fill="#ffffff" d="M 0.363281 0 L 37.136719 0 L 37.136719 29.417969 L 0.363281 29.417969 Z M 0.363281 0 " fill-opacity="1" fill-rule="nonzero"/><path fill="#ffffff" d="M 0.363281 0 L 37.136719 0 L 37.136719 29.417969 L 0.363281 29.417969 Z M 0.363281 0 " fill-opacity="1" fill-rule="nonzero"/></g><g clip-path="url(#id2)"><path fill="#c48e3c" d="M 8.746094 9.207031 C 8.714844 8.96875 8.496094 8.773438 8.257812 8.773438 L 7.710938 8.773438 C 7.472656 8.773438 7.300781 8.96875 7.332031 9.207031 C 7.363281 9.445312 7.582031 9.640625 7.820312 9.640625 L 8.367188 9.640625 C 8.605469 9.640625 8.777344 9.445312 8.746094 9.207031 Z M 8.746094 9.207031 " fill-opacity="1" fill-rule="evenodd"/></g><g clip-path="url(#id3)"><path fill="#c48e3c" d="M 17.519531 1.304688 L 18.839844 4.203125 C 18.859375 4.25 18.910156 4.285156 18.964844 4.292969 L 22.832031 4.601562 C 22.945312 4.613281 23.03125 4.492188 22.984375 4.386719 L 21.976562 2.171875 C 21.953125 2.125 21.914062 2.09375 21.863281 2.085938 L 17.523438 1.304688 Z M 13.152344 2.171875 L 12.125 4.378906 C 12.074219 4.488281 12.160156 4.609375 12.28125 4.597656 L 16.152344 4.203125 C 16.207031 4.199219 16.253906 4.164062 16.273438 4.113281 L 17.519531 1.304688 L 13.265625 2.085938 C 13.214844 2.09375 13.175781 2.125 13.152344 2.171875 Z M 17.535156 3.644531 L 17.535156 8.136719 L 21.105469 7.457031 L 21.105469 5.269531 C 21.105469 5.179688 21.1875 5.109375 21.277344 5.117188 L 21.71875 5.183594 C 21.796875 5.195312 21.855469 5.261719 21.855469 5.339844 L 21.855469 7.878906 C 21.855469 7.953125 21.804688 8.015625 21.734375 8.03125 L 17.824219 8.871094 C 17.636719 8.910156 17.4375 8.910156 17.25 8.871094 L 13.382812 8.058594 C 13.316406 8.042969 13.265625 7.984375 13.261719 7.910156 L 13.199219 5.328125 C 13.195312 5.246094 13.257812 5.179688 13.335938 5.171875 L 16.625 4.882812 C 16.679688 4.875 16.730469 4.84375 16.75 4.789062 L 17.246094 3.585938 C 17.3125 3.429688 17.542969 3.476562 17.542969 3.644531 Z M 17.535156 3.644531 " fill-opacity="1" fill-rule="evenodd"/></g><g clip-path="url(#id4)"><path fill="#540b66" d="M 13.894531 10.570312 L 15.394531 10.570312 C 15.65625 10.570312 15.894531 10.78125 15.929688 11.046875 C 15.960938 11.308594 15.777344 11.523438 15.511719 11.523438 L 10.652344 11.523438 C 10.417969 11.523438 10.257812 11.707031 10.285156 11.9375 C 10.3125 12.171875 10.523438 12.355469 10.753906 12.355469 L 13.3125 12.355469 L 13.324219 13.257812 L 14.984375 13.257812 C 15.109375 12.355469 15.9375 11.695312 16.851562 11.695312 C 17.761719 11.695312 18.542969 12.359375 18.605469 13.257812 L 21.441406 13.257812 L 21.441406 13.25 L 23.074219 13.25 C 23.277344 13.25 23.464844 13.128906 23.542969 12.949219 L 23.675781 12.648438 C 23.964844 11.972656 24.667969 11.523438 25.429688 11.523438 C 26.117188 11.523438 26.730469 11.894531 27.007812 12.480469 L 27.25 12.992188 C 27.324219 13.152344 27.488281 13.25 27.675781 13.25 L 29.976562 13.25 C 30.203125 13.25 30.40625 13.105469 30.464844 12.902344 L 30.613281 12.433594 C 30.710938 12.121094 30.558594 11.796875 30.253906 11.667969 L 30.363281 9.71875 C 30.40625 8.953125 30.222656 8.199219 29.824219 7.542969 L 28.890625 6.140625 C 28.234375 5.152344 27.078125 4.566406 25.816406 4.582031 L 24.15625 4.601562 L 23.417969 4.601562 C 23.351562 4.871094 23.097656 5.078125 22.789062 5.054688 L 22.191406 5.007812 C 22.257812 5.105469 22.296875 5.21875 22.296875 5.339844 L 22.296875 7.882812 C 22.296875 8.167969 22.101562 8.410156 21.824219 8.472656 L 17.914062 9.3125 C 17.664062 9.367188 17.402344 9.367188 17.15625 9.316406 L 15.90625 9.054688 L 13.816406 9.066406 L 13.332031 9.070312 L 11.828125 9.078125 C 11.597656 9.078125 11.433594 9.265625 11.460938 9.496094 C 11.488281 9.726562 11.699219 9.914062 11.929688 9.914062 L 13.285156 9.914062 L 13.292969 10.578125 L 13.898438 10.578125 Z M 24.152344 7.6875 C 23.929688 7.640625 23.777344 7.449219 23.785156 7.230469 L 23.839844 6.105469 C 23.851562 5.835938 24.097656 5.625 24.378906 5.640625 L 26.5625 5.746094 C 27.097656 5.769531 27.574219 6.046875 27.828125 6.488281 L 28.722656 8.027344 C 28.875 8.289062 28.613281 8.609375 28.300781 8.546875 L 24.152344 7.691406 Z M 24.152344 7.6875 " fill-opacity="1" fill-rule="evenodd"/></g><path fill="#c48e3c" d="M 12.285156 7.09375 C 12.3125 7.324219 12.527344 7.507812 12.753906 7.507812 L 12.800781 7.507812 L 12.777344 6.671875 L 12.652344 6.671875 C 12.421875 6.671875 12.257812 6.859375 12.285156 7.089844 Z M 12.285156 7.09375 " fill-opacity="1" fill-rule="evenodd"/><path fill="#c48e3c" d="M 11.316406 6.578125 C 11.554688 6.578125 11.726562 6.382812 11.695312 6.144531 C 11.664062 5.90625 11.445312 5.710938 11.207031 5.710938 L 10.660156 5.710938 C 10.417969 5.710938 10.246094 5.90625 10.277344 6.144531 C 10.308594 6.382812 10.527344 6.578125 10.765625 6.578125 Z M 11.316406 6.578125 " fill-opacity="1" fill-rule="evenodd"/><path fill="#c48e3c" d="M 10.527344 7.769531 L 9.980469 7.769531 C 9.742188 7.769531 9.570312 7.964844 9.601562 8.203125 C 9.632812 8.445312 9.847656 8.636719 10.089844 8.636719 L 10.636719 8.636719 C 10.875 8.636719 11.046875 8.445312 11.015625 8.203125 C 10.984375 7.964844 10.765625 7.769531 10.527344 7.769531 Z M 10.527344 7.769531 " fill-opacity="1" fill-rule="evenodd"/><g clip-path="url(#id5)"><path fill="#c48e3c" d="M 8.746094 9.207031 C 8.714844 8.96875 8.496094 8.773438 8.257812 8.773438 L 7.710938 8.773438 C 7.472656 8.773438 7.300781 8.96875 7.332031 9.207031 C 7.363281 9.445312 7.582031 9.640625 7.820312 9.640625 L 8.367188 9.640625 C 8.605469 9.640625 8.777344 9.445312 8.746094 9.207031 Z M 8.746094 9.207031 " fill-opacity="1" fill-rule="evenodd"/></g><path fill="#c48e3c" d="M 9.175781 10.464844 L 8.625 10.464844 C 8.386719 10.464844 8.214844 10.660156 8.246094 10.898438 C 8.277344 11.136719 8.496094 11.332031 8.734375 11.332031 L 9.28125 11.332031 C 9.523438 11.332031 9.695312 11.136719 9.664062 10.898438 C 9.632812 10.660156 9.414062 10.464844 9.175781 10.464844 Z M 9.175781 10.464844 " fill-opacity="1" fill-rule="evenodd"/><path fill="#c48e3c" d="M 11.382812 12.828125 L 10.835938 12.828125 C 10.597656 12.828125 10.425781 13.019531 10.457031 13.257812 C 10.488281 13.5 10.703125 13.691406 10.945312 13.691406 L 11.492188 13.691406 C 11.730469 13.691406 11.902344 13.5 11.871094 13.257812 C 11.839844 13.019531 11.625 12.828125 11.382812 12.828125 Z M 11.382812 12.828125 " fill-opacity="1" fill-rule="evenodd"/><g clip-path="url(#id6)"><path fill="#540b66" d="M 16.855469 12.105469 C 16.074219 12.105469 15.414062 12.703125 15.378906 13.441406 C 15.34375 14.179688 15.949219 14.777344 16.730469 14.777344 C 17.511719 14.777344 18.167969 14.179688 18.203125 13.441406 C 18.238281 12.703125 17.636719 12.105469 16.855469 12.105469 Z M 16.855469 12.105469 " fill-opacity="1" fill-rule="evenodd"/></g><g clip-path="url(#id7)"><path fill="#540b66" d="M 25.363281 12.105469 C 24.582031 12.105469 23.921875 12.703125 23.890625 13.441406 C 23.855469 14.179688 24.457031 14.777344 25.238281 14.777344 C 26.019531 14.777344 26.679688 14.179688 26.714844 13.441406 C 26.75 12.703125 26.144531 12.105469 25.363281 12.105469 Z M 25.363281 12.105469 " fill-opacity="1" fill-rule="evenodd"/></g><g clip-path="url(#id8)"><path fill="#540b66" d="M 0.96875 22.847656 C 0.925781 22.847656 0.890625 22.835938 0.863281 22.808594 C 0.839844 22.78125 0.832031 22.746094 0.835938 22.703125 L 1.5 17.339844 C 1.503906 17.296875 1.519531 17.261719 1.550781 17.234375 C 1.582031 17.210938 1.617188 17.195312 1.660156 17.195312 L 3.609375 17.195312 C 4.179688 17.195312 4.632812 17.332031 4.96875 17.609375 C 5.304688 17.886719 5.472656 18.261719 5.472656 18.730469 C 5.472656 18.777344 5.46875 18.855469 5.457031 18.964844 L 5.199219 21.078125 C 5.15625 21.429688 5.03125 21.738281 4.828125 22.007812 C 4.621094 22.277344 4.355469 22.484375 4.023438 22.628906 C 3.691406 22.773438 3.320312 22.847656 2.914062 22.847656 Z M 2.265625 21.644531 C 2.265625 21.683594 2.28125 21.699219 2.316406 21.699219 L 3.105469 21.699219 C 3.316406 21.699219 3.496094 21.625 3.648438 21.46875 C 3.796875 21.316406 3.894531 21.109375 3.929688 20.851562 L 4.132812 19.1875 C 4.136719 19.148438 4.140625 19.101562 4.140625 19.035156 C 4.140625 18.820312 4.085938 18.648438 3.972656 18.527344 C 3.859375 18.402344 3.707031 18.339844 3.511719 18.339844 L 2.726562 18.339844 C 2.71875 18.339844 2.703125 18.347656 2.691406 18.359375 C 2.675781 18.371094 2.671875 18.382812 2.671875 18.398438 Z M 2.265625 21.644531 " fill-opacity="1" fill-rule="nonzero"/></g><path fill="#540b66" d="M 6.863281 18.398438 C 6.65625 18.398438 6.492188 18.339844 6.367188 18.21875 C 6.246094 18.09375 6.183594 17.933594 6.183594 17.734375 C 6.183594 17.480469 6.265625 17.273438 6.429688 17.109375 C 6.59375 16.945312 6.804688 16.863281 7.054688 16.863281 C 7.265625 16.863281 7.429688 16.921875 7.550781 17.035156 C 7.675781 17.152344 7.734375 17.308594 7.734375 17.5 C 7.734375 17.765625 7.652344 17.980469 7.488281 18.148438 C 7.324219 18.316406 7.113281 18.398438 6.863281 18.398438 Z M 5.8125 22.847656 C 5.769531 22.847656 5.734375 22.835938 5.710938 22.808594 C 5.6875 22.78125 5.675781 22.746094 5.683594 22.703125 L 6.160156 18.816406 C 6.175781 18.722656 6.230469 18.671875 6.320312 18.671875 L 7.339844 18.671875 C 7.382812 18.671875 7.414062 18.6875 7.433594 18.714844 C 7.457031 18.738281 7.464844 18.773438 7.460938 18.816406 L 6.984375 22.703125 C 6.976562 22.746094 6.960938 22.78125 6.933594 22.808594 C 6.90625 22.835938 6.875 22.847656 6.828125 22.847656 Z M 5.8125 22.847656 " fill-opacity="1" fill-rule="nonzero"/><path fill="#540b66" d="M 10.488281 18.605469 C 10.859375 18.605469 11.15625 18.71875 11.378906 18.933594 C 11.597656 19.152344 11.707031 19.457031 11.707031 19.84375 C 11.707031 19.890625 11.703125 19.976562 11.691406 20.09375 L 11.367188 22.703125 C 11.363281 22.746094 11.347656 22.78125 11.320312 22.808594 C 11.292969 22.835938 11.257812 22.847656 11.214844 22.847656 L 10.199219 22.847656 C 10.152344 22.847656 10.121094 22.835938 10.09375 22.808594 C 10.070312 22.78125 10.0625 22.746094 10.070312 22.703125 L 10.359375 20.382812 L 10.367188 20.28125 C 10.367188 20.125 10.324219 19.996094 10.242188 19.898438 C 10.160156 19.800781 10.042969 19.753906 9.898438 19.753906 C 9.742188 19.753906 9.605469 19.8125 9.492188 19.925781 C 9.375 20.042969 9.304688 20.195312 9.285156 20.382812 L 9.003906 22.703125 C 8.988281 22.800781 8.933594 22.847656 8.839844 22.847656 L 7.824219 22.847656 C 7.78125 22.847656 7.746094 22.835938 7.726562 22.808594 C 7.703125 22.78125 7.695312 22.746094 7.703125 22.703125 L 8.179688 18.816406 C 8.183594 18.773438 8.199219 18.738281 8.226562 18.714844 C 8.253906 18.6875 8.289062 18.671875 8.332031 18.671875 L 9.347656 18.671875 C 9.394531 18.671875 9.425781 18.6875 9.449219 18.714844 C 9.472656 18.738281 9.484375 18.773438 9.480469 18.816406 L 9.445312 19.042969 C 9.441406 19.070312 9.445312 19.085938 9.457031 19.09375 C 9.472656 19.097656 9.488281 19.089844 9.503906 19.066406 C 9.746094 18.761719 10.074219 18.605469 10.488281 18.605469 Z M 10.488281 18.605469 " fill-opacity="1" fill-rule="nonzero"/><path fill="#540b66" d="M 14.949219 18.816406 C 14.964844 18.722656 15.015625 18.671875 15.109375 18.671875 L 16.125 18.671875 C 16.167969 18.671875 16.199219 18.6875 16.222656 18.714844 C 16.246094 18.738281 16.253906 18.773438 16.246094 18.816406 L 15.8125 22.378906 C 15.71875 23.117188 15.449219 23.644531 14.996094 23.960938 C 14.542969 24.28125 14 24.4375 13.371094 24.4375 C 13.167969 24.4375 12.9375 24.417969 12.683594 24.382812 C 12.59375 24.367188 12.558594 24.3125 12.582031 24.21875 L 12.726562 23.324219 C 12.746094 23.222656 12.808594 23.179688 12.902344 23.195312 C 13.101562 23.238281 13.285156 23.257812 13.445312 23.257812 C 13.738281 23.257812 13.980469 23.1875 14.171875 23.046875 C 14.359375 22.910156 14.472656 22.6875 14.511719 22.386719 L 14.414062 22.46875 C 14.21875 22.644531 13.949219 22.734375 13.597656 22.734375 C 13.253906 22.734375 12.945312 22.65625 12.675781 22.5 C 12.40625 22.34375 12.234375 22.070312 12.160156 21.675781 C 12.132812 21.550781 12.121094 21.402344 12.121094 21.222656 C 12.121094 21.09375 12.128906 20.929688 12.152344 20.722656 C 12.199219 20.324219 12.292969 19.984375 12.425781 19.707031 C 12.589844 19.371094 12.8125 19.105469 13.101562 18.90625 C 13.390625 18.707031 13.707031 18.605469 14.058594 18.605469 C 14.425781 18.605469 14.695312 18.71875 14.875 18.9375 C 14.886719 18.960938 14.898438 18.96875 14.910156 18.964844 C 14.921875 18.957031 14.933594 18.941406 14.9375 18.914062 Z M 14.566406 21.320312 C 14.632812 21.191406 14.679688 20.988281 14.710938 20.714844 C 14.734375 20.53125 14.746094 20.425781 14.746094 20.394531 C 14.746094 20.3125 14.730469 20.226562 14.703125 20.132812 C 14.679688 20.015625 14.625 19.921875 14.542969 19.855469 C 14.460938 19.789062 14.355469 19.753906 14.21875 19.753906 C 13.976562 19.753906 13.789062 19.882812 13.65625 20.132812 C 13.550781 20.285156 13.488281 20.484375 13.460938 20.730469 C 13.449219 20.796875 13.445312 20.886719 13.445312 21 C 13.445312 21.128906 13.460938 21.234375 13.492188 21.3125 C 13.519531 21.425781 13.574219 21.519531 13.660156 21.585938 C 13.75 21.65625 13.859375 21.691406 13.996094 21.691406 C 14.257812 21.691406 14.449219 21.566406 14.566406 21.320312 Z M 14.566406 21.320312 " fill-opacity="1" fill-rule="nonzero"/><path fill="#540b66" d="M 16.625 21.078125 C 16.582031 21.078125 16.550781 21.066406 16.527344 21.039062 C 16.507812 21.011719 16.5 20.976562 16.503906 20.933594 L 16.609375 20.078125 C 16.613281 20.035156 16.632812 20 16.660156 19.972656 C 16.691406 19.945312 16.730469 19.933594 16.773438 19.933594 L 19.339844 19.933594 C 19.382812 19.933594 19.414062 19.945312 19.4375 19.972656 C 19.460938 20 19.46875 20.035156 19.460938 20.078125 L 19.355469 20.933594 C 19.351562 20.976562 19.332031 21.011719 19.300781 21.039062 C 19.273438 21.066406 19.238281 21.078125 19.195312 21.078125 Z M 16.625 21.078125 " fill-opacity="1" fill-rule="nonzero"/><path fill="#540b66" d="M 19.847656 22.847656 C 19.804688 22.847656 19.769531 22.835938 19.746094 22.808594 C 19.722656 22.78125 19.714844 22.746094 19.71875 22.703125 L 20.382812 17.339844 C 20.386719 17.296875 20.402344 17.261719 20.433594 17.234375 C 20.460938 17.210938 20.5 17.195312 20.542969 17.195312 L 22.492188 17.195312 C 23.0625 17.195312 23.515625 17.332031 23.851562 17.609375 C 24.1875 17.886719 24.355469 18.261719 24.355469 18.730469 C 24.355469 18.777344 24.351562 18.855469 24.339844 18.964844 L 24.082031 21.078125 C 24.039062 21.429688 23.914062 21.738281 23.710938 22.007812 C 23.503906 22.277344 23.234375 22.484375 22.902344 22.628906 C 22.574219 22.773438 22.203125 22.847656 21.792969 22.847656 Z M 21.148438 21.644531 C 21.148438 21.683594 21.164062 21.699219 21.199219 21.699219 L 21.988281 21.699219 C 22.199219 21.699219 22.378906 21.625 22.53125 21.46875 C 22.679688 21.316406 22.773438 21.109375 22.8125 20.851562 L 23.015625 19.1875 C 23.019531 19.148438 23.023438 19.101562 23.023438 19.035156 C 23.023438 18.820312 22.96875 18.648438 22.855469 18.527344 C 22.742188 18.402344 22.585938 18.339844 22.394531 18.339844 L 21.609375 18.339844 C 21.597656 18.339844 21.585938 18.347656 21.574219 18.359375 C 21.558594 18.371094 21.554688 18.382812 21.554688 18.398438 Z M 21.148438 21.644531 " fill-opacity="1" fill-rule="nonzero"/><path fill="#540b66" d="M 26.332031 22.914062 C 25.863281 22.914062 25.484375 22.785156 25.1875 22.527344 C 24.890625 22.265625 24.714844 21.914062 24.652344 21.476562 C 24.636719 21.363281 24.628906 21.246094 24.628906 21.125 C 24.628906 21.003906 24.636719 20.878906 24.652344 20.746094 C 24.6875 20.488281 24.75 20.230469 24.847656 19.964844 C 25.023438 19.539062 25.289062 19.207031 25.644531 18.96875 C 26 18.726562 26.410156 18.605469 26.875 18.605469 C 27.332031 18.605469 27.707031 18.726562 27.996094 18.96875 C 28.289062 19.207031 28.46875 19.539062 28.539062 19.957031 C 28.558594 20.078125 28.570312 20.226562 28.570312 20.394531 C 28.570312 20.542969 28.566406 20.65625 28.554688 20.730469 C 28.523438 21 28.464844 21.238281 28.378906 21.441406 C 28.214844 21.894531 27.953125 22.253906 27.59375 22.515625 C 27.234375 22.78125 26.8125 22.914062 26.332031 22.914062 Z M 26.480469 21.765625 C 26.628906 21.765625 26.761719 21.714844 26.875 21.617188 C 26.988281 21.515625 27.078125 21.378906 27.140625 21.207031 C 27.183594 21.089844 27.21875 20.9375 27.246094 20.746094 C 27.257812 20.628906 27.261719 20.546875 27.261719 20.496094 C 27.261719 20.265625 27.21875 20.082031 27.128906 19.953125 C 27.039062 19.820312 26.902344 19.753906 26.722656 19.753906 C 26.414062 19.753906 26.199219 19.929688 26.074219 20.28125 C 26.015625 20.414062 25.976562 20.570312 25.960938 20.746094 C 25.945312 20.851562 25.9375 20.949219 25.9375 21.046875 C 25.9375 21.261719 25.984375 21.4375 26.074219 21.566406 C 26.167969 21.699219 26.300781 21.765625 26.480469 21.765625 Z M 26.480469 21.765625 " fill-opacity="1" fill-rule="nonzero"/><path fill="#540b66" d="M 31.664062 18.605469 C 32.035156 18.605469 32.332031 18.71875 32.550781 18.933594 C 32.773438 19.152344 32.882812 19.457031 32.882812 19.84375 C 32.882812 19.890625 32.878906 19.976562 32.867188 20.09375 L 32.542969 22.703125 C 32.539062 22.746094 32.523438 22.78125 32.496094 22.808594 C 32.46875 22.835938 32.433594 22.847656 32.390625 22.847656 L 31.375 22.847656 C 31.328125 22.847656 31.296875 22.835938 31.269531 22.808594 C 31.246094 22.78125 31.238281 22.746094 31.246094 22.703125 L 31.535156 20.382812 L 31.542969 20.28125 C 31.542969 20.125 31.5 19.996094 31.417969 19.898438 C 31.332031 19.800781 31.21875 19.753906 31.074219 19.753906 C 30.917969 19.753906 30.78125 19.8125 30.664062 19.925781 C 30.550781 20.042969 30.480469 20.195312 30.460938 20.382812 L 30.179688 22.703125 C 30.164062 22.800781 30.109375 22.847656 30.015625 22.847656 L 29 22.847656 C 28.957031 22.847656 28.921875 22.835938 28.902344 22.808594 C 28.878906 22.78125 28.871094 22.746094 28.878906 22.703125 L 29.355469 18.816406 C 29.359375 18.773438 29.375 18.738281 29.402344 18.714844 C 29.429688 18.6875 29.464844 18.671875 29.507812 18.671875 L 30.523438 18.671875 C 30.566406 18.671875 30.601562 18.6875 30.625 18.714844 C 30.648438 18.738281 30.660156 18.773438 30.65625 18.816406 L 30.621094 19.042969 C 30.617188 19.070312 30.621094 19.085938 30.632812 19.09375 C 30.648438 19.097656 30.664062 19.089844 30.679688 19.066406 C 30.921875 18.761719 31.25 18.605469 31.664062 18.605469 Z M 31.664062 18.605469 " fill-opacity="1" fill-rule="nonzero"/><g clip-path="url(#id9)"><path fill="#540b66" d="M 36.121094 18.816406 C 36.140625 18.722656 36.191406 18.671875 36.285156 18.671875 L 37.300781 18.671875 C 37.34375 18.671875 37.375 18.6875 37.398438 18.714844 C 37.417969 18.738281 37.425781 18.773438 37.421875 18.816406 L 36.988281 22.378906 C 36.894531 23.117188 36.625 23.644531 36.171875 23.960938 C 35.71875 24.28125 35.175781 24.4375 34.546875 24.4375 C 34.34375 24.4375 34.113281 24.417969 33.859375 24.382812 C 33.769531 24.367188 33.734375 24.3125 33.753906 24.21875 L 33.902344 23.324219 C 33.921875 23.222656 33.980469 23.179688 34.078125 23.195312 C 34.277344 23.238281 34.457031 23.257812 34.621094 23.257812 C 34.914062 23.257812 35.15625 23.1875 35.347656 23.046875 C 35.535156 22.910156 35.648438 22.6875 35.6875 22.386719 L 35.589844 22.46875 C 35.394531 22.644531 35.125 22.734375 34.773438 22.734375 C 34.429688 22.734375 34.121094 22.65625 33.851562 22.5 C 33.582031 22.34375 33.410156 22.070312 33.335938 21.675781 C 33.308594 21.550781 33.292969 21.402344 33.292969 21.222656 C 33.292969 21.09375 33.304688 20.929688 33.328125 20.722656 C 33.375 20.324219 33.46875 19.984375 33.601562 19.707031 C 33.761719 19.371094 33.988281 19.105469 34.277344 18.90625 C 34.5625 18.707031 34.882812 18.605469 35.234375 18.605469 C 35.601562 18.605469 35.871094 18.71875 36.050781 18.9375 C 36.058594 18.960938 36.074219 18.96875 36.085938 18.964844 C 36.097656 18.957031 36.109375 18.941406 36.113281 18.914062 Z M 35.742188 21.320312 C 35.808594 21.191406 35.855469 20.988281 35.886719 20.714844 C 35.910156 20.53125 35.921875 20.425781 35.921875 20.394531 C 35.921875 20.3125 35.90625 20.226562 35.878906 20.132812 C 35.851562 20.015625 35.800781 19.921875 35.71875 19.855469 C 35.636719 19.789062 35.527344 19.753906 35.394531 19.753906 C 35.152344 19.753906 34.964844 19.882812 34.832031 20.132812 C 34.726562 20.285156 34.664062 20.484375 34.636719 20.730469 C 34.625 20.796875 34.621094 20.886719 34.621094 21 C 34.621094 21.128906 34.636719 21.234375 34.667969 21.3125 C 34.695312 21.425781 34.75 21.519531 34.835938 21.585938 C 34.925781 21.65625 35.035156 21.691406 35.171875 21.691406 C 35.433594 21.691406 35.625 21.566406 35.742188 21.320312 Z M 35.742188 21.320312 " fill-opacity="1" fill-rule="nonzero"/></g><g clip-path="url(#id10)"><path fill="#540b66" d="M 9.648438 27.011719 C 9.644531 27.019531 9.640625 27.027344 9.636719 27.035156 C 9.628906 27.039062 9.621094 27.042969 9.609375 27.042969 L 8.929688 27.042969 C 8.921875 27.042969 8.921875 27.046875 8.921875 27.054688 L 8.871094 27.441406 C 8.871094 27.449219 8.875 27.453125 8.882812 27.453125 L 9.335938 27.453125 C 9.34375 27.453125 9.351562 27.457031 9.355469 27.464844 C 9.359375 27.46875 9.363281 27.476562 9.363281 27.488281 L 9.347656 27.628906 C 9.34375 27.648438 9.328125 27.660156 9.308594 27.660156 L 8.855469 27.660156 C 8.847656 27.660156 8.84375 27.664062 8.84375 27.675781 L 8.792969 28.074219 C 8.792969 28.082031 8.796875 28.082031 8.804688 28.082031 L 9.484375 28.082031 C 9.503906 28.082031 9.515625 28.09375 9.511719 28.117188 L 9.492188 28.257812 C 9.492188 28.269531 9.488281 28.277344 9.480469 28.285156 C 9.476562 28.289062 9.46875 28.292969 9.457031 28.292969 L 8.566406 28.292969 C 8.542969 28.292969 8.535156 28.28125 8.539062 28.257812 L 8.707031 26.871094 C 8.710938 26.847656 8.722656 26.835938 8.742188 26.835938 L 9.636719 26.835938 C 9.644531 26.835938 9.652344 26.839844 9.65625 26.84375 C 9.664062 26.851562 9.664062 26.859375 9.664062 26.871094 Z M 9.648438 27.011719 " fill-opacity="1" fill-rule="nonzero"/></g><g clip-path="url(#id11)"><path fill="#540b66" d="M 10.238281 28.292969 C 10.226562 28.292969 10.21875 28.289062 10.214844 28.285156 C 10.210938 28.277344 10.207031 28.269531 10.210938 28.257812 L 10.378906 26.871094 C 10.382812 26.847656 10.394531 26.835938 10.417969 26.835938 L 10.585938 26.835938 C 10.597656 26.835938 10.605469 26.839844 10.609375 26.84375 C 10.613281 26.851562 10.613281 26.859375 10.613281 26.871094 L 10.441406 28.257812 C 10.441406 28.269531 10.4375 28.277344 10.433594 28.285156 C 10.425781 28.289062 10.417969 28.292969 10.410156 28.292969 Z M 10.238281 28.292969 " fill-opacity="1" fill-rule="nonzero"/></g><g clip-path="url(#id12)"><path fill="#540b66" d="M 12.609375 28.308594 C 12.472656 28.308594 12.363281 28.273438 12.28125 28.195312 C 12.199219 28.121094 12.160156 28.015625 12.160156 27.890625 C 12.160156 27.875 12.160156 27.855469 12.164062 27.820312 L 12.28125 26.871094 C 12.285156 26.847656 12.296875 26.835938 12.320312 26.835938 L 12.488281 26.835938 C 12.496094 26.835938 12.503906 26.839844 12.511719 26.84375 C 12.515625 26.851562 12.515625 26.859375 12.515625 26.871094 L 12.398438 27.824219 C 12.398438 27.835938 12.398438 27.847656 12.398438 27.867188 C 12.398438 27.9375 12.417969 27.996094 12.460938 28.039062 C 12.503906 28.082031 12.5625 28.101562 12.636719 28.101562 C 12.71875 28.101562 12.785156 28.074219 12.84375 28.023438 C 12.898438 27.972656 12.933594 27.90625 12.941406 27.824219 L 13.058594 26.871094 C 13.0625 26.859375 13.066406 26.851562 13.070312 26.84375 C 13.078125 26.839844 13.085938 26.835938 13.09375 26.835938 L 13.265625 26.835938 C 13.289062 26.835938 13.296875 26.847656 13.296875 26.871094 L 13.175781 27.820312 C 13.164062 27.917969 13.132812 28.003906 13.082031 28.078125 C 13.03125 28.152344 12.964844 28.207031 12.882812 28.25 C 12.800781 28.289062 12.710938 28.308594 12.609375 28.308594 Z M 12.703125 26.679688 C 12.6875 26.679688 12.679688 26.671875 12.679688 26.65625 C 12.679688 26.652344 12.679688 26.644531 12.683594 26.636719 L 12.816406 26.441406 C 12.824219 26.425781 12.839844 26.417969 12.855469 26.417969 L 13.015625 26.417969 C 13.03125 26.417969 13.039062 26.425781 13.039062 26.433594 C 13.039062 26.441406 13.035156 26.449219 13.03125 26.457031 L 12.875 26.65625 C 12.867188 26.671875 12.851562 26.679688 12.835938 26.679688 Z M 12.703125 26.679688 " fill-opacity="1" fill-rule="nonzero"/></g><g clip-path="url(#id13)"><path fill="#540b66" d="M 13.910156 28.292969 C 13.902344 28.292969 13.894531 28.289062 13.890625 28.285156 C 13.886719 28.277344 13.882812 28.269531 13.886719 28.257812 L 14.054688 26.871094 C 14.058594 26.847656 14.070312 26.835938 14.09375 26.835938 L 14.261719 26.835938 C 14.269531 26.835938 14.277344 26.839844 14.285156 26.84375 C 14.289062 26.851562 14.289062 26.859375 14.289062 26.871094 L 14.117188 28.257812 C 14.117188 28.269531 14.113281 28.277344 14.105469 28.285156 C 14.101562 28.289062 14.09375 28.292969 14.082031 28.292969 Z M 13.910156 28.292969 " fill-opacity="1" fill-rule="nonzero"/></g><g clip-path="url(#id14)"><path fill="#540b66" d="M 15.527344 27.390625 C 15.523438 27.402344 15.519531 27.410156 15.515625 27.414062 C 15.507812 27.421875 15.5 27.425781 15.488281 27.425781 L 15.292969 27.425781 C 15.285156 27.425781 15.28125 27.429688 15.28125 27.4375 L 15.222656 27.929688 C 15.21875 27.9375 15.21875 27.949219 15.21875 27.96875 C 15.21875 28.007812 15.230469 28.035156 15.25 28.054688 C 15.269531 28.070312 15.300781 28.078125 15.339844 28.078125 L 15.394531 28.078125 C 15.40625 28.078125 15.410156 28.082031 15.414062 28.089844 C 15.417969 28.097656 15.421875 28.105469 15.421875 28.113281 L 15.402344 28.253906 C 15.402344 28.273438 15.390625 28.285156 15.367188 28.289062 L 15.269531 28.289062 C 15.175781 28.289062 15.101562 28.273438 15.054688 28.246094 C 15.003906 28.214844 14.980469 28.160156 14.980469 28.078125 C 14.980469 28.066406 14.984375 28.046875 14.984375 28.019531 L 15.054688 27.4375 C 15.054688 27.429688 15.050781 27.425781 15.042969 27.425781 L 14.941406 27.425781 C 14.929688 27.425781 14.921875 27.421875 14.917969 27.414062 C 14.910156 27.410156 14.910156 27.402344 14.910156 27.390625 L 14.929688 27.261719 C 14.933594 27.238281 14.945312 27.226562 14.964844 27.226562 L 15.070312 27.226562 C 15.078125 27.226562 15.082031 27.226562 15.082031 27.21875 L 15.113281 26.984375 C 15.113281 26.976562 15.117188 26.964844 15.125 26.960938 C 15.128906 26.953125 15.136719 26.949219 15.148438 26.949219 L 15.308594 26.949219 C 15.320312 26.949219 15.328125 26.953125 15.328125 26.960938 C 15.335938 26.964844 15.335938 26.976562 15.335938 26.984375 L 15.308594 27.21875 C 15.304688 27.21875 15.304688 27.222656 15.308594 27.226562 C 15.3125 27.226562 15.316406 27.226562 15.320312 27.226562 L 15.515625 27.226562 C 15.523438 27.226562 15.53125 27.230469 15.535156 27.238281 C 15.539062 27.246094 15.542969 27.253906 15.539062 27.261719 Z M 15.527344 27.390625 " fill-opacity="1" fill-rule="nonzero"/></g><g clip-path="url(#id15)"><path fill="#540b66" d="M 16.402344 27.09375 C 16.363281 27.09375 16.332031 27.085938 16.304688 27.0625 C 16.28125 27.039062 16.269531 27.007812 16.269531 26.96875 C 16.269531 26.921875 16.285156 26.878906 16.316406 26.84375 C 16.347656 26.8125 16.390625 26.796875 16.441406 26.796875 C 16.480469 26.796875 16.511719 26.808594 16.535156 26.832031 C 16.558594 26.851562 16.574219 26.882812 16.574219 26.921875 C 16.574219 26.972656 16.554688 27.015625 16.523438 27.046875 C 16.492188 27.078125 16.449219 27.09375 16.402344 27.09375 Z M 16.171875 28.292969 C 16.148438 28.292969 16.140625 28.28125 16.140625 28.257812 L 16.265625 27.261719 C 16.269531 27.238281 16.28125 27.226562 16.300781 27.226562 L 16.472656 27.226562 C 16.492188 27.226562 16.5 27.238281 16.5 27.261719 L 16.378906 28.257812 C 16.375 28.269531 16.371094 28.277344 16.363281 28.285156 C 16.359375 28.289062 16.351562 28.292969 16.34375 28.292969 Z M 16.171875 28.292969 " fill-opacity="1" fill-rule="nonzero"/></g><g clip-path="url(#id16)"><path fill="#540b66" d="M 18.371094 27.214844 C 18.464844 27.214844 18.535156 27.238281 18.585938 27.292969 C 18.636719 27.34375 18.664062 27.417969 18.664062 27.511719 C 18.664062 27.527344 18.660156 27.546875 18.660156 27.578125 L 18.574219 28.257812 C 18.570312 28.28125 18.558594 28.292969 18.539062 28.292969 L 18.371094 28.292969 C 18.359375 28.292969 18.351562 28.289062 18.347656 28.285156 C 18.34375 28.277344 18.339844 28.269531 18.34375 28.257812 L 18.417969 27.628906 C 18.421875 27.621094 18.421875 27.609375 18.421875 27.589844 C 18.421875 27.539062 18.40625 27.5 18.378906 27.46875 C 18.351562 27.4375 18.3125 27.417969 18.261719 27.417969 C 18.207031 27.417969 18.160156 27.4375 18.121094 27.476562 C 18.082031 27.515625 18.058594 27.5625 18.050781 27.625 L 17.972656 28.257812 C 17.96875 28.28125 17.957031 28.292969 17.9375 28.292969 L 17.769531 28.292969 C 17.757812 28.292969 17.75 28.289062 17.746094 28.285156 C 17.742188 28.277344 17.738281 28.269531 17.742188 28.257812 L 17.820312 27.628906 C 17.820312 27.621094 17.820312 27.609375 17.820312 27.59375 C 17.820312 27.539062 17.804688 27.5 17.777344 27.46875 C 17.75 27.4375 17.710938 27.417969 17.660156 27.417969 C 17.609375 27.417969 17.566406 27.4375 17.53125 27.46875 C 17.492188 27.5 17.46875 27.539062 17.457031 27.589844 L 17.371094 28.257812 C 17.371094 28.269531 17.367188 28.277344 17.363281 28.285156 C 17.355469 28.289062 17.347656 28.292969 17.335938 28.292969 L 17.167969 28.292969 C 17.15625 28.292969 17.148438 28.289062 17.144531 28.285156 C 17.140625 28.277344 17.136719 28.269531 17.140625 28.257812 L 17.265625 27.261719 C 17.265625 27.238281 17.277344 27.226562 17.296875 27.226562 L 17.464844 27.226562 C 17.488281 27.226562 17.496094 27.238281 17.496094 27.261719 L 17.488281 27.320312 C 17.488281 27.324219 17.488281 27.328125 17.492188 27.328125 C 17.496094 27.328125 17.5 27.328125 17.5 27.324219 C 17.570312 27.25 17.660156 27.214844 17.769531 27.214844 C 17.835938 27.214844 17.894531 27.226562 17.9375 27.253906 C 17.984375 27.28125 18.015625 27.320312 18.035156 27.371094 C 18.039062 27.375 18.042969 27.378906 18.046875 27.378906 C 18.050781 27.378906 18.050781 27.375 18.054688 27.371094 C 18.089844 27.316406 18.136719 27.277344 18.191406 27.253906 C 18.246094 27.226562 18.308594 27.214844 18.371094 27.214844 Z M 18.371094 27.214844 " fill-opacity="1" fill-rule="nonzero"/></g><g clip-path="url(#id17)"><path fill="#540b66" d="M 19.742188 28.308594 C 19.636719 28.308594 19.550781 28.28125 19.480469 28.226562 C 19.410156 28.171875 19.367188 28.09375 19.347656 27.996094 C 19.339844 27.957031 19.335938 27.917969 19.335938 27.871094 C 19.335938 27.847656 19.339844 27.808594 19.34375 27.757812 C 19.355469 27.671875 19.375 27.589844 19.402344 27.519531 C 19.449219 27.421875 19.511719 27.347656 19.59375 27.292969 C 19.675781 27.238281 19.773438 27.214844 19.878906 27.214844 C 19.984375 27.214844 20.070312 27.238281 20.136719 27.292969 C 20.203125 27.347656 20.246094 27.421875 20.269531 27.519531 C 20.277344 27.558594 20.28125 27.601562 20.28125 27.652344 C 20.28125 27.683594 20.277344 27.71875 20.273438 27.753906 C 20.261719 27.84375 20.242188 27.921875 20.210938 27.992188 C 20.167969 28.089844 20.105469 28.167969 20.023438 28.226562 C 19.941406 28.28125 19.847656 28.308594 19.742188 28.308594 Z M 19.769531 28.101562 C 19.816406 28.101562 19.863281 28.085938 19.902344 28.058594 C 19.941406 28.027344 19.972656 27.988281 19.992188 27.933594 C 20.015625 27.890625 20.03125 27.832031 20.039062 27.757812 C 20.042969 27.722656 20.042969 27.6875 20.042969 27.65625 C 20.042969 27.636719 20.042969 27.613281 20.039062 27.585938 C 20.027344 27.53125 20.007812 27.492188 19.972656 27.464844 C 19.941406 27.433594 19.902344 27.417969 19.851562 27.417969 C 19.796875 27.417969 19.753906 27.433594 19.714844 27.464844 C 19.675781 27.492188 19.644531 27.53125 19.621094 27.585938 C 19.601562 27.636719 19.585938 27.695312 19.578125 27.757812 C 19.574219 27.792969 19.574219 27.828125 19.574219 27.863281 C 19.574219 27.882812 19.574219 27.90625 19.574219 27.933594 C 19.585938 27.988281 19.609375 28.027344 19.640625 28.058594 C 19.675781 28.085938 19.714844 28.101562 19.769531 28.101562 Z M 19.769531 28.101562 " fill-opacity="1" fill-rule="nonzero"/></g><g clip-path="url(#id18)"><path fill="#540b66" d="M 22.953125 26.835938 C 22.960938 26.835938 22.96875 26.839844 22.972656 26.84375 C 22.980469 26.851562 22.980469 26.859375 22.980469 26.871094 L 22.960938 27.011719 C 22.960938 27.023438 22.957031 27.03125 22.953125 27.035156 C 22.945312 27.042969 22.9375 27.046875 22.925781 27.046875 L 22.566406 27.046875 C 22.558594 27.046875 22.554688 27.050781 22.550781 27.058594 L 22.402344 28.257812 C 22.402344 28.269531 22.398438 28.277344 22.390625 28.285156 C 22.386719 28.289062 22.378906 28.292969 22.367188 28.292969 L 22.195312 28.292969 C 22.1875 28.292969 22.179688 28.289062 22.175781 28.285156 C 22.171875 28.277344 22.167969 28.269531 22.171875 28.257812 L 22.320312 27.058594 C 22.320312 27.050781 22.3125 27.046875 22.304688 27.046875 L 21.960938 27.046875 C 21.9375 27.046875 21.929688 27.035156 21.929688 27.011719 L 21.949219 26.871094 C 21.953125 26.847656 21.964844 26.835938 21.984375 26.835938 Z M 22.953125 26.835938 " fill-opacity="1" fill-rule="nonzero"/></g><g clip-path="url(#id19)"><path fill="#540b66" d="M 24.109375 27.21875 C 24.152344 27.21875 24.1875 27.226562 24.214844 27.238281 C 24.230469 27.246094 24.234375 27.261719 24.226562 27.28125 L 24.175781 27.453125 C 24.171875 27.464844 24.164062 27.472656 24.15625 27.472656 C 24.152344 27.476562 24.144531 27.476562 24.132812 27.472656 C 24.117188 27.46875 24.097656 27.464844 24.070312 27.464844 C 24.054688 27.464844 24.042969 27.464844 24.03125 27.46875 C 23.976562 27.472656 23.925781 27.492188 23.882812 27.53125 C 23.839844 27.570312 23.816406 27.617188 23.808594 27.679688 L 23.734375 28.257812 C 23.734375 28.269531 23.730469 28.277344 23.726562 28.285156 C 23.71875 28.289062 23.710938 28.292969 23.699219 28.292969 L 23.53125 28.292969 C 23.519531 28.292969 23.511719 28.289062 23.507812 28.285156 C 23.503906 28.277344 23.5 28.269531 23.503906 28.257812 L 23.628906 27.261719 C 23.628906 27.238281 23.640625 27.226562 23.660156 27.226562 L 23.828125 27.226562 C 23.851562 27.226562 23.859375 27.238281 23.859375 27.261719 L 23.847656 27.34375 C 23.847656 27.347656 23.847656 27.351562 23.851562 27.355469 C 23.855469 27.355469 23.859375 27.355469 23.863281 27.347656 C 23.925781 27.261719 24.007812 27.21875 24.109375 27.21875 Z M 24.109375 27.21875 " fill-opacity="1" fill-rule="nonzero"/></g><g clip-path="url(#id20)"><path fill="#540b66" d="M 25.507812 27.261719 C 25.507812 27.253906 25.511719 27.246094 25.519531 27.238281 C 25.523438 27.230469 25.535156 27.226562 25.546875 27.226562 L 25.714844 27.226562 C 25.734375 27.226562 25.746094 27.238281 25.742188 27.261719 L 25.621094 28.257812 C 25.617188 28.269531 25.613281 28.277344 25.609375 28.285156 C 25.601562 28.289062 25.59375 28.292969 25.582031 28.292969 L 25.414062 28.292969 C 25.390625 28.292969 25.382812 28.28125 25.386719 28.257812 L 25.390625 28.210938 C 25.394531 28.203125 25.390625 28.199219 25.386719 28.199219 C 25.382812 28.199219 25.382812 28.199219 25.378906 28.203125 C 25.3125 28.273438 25.230469 28.308594 25.136719 28.308594 C 25.042969 28.308594 24.964844 28.285156 24.90625 28.230469 C 24.84375 28.179688 24.804688 28.109375 24.789062 28.019531 C 24.777344 27.972656 24.773438 27.929688 24.773438 27.882812 C 24.773438 27.835938 24.777344 27.796875 24.78125 27.757812 C 24.792969 27.660156 24.8125 27.574219 24.847656 27.503906 C 24.886719 27.414062 24.945312 27.34375 25.019531 27.292969 C 25.089844 27.238281 25.175781 27.214844 25.273438 27.214844 C 25.363281 27.214844 25.4375 27.246094 25.488281 27.3125 C 25.492188 27.316406 25.496094 27.320312 25.496094 27.316406 C 25.5 27.316406 25.5 27.3125 25.503906 27.304688 Z M 25.367188 28 C 25.40625 27.949219 25.433594 27.867188 25.445312 27.757812 C 25.449219 27.722656 25.449219 27.691406 25.449219 27.660156 C 25.449219 27.597656 25.441406 27.550781 25.425781 27.511719 C 25.398438 27.453125 25.351562 27.417969 25.285156 27.417969 C 25.214844 27.417969 25.160156 27.449219 25.113281 27.507812 C 25.066406 27.570312 25.035156 27.65625 25.023438 27.761719 C 25.019531 27.796875 25.019531 27.824219 25.019531 27.851562 C 25.019531 27.910156 25.027344 27.957031 25.042969 28 C 25.070312 28.066406 25.121094 28.097656 25.199219 28.097656 C 25.265625 28.097656 25.324219 28.066406 25.367188 28 Z M 25.367188 28 " fill-opacity="1" fill-rule="nonzero"/></g><g clip-path="url(#id21)"><path fill="#540b66" d="M 27.601562 27.214844 C 27.695312 27.214844 27.765625 27.238281 27.816406 27.292969 C 27.867188 27.34375 27.894531 27.417969 27.894531 27.511719 C 27.894531 27.527344 27.890625 27.546875 27.890625 27.578125 L 27.804688 28.257812 C 27.800781 28.28125 27.789062 28.292969 27.769531 28.292969 L 27.601562 28.292969 C 27.589844 28.292969 27.582031 28.289062 27.578125 28.285156 C 27.574219 28.277344 27.574219 28.269531 27.574219 28.257812 L 27.648438 27.628906 C 27.652344 27.621094 27.652344 27.609375 27.652344 27.589844 C 27.652344 27.539062 27.636719 27.5 27.609375 27.46875 C 27.582031 27.4375 27.542969 27.417969 27.492188 27.417969 C 27.4375 27.417969 27.390625 27.4375 27.351562 27.476562 C 27.3125 27.515625 27.289062 27.5625 27.28125 27.625 L 27.203125 28.257812 C 27.199219 28.28125 27.1875 28.292969 27.167969 28.292969 L 27 28.292969 C 26.988281 28.292969 26.980469 28.289062 26.976562 28.285156 C 26.972656 28.277344 26.96875 28.269531 26.972656 28.257812 L 27.050781 27.628906 C 27.050781 27.621094 27.050781 27.609375 27.050781 27.59375 C 27.050781 27.539062 27.035156 27.5 27.007812 27.46875 C 26.980469 27.4375 26.941406 27.417969 26.890625 27.417969 C 26.839844 27.417969 26.796875 27.4375 26.761719 27.46875 C 26.722656 27.5 26.699219 27.539062 26.6875 27.589844 L 26.605469 28.257812 C 26.601562 28.269531 26.597656 28.277344 26.59375 28.285156 C 26.585938 28.289062 26.578125 28.292969 26.570312 28.292969 L 26.398438 28.292969 C 26.390625 28.292969 26.378906 28.289062 26.375 28.285156 C 26.371094 28.277344 26.367188 28.269531 26.371094 28.257812 L 26.496094 27.261719 C 26.496094 27.238281 26.507812 27.226562 26.53125 27.226562 L 26.695312 27.226562 C 26.71875 27.226562 26.730469 27.238281 26.726562 27.261719 L 26.722656 27.320312 C 26.71875 27.324219 26.71875 27.328125 26.722656 27.328125 C 26.726562 27.328125 26.730469 27.328125 26.730469 27.324219 C 26.800781 27.25 26.890625 27.214844 27 27.214844 C 27.066406 27.214844 27.125 27.226562 27.167969 27.253906 C 27.214844 27.28125 27.246094 27.320312 27.265625 27.371094 C 27.269531 27.375 27.273438 27.378906 27.277344 27.378906 C 27.28125 27.378906 27.28125 27.375 27.285156 27.371094 C 27.320312 27.316406 27.367188 27.277344 27.421875 27.253906 C 27.480469 27.226562 27.539062 27.214844 27.601562 27.214844 Z M 27.601562 27.214844 " fill-opacity="1" fill-rule="nonzero"/></g><g clip-path="url(#id22)"><path fill="#540b66" d="M 28.972656 28.308594 C 28.867188 28.308594 28.78125 28.28125 28.710938 28.226562 C 28.640625 28.171875 28.597656 28.09375 28.578125 27.996094 C 28.570312 27.957031 28.566406 27.917969 28.566406 27.871094 C 28.566406 27.847656 28.570312 27.808594 28.574219 27.757812 C 28.585938 27.671875 28.605469 27.589844 28.636719 27.519531 C 28.679688 27.421875 28.742188 27.347656 28.824219 27.292969 C 28.90625 27.238281 29.003906 27.214844 29.113281 27.214844 C 29.214844 27.214844 29.300781 27.238281 29.367188 27.292969 C 29.433594 27.347656 29.476562 27.421875 29.5 27.519531 C 29.507812 27.558594 29.511719 27.601562 29.511719 27.652344 C 29.511719 27.683594 29.507812 27.71875 29.503906 27.753906 C 29.492188 27.84375 29.472656 27.921875 29.441406 27.992188 C 29.398438 28.089844 29.335938 28.167969 29.253906 28.226562 C 29.171875 28.28125 29.078125 28.308594 28.972656 28.308594 Z M 29 28.101562 C 29.050781 28.101562 29.09375 28.085938 29.132812 28.058594 C 29.171875 28.027344 29.203125 27.988281 29.226562 27.933594 C 29.246094 27.890625 29.261719 27.832031 29.269531 27.757812 C 29.273438 27.722656 29.273438 27.6875 29.273438 27.65625 C 29.273438 27.636719 29.273438 27.613281 29.269531 27.585938 C 29.261719 27.53125 29.238281 27.492188 29.207031 27.464844 C 29.171875 27.433594 29.132812 27.417969 29.082031 27.417969 C 29.027344 27.417969 28.984375 27.433594 28.945312 27.464844 C 28.90625 27.492188 28.875 27.53125 28.851562 27.585938 C 28.832031 27.636719 28.816406 27.695312 28.808594 27.757812 C 28.804688 27.792969 28.804688 27.828125 28.804688 27.863281 C 28.804688 27.882812 28.804688 27.90625 28.808594 27.933594 C 28.816406 27.988281 28.839844 28.027344 28.871094 28.058594 C 28.90625 28.085938 28.949219 28.101562 29 28.101562 Z M 29 28.101562 " fill-opacity="1" fill-rule="nonzero"/></g></svg>