<svg xmlns="http://www.w3.org/2000/svg" xmlns:xlink="http://www.w3.org/1999/xlink" width="1920" zoomAndPan="magnify" viewBox="0 0 1440 809.999993" height="1080" preserveAspectRatio="xMidYMid meet" version="1.0"><defs><clipPath id="id1"><path d="M 955.425781 0 L 1440 0 L 1440 810 L 955.425781 810 Z M 955.425781 0 " clip-rule="nonzero"/></clipPath><clipPath id="id2"><path d="M 640 0 L 932.523438 0 L 932.523438 810 L 640 810 Z M 640 0 " clip-rule="nonzero"/></clipPath><clipPath id="id3"><path d="M 797.570312 0 L 1440 0 L 1440 810 L 797.570312 810 Z M 797.570312 0 " clip-rule="nonzero"/></clipPath></defs><path fill="#540b66" d="M 1032.230469 -4.550781 L 1426.875 -4.550781 C 1428.066406 -4.550781 1429.253906 -4.519531 1430.441406 -4.464844 C 1431.625 -4.40625 1432.8125 -4.316406 1433.996094 -4.199219 C 1435.175781 -4.085938 1436.355469 -3.9375 1437.53125 -3.765625 C 1438.707031 -3.589844 1439.878906 -3.386719 1441.042969 -3.15625 C 1442.210938 -2.921875 1443.371094 -2.660156 1444.523438 -2.371094 C 1445.675781 -2.085938 1446.820312 -1.765625 1447.957031 -1.421875 C 1449.097656 -1.078125 1450.222656 -0.703125 1451.34375 -0.304688 C 1452.460938 0.0976562 1453.570312 0.523438 1454.667969 0.980469 C 1455.765625 1.433594 1456.851562 1.917969 1457.929688 2.425781 C 1459.003906 2.933594 1460.0625 3.46875 1461.113281 4.027344 C 1462.160156 4.589844 1463.195312 5.175781 1464.214844 5.785156 C 1465.234375 6.398438 1466.238281 7.035156 1467.226562 7.695312 C 1468.214844 8.355469 1469.183594 9.039062 1470.140625 9.75 C 1471.09375 10.457031 1472.03125 11.1875 1472.949219 11.941406 C 1473.867188 12.695312 1474.769531 13.472656 1475.648438 14.273438 C 1476.53125 15.070312 1477.390625 15.890625 1478.230469 16.730469 C 1479.070312 17.570312 1479.890625 18.433594 1480.6875 19.3125 C 1481.488281 20.195312 1482.261719 21.09375 1483.015625 22.015625 C 1483.769531 22.933594 1484.503906 23.871094 1485.210938 24.824219 C 1485.917969 25.78125 1486.601562 26.753906 1487.261719 27.742188 C 1487.921875 28.730469 1488.558594 29.734375 1489.171875 30.753906 C 1489.78125 31.773438 1490.367188 32.808594 1490.925781 33.855469 C 1491.488281 34.90625 1492.023438 35.96875 1492.53125 37.042969 C 1493.039062 38.117188 1493.519531 39.203125 1493.972656 40.300781 C 1494.429688 41.402344 1494.855469 42.511719 1495.257812 43.628906 C 1495.65625 44.75 1496.03125 45.878906 1496.375 47.015625 C 1496.71875 48.152344 1497.039062 49.300781 1497.328125 50.453125 C 1497.613281 51.605469 1497.875 52.765625 1498.105469 53.933594 C 1498.339844 55.097656 1498.542969 56.269531 1498.714844 57.445312 C 1498.890625 58.621094 1499.035156 59.800781 1499.152344 60.984375 C 1499.269531 62.167969 1499.355469 63.355469 1499.414062 64.542969 C 1499.472656 65.730469 1499.503906 66.917969 1499.503906 68.109375 L 1499.503906 732.355469 C 1499.503906 733.542969 1499.472656 734.730469 1499.414062 735.917969 C 1499.355469 737.105469 1499.269531 738.292969 1499.152344 739.476562 C 1499.035156 740.660156 1498.890625 741.839844 1498.714844 743.015625 C 1498.542969 744.191406 1498.339844 745.363281 1498.105469 746.527344 C 1497.875 747.695312 1497.613281 748.855469 1497.328125 750.007812 C 1497.039062 751.160156 1496.71875 752.308594 1496.375 753.445312 C 1496.03125 754.582031 1495.65625 755.710938 1495.257812 756.832031 C 1494.855469 757.949219 1494.429688 759.058594 1493.972656 760.160156 C 1493.519531 761.257812 1493.039062 762.34375 1492.53125 763.417969 C 1492.023438 764.492188 1491.488281 765.554688 1490.925781 766.605469 C 1490.367188 767.652344 1489.78125 768.6875 1489.171875 769.707031 C 1488.558594 770.726562 1487.921875 771.730469 1487.261719 772.71875 C 1486.601562 773.707031 1485.917969 774.679688 1485.210938 775.636719 C 1484.503906 776.589844 1483.769531 777.527344 1483.015625 778.449219 C 1482.261719 779.367188 1481.488281 780.265625 1480.6875 781.148438 C 1479.890625 782.027344 1479.070312 782.890625 1478.230469 783.730469 C 1477.390625 784.570312 1476.53125 785.390625 1475.648438 786.191406 C 1474.769531 786.988281 1473.867188 787.765625 1472.949219 788.519531 C 1472.03125 789.273438 1471.09375 790.003906 1470.140625 790.714844 C 1469.183594 791.421875 1468.214844 792.105469 1467.226562 792.765625 C 1466.238281 793.425781 1465.234375 794.0625 1464.214844 794.675781 C 1463.195312 795.285156 1462.160156 795.871094 1461.113281 796.433594 C 1460.0625 796.992188 1459.003906 797.527344 1457.929688 798.035156 C 1456.851562 798.542969 1455.765625 799.027344 1454.667969 799.480469 C 1453.570312 799.9375 1452.460938 800.363281 1451.34375 800.765625 C 1450.222656 801.164062 1449.097656 801.539062 1447.957031 801.882812 C 1446.820312 802.226562 1445.675781 802.546875 1444.523438 802.835938 C 1443.371094 803.121094 1442.210938 803.382812 1441.042969 803.617188 C 1439.878906 803.847656 1438.707031 804.050781 1437.53125 804.226562 C 1436.355469 804.398438 1435.175781 804.546875 1433.996094 804.660156 C 1432.8125 804.777344 1431.625 804.867188 1430.441406 804.925781 C 1429.253906 804.984375 1428.066406 805.011719 1426.875 805.011719 L 1032.230469 805.011719 C 1031.039062 805.011719 1029.851562 804.984375 1028.664062 804.925781 C 1027.480469 804.867188 1026.292969 804.777344 1025.109375 804.660156 C 1023.929688 804.546875 1022.75 804.398438 1021.574219 804.226562 C 1020.398438 804.050781 1019.226562 803.847656 1018.0625 803.617188 C 1016.894531 803.382812 1015.734375 803.125 1014.582031 802.835938 C 1013.429688 802.546875 1012.285156 802.226562 1011.148438 801.882812 C 1010.007812 801.539062 1008.882812 801.164062 1007.761719 800.765625 C 1006.644531 800.363281 1005.535156 799.9375 1004.4375 799.480469 C 1003.339844 799.027344 1002.25 798.542969 1001.175781 798.035156 C 1000.101562 797.527344 999.042969 796.992188 997.992188 796.433594 C 996.945312 795.871094 995.910156 795.285156 994.890625 794.675781 C 993.871094 794.0625 992.867188 793.425781 991.878906 792.765625 C 990.890625 792.105469 989.921875 791.421875 988.964844 790.714844 C 988.011719 790.003906 987.074219 789.273438 986.15625 788.519531 C 985.238281 787.765625 984.335938 786.988281 983.457031 786.191406 C 982.574219 785.390625 981.714844 784.570312 980.875 783.730469 C 980.035156 782.890625 979.214844 782.027344 978.417969 781.148438 C 977.617188 780.265625 976.84375 779.367188 976.089844 778.449219 C 975.335938 777.527344 974.601562 776.589844 973.894531 775.636719 C 973.1875 774.679688 972.503906 773.707031 971.84375 772.71875 C 971.183594 771.730469 970.546875 770.726562 969.933594 769.707031 C 969.324219 768.6875 968.738281 767.652344 968.179688 766.605469 C 967.617188 765.554688 967.082031 764.492188 966.574219 763.417969 C 966.066406 762.34375 965.585938 761.257812 965.132812 760.160156 C 964.675781 759.058594 964.25 757.949219 963.847656 756.832031 C 963.449219 755.710938 963.074219 754.582031 962.730469 753.445312 C 962.386719 752.308594 962.066406 751.160156 961.777344 750.007812 C 961.492188 748.855469 961.230469 747.695312 961 746.527344 C 960.765625 745.363281 960.5625 744.191406 960.386719 743.015625 C 960.214844 741.839844 960.070312 740.660156 959.953125 739.476562 C 959.835938 738.292969 959.75 737.105469 959.691406 735.917969 C 959.632812 734.730469 959.601562 733.542969 959.601562 732.355469 L 959.601562 68.109375 C 959.601562 66.917969 959.632812 65.730469 959.691406 64.542969 C 959.75 63.355469 959.835938 62.167969 959.953125 60.984375 C 960.070312 59.800781 960.214844 58.621094 960.386719 57.445312 C 960.5625 56.269531 960.765625 55.097656 961 53.933594 C 961.230469 52.765625 961.492188 51.605469 961.777344 50.453125 C 962.066406 49.300781 962.386719 48.152344 962.730469 47.015625 C 963.074219 45.878906 963.449219 44.75 963.847656 43.628906 C 964.25 42.511719 964.675781 41.402344 965.132812 40.300781 C 965.585938 39.203125 966.066406 38.117188 966.574219 37.042969 C 967.082031 35.96875 967.617188 34.90625 968.179688 33.855469 C 968.738281 32.808594 969.324219 31.773438 969.933594 30.753906 C 970.546875 29.734375 971.183594 28.730469 971.84375 27.742188 C 972.503906 26.753906 973.1875 25.78125 973.894531 24.824219 C 974.601562 23.871094 975.335938 22.933594 976.089844 22.015625 C 976.84375 21.09375 977.617188 20.195312 978.417969 19.3125 C 979.214844 18.433594 980.035156 17.570312 980.875 16.730469 C 981.714844 15.890625 982.574219 15.070312 983.457031 14.273438 C 984.335938 13.472656 985.238281 12.695312 986.15625 11.941406 C 987.074219 11.1875 988.011719 10.457031 988.964844 9.75 C 989.921875 9.039062 990.890625 8.355469 991.878906 7.695312 C 992.867188 7.035156 993.871094 6.398438 994.890625 5.785156 C 995.910156 5.175781 996.945312 4.589844 997.992188 4.027344 C 999.042969 3.46875 1000.101562 2.933594 1001.175781 2.425781 C 1002.25 1.917969 1003.339844 1.433594 1004.4375 0.980469 C 1005.535156 0.523438 1006.644531 0.0976562 1007.761719 -0.304688 C 1008.882812 -0.703125 1010.007812 -1.078125 1011.148438 -1.421875 C 1012.285156 -1.765625 1013.429688 -2.085938 1014.582031 -2.371094 C 1015.734375 -2.660156 1016.894531 -2.921875 1018.0625 -3.15625 C 1019.226562 -3.386719 1020.398438 -3.589844 1021.574219 -3.765625 C 1022.75 -3.9375 1023.929688 -4.085938 1025.109375 -4.199219 C 1026.292969 -4.316406 1027.480469 -4.40625 1028.664062 -4.464844 C 1029.851562 -4.519531 1031.039062 -4.550781 1032.230469 -4.550781 Z M 1032.230469 -4.550781 " fill-opacity="1" fill-rule="nonzero"/><g clip-path="url(#id1)"><path fill="#540b66" d="M 1426.875 809.1875 L 1032.246094 809.1875 C 1030.988281 809.1875 1029.734375 809.15625 1028.476562 809.097656 C 1027.222656 809.035156 1025.96875 808.941406 1024.714844 808.820312 C 1023.464844 808.695312 1022.21875 808.542969 1020.972656 808.355469 C 1019.730469 808.171875 1018.492188 807.957031 1017.257812 807.710938 C 1016.027344 807.464844 1014.800781 807.191406 1013.582031 806.886719 C 1012.359375 806.578125 1011.148438 806.246094 1009.945312 805.878906 C 1008.742188 805.515625 1007.550781 805.121094 1006.367188 804.695312 C 1005.183594 804.273438 1004.011719 803.820312 1002.847656 803.339844 C 1001.6875 802.855469 1000.539062 802.347656 999.402344 801.808594 C 998.265625 801.273438 997.144531 800.707031 996.035156 800.113281 C 994.925781 799.519531 993.832031 798.902344 992.753906 798.253906 C 991.675781 797.609375 990.613281 796.933594 989.566406 796.238281 C 988.523438 795.539062 987.496094 794.8125 986.484375 794.066406 C 985.476562 793.316406 984.484375 792.542969 983.511719 791.742188 C 982.542969 790.945312 981.589844 790.125 980.65625 789.28125 C 979.726562 788.433594 978.816406 787.570312 977.925781 786.679688 C 977.039062 785.789062 976.171875 784.878906 975.328125 783.945312 C 974.484375 783.015625 973.664062 782.0625 972.863281 781.089844 C 972.066406 780.117188 971.292969 779.128906 970.546875 778.117188 C 969.796875 777.105469 969.074219 776.078125 968.375 775.035156 C 967.675781 773.988281 967.003906 772.925781 966.355469 771.847656 C 965.710938 770.769531 965.089844 769.671875 964.5 768.566406 C 963.90625 767.457031 963.339844 766.332031 962.804688 765.195312 C 962.265625 764.058594 961.757812 762.910156 961.273438 761.746094 C 960.792969 760.585938 960.339844 759.410156 959.917969 758.226562 C 959.496094 757.042969 959.101562 755.847656 958.734375 754.644531 C 958.371094 753.441406 958.035156 752.230469 957.730469 751.011719 C 957.425781 749.789062 957.148438 748.5625 956.902344 747.328125 C 956.660156 746.097656 956.445312 744.859375 956.257812 743.613281 C 956.074219 742.371094 955.921875 741.121094 955.796875 739.871094 C 955.675781 738.617188 955.582031 737.363281 955.519531 736.109375 C 955.457031 734.851562 955.425781 733.59375 955.425781 732.335938 L 955.425781 68.125 C 955.425781 66.867188 955.457031 65.609375 955.519531 64.351562 C 955.582031 63.097656 955.675781 61.84375 955.796875 60.589844 C 955.921875 59.339844 956.074219 58.09375 956.257812 56.847656 C 956.445312 55.605469 956.660156 54.363281 956.902344 53.132812 C 957.148438 51.898438 957.425781 50.671875 957.730469 49.449219 C 958.035156 48.230469 958.371094 47.019531 958.734375 45.816406 C 959.101562 44.613281 959.496094 43.417969 959.917969 42.234375 C 960.339844 41.050781 960.792969 39.875 961.273438 38.714844 C 961.757812 37.550781 962.265625 36.402344 962.804688 35.265625 C 963.339844 34.128906 963.90625 33.007812 964.5 31.898438 C 965.089844 30.789062 965.710938 29.695312 966.355469 28.613281 C 967.003906 27.535156 967.675781 26.472656 968.375 25.429688 C 969.074219 24.382812 969.796875 23.355469 970.546875 22.34375 C 971.292969 21.332031 972.066406 20.34375 972.863281 19.371094 C 973.664062 18.398438 974.484375 17.445312 975.328125 16.515625 C 976.171875 15.582031 977.039062 14.671875 977.925781 13.78125 C 978.816406 12.894531 979.726562 12.027344 980.65625 11.179688 C 981.589844 10.335938 982.542969 9.515625 983.511719 8.71875 C 984.484375 7.917969 985.476562 7.144531 986.484375 6.398438 C 987.496094 5.648438 988.523438 4.921875 989.566406 4.226562 C 990.613281 3.527344 991.675781 2.851562 992.753906 2.207031 C 993.832031 1.558594 994.925781 0.941406 996.035156 0.347656 C 997.144531 -0.246094 998.265625 -0.8125 999.402344 -1.347656 C 1000.539062 -1.886719 1001.6875 -2.394531 1002.847656 -2.878906 C 1004.011719 -3.359375 1005.183594 -3.8125 1006.367188 -4.234375 C 1007.550781 -4.660156 1008.742188 -5.054688 1009.945312 -5.417969 C 1011.148438 -5.78125 1012.359375 -6.117188 1013.582031 -6.425781 C 1014.800781 -6.730469 1016.027344 -7.003906 1017.257812 -7.25 C 1018.492188 -7.496094 1019.730469 -7.710938 1020.972656 -7.894531 C 1022.21875 -8.078125 1023.464844 -8.234375 1024.714844 -8.355469 C 1025.96875 -8.480469 1027.222656 -8.574219 1028.476562 -8.632812 C 1029.734375 -8.695312 1030.988281 -8.726562 1032.246094 -8.726562 L 1426.875 -8.726562 C 1428.132812 -8.726562 1429.390625 -8.695312 1430.644531 -8.632812 C 1431.902344 -8.574219 1433.15625 -8.480469 1434.40625 -8.355469 C 1435.65625 -8.234375 1436.902344 -8.078125 1438.148438 -7.894531 C 1439.390625 -7.710938 1440.628906 -7.496094 1441.863281 -7.25 C 1443.09375 -7.003906 1444.320312 -6.730469 1445.542969 -6.425781 C 1446.761719 -6.117188 1447.972656 -5.78125 1449.175781 -5.417969 C 1450.378906 -5.054688 1451.570312 -4.660156 1452.753906 -4.234375 C 1453.9375 -3.8125 1455.113281 -3.359375 1456.273438 -2.878906 C 1457.433594 -2.394531 1458.582031 -1.886719 1459.71875 -1.347656 C 1460.855469 -0.8125 1461.980469 -0.246094 1463.085938 0.347656 C 1464.195312 0.941406 1465.289062 1.558594 1466.367188 2.207031 C 1467.445312 2.851562 1468.507812 3.527344 1469.554688 4.226562 C 1470.597656 4.921875 1471.625 5.648438 1472.636719 6.398438 C 1473.644531 7.144531 1474.636719 7.917969 1475.609375 8.71875 C 1476.582031 9.515625 1477.53125 10.335938 1478.464844 11.179688 C 1479.394531 12.027344 1480.304688 12.894531 1481.195312 13.78125 C 1482.082031 14.671875 1482.949219 15.582031 1483.792969 16.515625 C 1484.640625 17.445312 1485.460938 18.398438 1486.257812 19.371094 C 1487.054688 20.34375 1487.828125 21.332031 1488.578125 22.34375 C 1489.324219 23.355469 1490.050781 24.382812 1490.75 25.429688 C 1491.445312 26.472656 1492.117188 27.535156 1492.765625 28.613281 C 1493.410156 29.695312 1494.03125 30.789062 1494.625 31.898438 C 1495.214844 33.007812 1495.78125 34.128906 1496.320312 35.265625 C 1496.855469 36.402344 1497.367188 37.550781 1497.847656 38.714844 C 1498.328125 39.875 1498.78125 41.050781 1499.203125 42.234375 C 1499.628906 43.417969 1500.023438 44.613281 1500.386719 45.816406 C 1500.75 47.019531 1501.085938 48.230469 1501.390625 49.449219 C 1501.699219 50.671875 1501.972656 51.898438 1502.21875 53.132812 C 1502.464844 54.363281 1502.679688 55.605469 1502.863281 56.847656 C 1503.046875 58.09375 1503.203125 59.339844 1503.324219 60.589844 C 1503.449219 61.84375 1503.539062 63.097656 1503.601562 64.351562 C 1503.664062 65.609375 1503.695312 66.867188 1503.695312 68.125 L 1503.695312 732.355469 C 1503.695312 733.609375 1503.664062 734.867188 1503.601562 736.125 C 1503.539062 737.378906 1503.445312 738.632812 1503.324219 739.886719 C 1503.199219 741.136719 1503.046875 742.382812 1502.859375 743.628906 C 1502.675781 744.871094 1502.460938 746.109375 1502.214844 747.34375 C 1501.96875 748.578125 1501.695312 749.804688 1501.390625 751.023438 C 1501.082031 752.242188 1500.746094 753.457031 1500.382812 754.660156 C 1500.015625 755.863281 1499.625 757.054688 1499.199219 758.238281 C 1498.777344 759.425781 1498.324219 760.597656 1497.84375 761.757812 C 1497.359375 762.921875 1496.851562 764.070312 1496.3125 765.207031 C 1495.777344 766.34375 1495.210938 767.464844 1494.617188 768.574219 C 1494.027344 769.683594 1493.40625 770.777344 1492.757812 771.855469 C 1492.113281 772.933594 1491.441406 773.996094 1490.742188 775.042969 C 1490.042969 776.085938 1489.320312 777.117188 1488.570312 778.125 C 1487.820312 779.136719 1487.050781 780.125 1486.25 781.097656 C 1485.453125 782.070312 1484.632812 783.023438 1483.789062 783.953125 C 1482.945312 784.886719 1482.078125 785.796875 1481.1875 786.683594 C 1480.300781 787.574219 1479.390625 788.441406 1478.457031 789.285156 C 1477.527344 790.128906 1476.574219 790.949219 1475.601562 791.75 C 1474.632812 792.546875 1473.640625 793.320312 1472.632812 794.070312 C 1471.621094 794.816406 1470.59375 795.542969 1469.546875 796.238281 C 1468.503906 796.9375 1467.441406 797.609375 1466.363281 798.257812 C 1465.285156 798.902344 1464.191406 799.523438 1463.082031 800.117188 C 1461.972656 800.710938 1460.851562 801.273438 1459.714844 801.8125 C 1458.578125 802.347656 1457.429688 802.859375 1456.269531 803.339844 C 1455.109375 803.820312 1453.933594 804.273438 1452.75 804.695312 C 1451.566406 805.121094 1450.375 805.515625 1449.171875 805.878906 C 1447.96875 806.246094 1446.757812 806.582031 1445.539062 806.886719 C 1444.320312 807.191406 1443.09375 807.46875 1441.859375 807.710938 C 1440.628906 807.957031 1439.390625 808.171875 1438.144531 808.355469 C 1436.902344 808.542969 1435.65625 808.695312 1434.40625 808.820312 C 1433.152344 808.941406 1431.898438 809.035156 1430.644531 809.097656 C 1429.390625 809.15625 1428.132812 809.1875 1426.875 809.1875 Z M 1032.246094 -0.375 C 1031.125 -0.375 1030.003906 -0.347656 1028.886719 -0.292969 C 1027.765625 -0.234375 1026.648438 -0.152344 1025.535156 -0.0429688 C 1024.417969 0.0664062 1023.308594 0.203125 1022.199219 0.367188 C 1021.089844 0.53125 1019.988281 0.722656 1018.886719 0.941406 C 1017.789062 1.160156 1016.695312 1.40625 1015.609375 1.679688 C 1014.523438 1.953125 1013.441406 2.25 1012.371094 2.574219 C 1011.296875 2.902344 1010.234375 3.253906 1009.179688 3.628906 C 1008.125 4.007812 1007.078125 4.410156 1006.042969 4.839844 C 1005.007812 5.269531 1003.984375 5.722656 1002.972656 6.203125 C 1001.960938 6.683594 1000.957031 7.1875 999.96875 7.714844 C 998.980469 8.242188 998.007812 8.796875 997.046875 9.371094 C 996.085938 9.949219 995.140625 10.546875 994.207031 11.171875 C 993.273438 11.792969 992.359375 12.4375 991.460938 13.105469 C 990.558594 13.773438 989.675781 14.464844 988.808594 15.175781 C 987.945312 15.886719 987.09375 16.617188 986.265625 17.371094 C 985.433594 18.125 984.625 18.894531 983.832031 19.6875 C 983.039062 20.480469 982.265625 21.292969 981.515625 22.125 C 980.761719 22.953125 980.03125 23.804688 979.320312 24.667969 C 978.609375 25.535156 977.917969 26.417969 977.25 27.320312 C 976.585938 28.21875 975.9375 29.136719 975.316406 30.070312 C 974.695312 31 974.09375 31.949219 973.519531 32.910156 C 972.941406 33.871094 972.390625 34.847656 971.863281 35.835938 C 971.332031 36.824219 970.832031 37.824219 970.351562 38.835938 C 969.871094 39.851562 969.417969 40.875 968.988281 41.910156 C 968.558594 42.945312 968.15625 43.992188 967.78125 45.046875 C 967.402344 46.101562 967.050781 47.167969 966.726562 48.242188 C 966.402344 49.3125 966.101562 50.394531 965.828125 51.480469 C 965.558594 52.566406 965.3125 53.660156 965.09375 54.761719 C 964.875 55.859375 964.683594 56.964844 964.519531 58.074219 C 964.355469 59.183594 964.21875 60.292969 964.105469 61.410156 C 963.996094 62.527344 963.914062 63.644531 963.859375 64.761719 C 963.804688 65.882812 963.777344 67.003906 963.777344 68.125 L 963.777344 732.355469 C 963.777344 733.476562 963.804688 734.59375 963.859375 735.714844 C 963.914062 736.835938 963.996094 737.953125 964.105469 739.066406 C 964.21875 740.183594 964.355469 741.296875 964.519531 742.40625 C 964.683594 743.511719 964.875 744.617188 965.09375 745.71875 C 965.3125 746.816406 965.558594 747.910156 965.828125 748.996094 C 966.101562 750.085938 966.402344 751.164062 966.726562 752.238281 C 967.050781 753.308594 967.402344 754.375 967.78125 755.429688 C 968.15625 756.484375 968.558594 757.53125 968.988281 758.566406 C 969.417969 759.601562 969.871094 760.625 970.351562 761.640625 C 970.832031 762.652344 971.332031 763.65625 971.863281 764.644531 C 972.390625 765.632812 972.941406 766.605469 973.519531 767.570312 C 974.09375 768.53125 974.695312 769.476562 975.316406 770.410156 C 975.9375 771.339844 976.585938 772.257812 977.25 773.15625 C 977.917969 774.058594 978.609375 774.941406 979.320312 775.808594 C 980.03125 776.675781 980.761719 777.523438 981.515625 778.355469 C 982.265625 779.183594 983.039062 779.996094 983.832031 780.789062 C 984.625 781.582031 985.433594 782.355469 986.265625 783.105469 C 987.09375 783.859375 987.945312 784.59375 988.808594 785.304688 C 989.675781 786.015625 990.558594 786.703125 991.460938 787.371094 C 992.359375 788.039062 993.273438 788.683594 994.207031 789.308594 C 995.136719 789.929688 996.085938 790.53125 997.046875 791.105469 C 998.007812 791.683594 998.980469 792.234375 999.96875 792.761719 C 1000.957031 793.292969 1001.960938 793.796875 1002.972656 794.273438 C 1003.984375 794.753906 1005.007812 795.207031 1006.042969 795.636719 C 1007.078125 796.066406 1008.125 796.46875 1009.179688 796.847656 C 1010.234375 797.226562 1011.296875 797.578125 1012.371094 797.902344 C 1013.441406 798.226562 1014.523438 798.527344 1015.609375 798.796875 C 1016.695312 799.070312 1017.789062 799.316406 1018.886719 799.535156 C 1019.988281 799.753906 1021.089844 799.945312 1022.199219 800.109375 C 1023.308594 800.273438 1024.417969 800.410156 1025.535156 800.523438 C 1026.648438 800.632812 1027.765625 800.714844 1028.886719 800.769531 C 1030.003906 800.824219 1031.125 800.851562 1032.246094 800.851562 L 1426.875 800.851562 C 1427.996094 800.851562 1429.117188 800.824219 1430.234375 800.769531 C 1431.355469 800.714844 1432.472656 800.632812 1433.585938 800.523438 C 1434.703125 800.410156 1435.8125 800.273438 1436.921875 800.109375 C 1438.03125 799.945312 1439.132812 799.753906 1440.234375 799.535156 C 1441.332031 799.316406 1442.425781 799.070312 1443.511719 798.796875 C 1444.597656 798.527344 1445.679688 798.226562 1446.75 797.902344 C 1447.824219 797.578125 1448.886719 797.226562 1449.941406 796.847656 C 1450.996094 796.46875 1452.042969 796.066406 1453.078125 795.636719 C 1454.113281 795.207031 1455.136719 794.753906 1456.148438 794.273438 C 1457.164062 793.796875 1458.164062 793.292969 1459.152344 792.761719 C 1460.140625 792.234375 1461.113281 791.683594 1462.074219 791.105469 C 1463.035156 790.53125 1463.984375 789.929688 1464.914062 789.308594 C 1465.847656 788.683594 1466.761719 788.039062 1467.664062 787.371094 C 1468.5625 786.703125 1469.445312 786.015625 1470.3125 785.304688 C 1471.179688 784.59375 1472.027344 783.859375 1472.855469 783.105469 C 1473.6875 782.355469 1474.5 781.582031 1475.289062 780.789062 C 1476.082031 779.996094 1476.855469 779.183594 1477.609375 778.355469 C 1478.359375 777.523438 1479.09375 776.675781 1479.804688 775.808594 C 1480.511719 774.941406 1481.203125 774.058594 1481.871094 773.15625 C 1482.539062 772.257812 1483.183594 771.339844 1483.804688 770.410156 C 1484.429688 769.476562 1485.027344 768.53125 1485.601562 767.570312 C 1486.179688 766.605469 1486.730469 765.632812 1487.257812 764.644531 C 1487.789062 763.65625 1488.292969 762.652344 1488.769531 761.640625 C 1489.25 760.625 1489.703125 759.601562 1490.132812 758.566406 C 1490.5625 757.53125 1490.964844 756.484375 1491.34375 755.429688 C 1491.71875 754.375 1492.070312 753.308594 1492.394531 752.238281 C 1492.722656 751.164062 1493.019531 750.085938 1493.292969 748.996094 C 1493.566406 747.910156 1493.808594 746.816406 1494.027344 745.71875 C 1494.246094 744.617188 1494.4375 743.511719 1494.601562 742.40625 C 1494.769531 741.296875 1494.90625 740.183594 1495.015625 739.066406 C 1495.125 737.953125 1495.207031 736.835938 1495.261719 735.714844 C 1495.316406 734.59375 1495.34375 733.476562 1495.34375 732.355469 L 1495.34375 68.125 C 1495.34375 67.003906 1495.316406 65.882812 1495.261719 64.761719 C 1495.207031 63.644531 1495.125 62.527344 1495.015625 61.410156 C 1494.90625 60.292969 1494.769531 59.183594 1494.601562 58.074219 C 1494.4375 56.964844 1494.246094 55.859375 1494.027344 54.761719 C 1493.808594 53.660156 1493.566406 52.566406 1493.292969 51.480469 C 1493.019531 50.394531 1492.722656 49.3125 1492.394531 48.242188 C 1492.070312 47.167969 1491.71875 46.101562 1491.34375 45.046875 C 1490.964844 43.992188 1490.5625 42.945312 1490.132812 41.910156 C 1489.703125 40.875 1489.25 39.851562 1488.769531 38.835938 C 1488.292969 37.824219 1487.789062 36.824219 1487.261719 35.835938 C 1486.730469 34.847656 1486.179688 33.871094 1485.601562 32.910156 C 1485.027344 31.949219 1484.429688 31 1483.804688 30.070312 C 1483.183594 29.136719 1482.539062 28.21875 1481.871094 27.320312 C 1481.203125 26.417969 1480.515625 25.535156 1479.804688 24.667969 C 1479.09375 23.804688 1478.359375 22.953125 1477.609375 22.125 C 1476.855469 21.292969 1476.082031 20.480469 1475.289062 19.6875 C 1474.5 18.894531 1473.6875 18.125 1472.855469 17.371094 C 1472.027344 16.617188 1471.179688 15.886719 1470.3125 15.175781 C 1469.445312 14.464844 1468.5625 13.773438 1467.664062 13.105469 C 1466.761719 12.4375 1465.847656 11.792969 1464.914062 11.171875 C 1463.984375 10.546875 1463.035156 9.949219 1462.074219 9.371094 C 1461.113281 8.796875 1460.140625 8.242188 1459.152344 7.714844 C 1458.164062 7.1875 1457.164062 6.683594 1456.148438 6.203125 C 1455.136719 5.722656 1454.113281 5.269531 1453.078125 4.839844 C 1452.042969 4.410156 1450.996094 4.007812 1449.941406 3.628906 C 1448.886719 3.253906 1447.824219 2.902344 1446.75 2.574219 C 1445.679688 2.25 1444.597656 1.953125 1443.511719 1.679688 C 1442.425781 1.40625 1441.332031 1.160156 1440.234375 0.941406 C 1439.132812 0.722656 1438.03125 0.53125 1436.921875 0.367188 C 1435.8125 0.203125 1434.703125 0.0664062 1433.585938 -0.0429688 C 1432.472656 -0.152344 1431.355469 -0.234375 1430.234375 -0.292969 C 1429.117188 -0.347656 1427.996094 -0.375 1426.875 -0.375 Z M 1032.246094 -0.375 " fill-opacity="1" fill-rule="nonzero"/></g><g clip-path="url(#id2)"><path fill="#540b66" d="M 693.648438 447.816406 C 647.371094 600.304688 638.523438 721.476562 643.96875 812.019531 L 932.523438 812.019531 L 932.523438 -2.164062 L 640.566406 -2.164062 C 701.816406 97.90625 753.539062 250.398438 693.648438 447.816406 Z M 693.648438 447.816406 " fill-opacity="1" fill-rule="nonzero"/></g><g clip-path="url(#id3)"><path fill="#540b66" d="M 1567.824219 759.679688 L 1567.824219 113.320312 C 1567.824219 -10.582031 1467.027344 -111.40625 1343.167969 -111.40625 L 1022.21875 -111.40625 C 898.367188 -111.40625 797.5625 -10.582031 797.5625 113.320312 L 797.5625 759.679688 C 797.5625 883.578125 898.367188 984.40625 1022.21875 984.40625 L 1343.167969 984.40625 C 1467.027344 984.40625 1567.824219 883.578125 1567.824219 759.679688 Z M 1567.824219 759.679688 " fill-opacity="1" fill-rule="nonzero"/></g></svg>