<svg xmlns="http://www.w3.org/2000/svg" xmlns:xlink="http://www.w3.org/1999/xlink" width="1920" zoomAndPan="magnify" viewBox="0 0 1440 809.999993" height="1080" preserveAspectRatio="xMidYMid meet" version="1.0"><defs><clipPath id="id1"><path d="M 974.992188 0 L 1440 0 L 1440 810 L 974.992188 810 Z M 974.992188 0 " clip-rule="nonzero"/></clipPath><clipPath id="id2"><path d="M 733 313 L 1086 313 L 1086 810 L 733 810 Z M 733 313 " clip-rule="nonzero"/></clipPath><clipPath id="id3"><path d="M 957.046875 312.847656 L 1085.734375 874.285156 L 805.015625 938.632812 L 676.328125 377.191406 Z M 957.046875 312.847656 " clip-rule="nonzero"/></clipPath><clipPath id="id4"><path d="M 957.046875 312.847656 L 1085.734375 874.285156 L 805.015625 938.632812 L 676.328125 377.191406 Z M 957.046875 312.847656 " clip-rule="nonzero"/></clipPath><clipPath id="id5"><path d="M 790 0 L 1086 0 L 1086 457 L 790 457 Z M 790 0 " clip-rule="nonzero"/></clipPath><clipPath id="id6"><path d="M 1085.734375 -118.992188 L 1071.289062 456.824219 L 783.378906 449.601562 L 797.828125 -126.214844 Z M 1085.734375 -118.992188 " clip-rule="nonzero"/></clipPath><clipPath id="id7"><path d="M 1085.734375 -118.992188 L 1071.289062 456.824219 L 783.378906 449.601562 L 797.828125 -126.214844 Z M 1085.734375 -118.992188 " clip-rule="nonzero"/></clipPath></defs><rect x="-144" width="1728" fill="#ffffff" y="-80.999999" height="971.999992" fill-opacity="1"/><rect x="-144" width="1728" fill="#ffffff" y="-80.999999" height="971.999992" fill-opacity="1"/><rect x="-144" width="1728" fill="#ffffff" y="-80.999999" height="971.999992" fill-opacity="1"/><rect x="-144" width="1728" fill="#ffffff" y="-80.999999" height="971.999992" fill-opacity="1"/><path fill="#540b66" d="M 1050.953125 5.011719 L 1441.28125 5.011719 C 1442.457031 5.011719 1443.632812 5.039062 1444.804688 5.097656 C 1445.980469 5.15625 1447.152344 5.242188 1448.324219 5.355469 C 1449.492188 5.472656 1450.660156 5.617188 1451.820312 5.789062 C 1452.984375 5.960938 1454.140625 6.160156 1455.296875 6.390625 C 1456.449219 6.621094 1457.59375 6.878906 1458.734375 7.164062 C 1459.875 7.449219 1461.007812 7.761719 1462.132812 8.101562 C 1463.257812 8.445312 1464.375 8.8125 1465.480469 9.207031 C 1466.585938 9.605469 1467.683594 10.027344 1468.769531 10.476562 C 1469.855469 10.925781 1470.929688 11.402344 1471.992188 11.90625 C 1473.054688 12.40625 1474.105469 12.933594 1475.144531 13.488281 C 1476.179688 14.042969 1477.203125 14.621094 1478.210938 15.226562 C 1479.21875 15.828125 1480.210938 16.457031 1481.1875 17.109375 C 1482.167969 17.765625 1483.128906 18.441406 1484.070312 19.140625 C 1485.015625 19.839844 1485.941406 20.5625 1486.851562 21.308594 C 1487.761719 22.054688 1488.648438 22.820312 1489.519531 23.609375 C 1490.390625 24.398438 1491.242188 25.207031 1492.074219 26.039062 C 1492.90625 26.871094 1493.714844 27.722656 1494.503906 28.589844 C 1495.296875 29.460938 1496.0625 30.351562 1496.808594 31.257812 C 1497.554688 32.167969 1498.277344 33.09375 1498.976562 34.039062 C 1499.679688 34.980469 1500.355469 35.941406 1501.007812 36.917969 C 1501.660156 37.894531 1502.289062 38.886719 1502.894531 39.894531 C 1503.5 40.902344 1504.078125 41.925781 1504.632812 42.960938 C 1505.1875 43.996094 1505.714844 45.046875 1506.21875 46.109375 C 1506.71875 47.171875 1507.195312 48.246094 1507.644531 49.332031 C 1508.09375 50.417969 1508.519531 51.511719 1508.914062 52.617188 C 1509.3125 53.726562 1509.679688 54.839844 1510.019531 55.964844 C 1510.363281 57.089844 1510.675781 58.222656 1510.960938 59.359375 C 1511.246094 60.5 1511.503906 61.644531 1511.734375 62.796875 C 1511.960938 63.949219 1512.164062 65.109375 1512.335938 66.269531 C 1512.507812 67.433594 1512.652344 68.597656 1512.769531 69.769531 C 1512.882812 70.9375 1512.96875 72.109375 1513.027344 73.28125 C 1513.085938 74.457031 1513.113281 75.628906 1513.113281 76.804688 L 1513.113281 733.144531 C 1513.113281 734.320312 1513.085938 735.496094 1513.027344 736.667969 C 1512.96875 737.84375 1512.882812 739.011719 1512.769531 740.183594 C 1512.652344 741.351562 1512.507812 742.519531 1512.335938 743.679688 C 1512.164062 744.84375 1511.960938 746 1511.734375 747.152344 C 1511.503906 748.304688 1511.246094 749.449219 1510.960938 750.589844 C 1510.675781 751.730469 1510.363281 752.863281 1510.019531 753.984375 C 1509.679688 755.109375 1509.3125 756.226562 1508.914062 757.332031 C 1508.519531 758.4375 1508.09375 759.535156 1507.644531 760.621094 C 1507.195312 761.707031 1506.71875 762.777344 1506.21875 763.839844 C 1505.714844 764.902344 1505.1875 765.953125 1504.632812 766.988281 C 1504.078125 768.023438 1503.5 769.046875 1502.894531 770.054688 C 1502.289062 771.0625 1501.660156 772.054688 1501.007812 773.03125 C 1500.355469 774.007812 1499.679688 774.96875 1498.976562 775.914062 C 1498.277344 776.855469 1497.554688 777.78125 1496.808594 778.691406 C 1496.0625 779.597656 1495.296875 780.488281 1494.503906 781.359375 C 1493.714844 782.230469 1492.90625 783.082031 1492.074219 783.910156 C 1491.242188 784.742188 1490.390625 785.550781 1489.519531 786.339844 C 1488.648438 787.128906 1487.761719 787.898438 1486.851562 788.640625 C 1485.941406 789.386719 1485.015625 790.109375 1484.070312 790.808594 C 1483.128906 791.511719 1482.167969 792.1875 1481.1875 792.839844 C 1480.210938 793.492188 1479.21875 794.121094 1478.210938 794.726562 C 1477.203125 795.328125 1476.179688 795.90625 1475.144531 796.460938 C 1474.105469 797.015625 1473.054688 797.542969 1471.992188 798.046875 C 1470.929688 798.546875 1469.855469 799.023438 1468.769531 799.472656 C 1467.683594 799.921875 1466.585938 800.347656 1465.480469 800.742188 C 1464.375 801.136719 1463.257812 801.507812 1462.132812 801.847656 C 1461.007812 802.1875 1459.875 802.5 1458.734375 802.789062 C 1457.59375 803.074219 1456.449219 803.328125 1455.296875 803.558594 C 1454.140625 803.789062 1452.984375 803.988281 1451.820312 804.160156 C 1450.660156 804.335938 1449.492188 804.476562 1448.324219 804.59375 C 1447.152344 804.707031 1445.980469 804.792969 1444.804688 804.851562 C 1443.632812 804.910156 1442.457031 804.9375 1441.28125 804.9375 L 1050.953125 804.9375 C 1049.777344 804.9375 1048.605469 804.910156 1047.429688 804.851562 C 1046.253906 804.792969 1045.082031 804.707031 1043.914062 804.59375 C 1042.742188 804.476562 1041.578125 804.335938 1040.414062 804.160156 C 1039.25 803.988281 1038.09375 803.789062 1036.941406 803.558594 C 1035.789062 803.328125 1034.640625 803.074219 1033.5 802.789062 C 1032.359375 802.5 1031.226562 802.1875 1030.101562 801.847656 C 1028.976562 801.507812 1027.863281 801.136719 1026.753906 800.742188 C 1025.648438 800.347656 1024.550781 799.921875 1023.464844 799.472656 C 1022.378906 799.023438 1021.304688 798.546875 1020.242188 798.046875 C 1019.179688 797.542969 1018.128906 797.015625 1017.09375 796.460938 C 1016.054688 795.90625 1015.035156 795.328125 1014.023438 794.722656 C 1013.015625 794.121094 1012.023438 793.492188 1011.046875 792.839844 C 1010.070312 792.1875 1009.109375 791.511719 1008.164062 790.808594 C 1007.21875 790.109375 1006.292969 789.386719 1005.382812 788.640625 C 1004.476562 787.898438 1003.585938 787.128906 1002.714844 786.339844 C 1001.84375 785.550781 1000.992188 784.742188 1000.160156 783.910156 C 999.328125 783.082031 998.519531 782.230469 997.730469 781.359375 C 996.941406 780.488281 996.171875 779.597656 995.425781 778.691406 C 994.679688 777.78125 993.957031 776.855469 993.257812 775.914062 C 992.558594 774.96875 991.882812 774.007812 991.226562 773.03125 C 990.574219 772.054688 989.945312 771.0625 989.339844 770.054688 C 988.738281 769.046875 988.15625 768.023438 987.605469 766.988281 C 987.050781 765.953125 986.519531 764.902344 986.019531 763.839844 C 985.515625 762.777344 985.039062 761.707031 984.589844 760.621094 C 984.140625 759.535156 983.71875 758.4375 983.320312 757.332031 C 982.925781 756.226562 982.554688 755.109375 982.214844 753.984375 C 981.875 752.863281 981.558594 751.730469 981.273438 750.589844 C 980.988281 749.449219 980.730469 748.304688 980.503906 747.152344 C 980.273438 746 980.070312 744.84375 979.898438 743.679688 C 979.726562 742.519531 979.582031 741.351562 979.46875 740.183594 C 979.351562 739.011719 979.265625 737.84375 979.207031 736.667969 C 979.152344 735.496094 979.121094 734.320312 979.121094 733.144531 L 979.121094 76.804688 C 979.121094 75.628906 979.152344 74.457031 979.207031 73.28125 C 979.265625 72.109375 979.351562 70.9375 979.46875 69.769531 C 979.582031 68.597656 979.726562 67.433594 979.898438 66.269531 C 980.070312 65.109375 980.273438 63.949219 980.503906 62.796875 C 980.730469 61.644531 980.988281 60.5 981.273438 59.359375 C 981.558594 58.222656 981.875 57.089844 982.214844 55.964844 C 982.554688 54.839844 982.925781 53.726562 983.320312 52.617188 C 983.71875 51.511719 984.140625 50.417969 984.589844 49.332031 C 985.039062 48.246094 985.515625 47.171875 986.019531 46.109375 C 986.519531 45.046875 987.050781 43.996094 987.605469 42.960938 C 988.15625 41.925781 988.738281 40.902344 989.339844 39.894531 C 989.945312 38.886719 990.574219 37.894531 991.226562 36.917969 C 991.882812 35.941406 992.558594 34.980469 993.257812 34.039062 C 993.957031 33.09375 994.679688 32.167969 995.425781 31.257812 C 996.171875 30.351562 996.941406 29.460938 997.730469 28.589844 C 998.519531 27.722656 999.328125 26.871094 1000.160156 26.039062 C 1000.992188 25.207031 1001.84375 24.398438 1002.714844 23.609375 C 1003.585938 22.820312 1004.476562 22.054688 1005.382812 21.308594 C 1006.292969 20.5625 1007.21875 19.839844 1008.164062 19.140625 C 1009.109375 18.441406 1010.070312 17.765625 1011.046875 17.109375 C 1012.023438 16.457031 1013.015625 15.828125 1014.023438 15.226562 C 1015.035156 14.621094 1016.054688 14.042969 1017.09375 13.488281 C 1018.128906 12.933594 1019.179688 12.40625 1020.242188 11.90625 C 1021.304688 11.402344 1022.378906 10.925781 1023.464844 10.476562 C 1024.550781 10.027344 1025.648438 9.605469 1026.753906 9.207031 C 1027.863281 8.8125 1028.976562 8.445312 1030.101562 8.101562 C 1031.226562 7.761719 1032.359375 7.449219 1033.5 7.164062 C 1034.640625 6.878906 1035.789062 6.621094 1036.941406 6.390625 C 1038.09375 6.160156 1039.25 5.960938 1040.414062 5.789062 C 1041.578125 5.617188 1042.742188 5.472656 1043.914062 5.355469 C 1045.082031 5.242188 1046.253906 5.15625 1047.429688 5.097656 C 1048.605469 5.039062 1049.777344 5.011719 1050.953125 5.011719 Z M 1050.953125 5.011719 " fill-opacity="1" fill-rule="nonzero"/><g clip-path="url(#id1)"><path fill="#540b66" d="M 1441.28125 809.066406 L 1050.96875 809.066406 C 1049.726562 809.066406 1048.484375 809.035156 1047.242188 808.972656 C 1046 808.914062 1044.761719 808.820312 1043.523438 808.699219 C 1042.285156 808.578125 1041.050781 808.425781 1039.824219 808.242188 C 1038.59375 808.0625 1037.367188 807.847656 1036.148438 807.605469 C 1034.929688 807.363281 1033.714844 807.09375 1032.507812 806.789062 C 1031.304688 806.488281 1030.105469 806.15625 1028.914062 805.796875 C 1027.726562 805.433594 1026.546875 805.046875 1025.375 804.625 C 1024.203125 804.207031 1023.042969 803.761719 1021.894531 803.285156 C 1020.746094 802.808594 1019.609375 802.304688 1018.484375 801.773438 C 1017.363281 801.242188 1016.25 800.683594 1015.15625 800.097656 C 1014.058594 799.511719 1012.976562 798.902344 1011.910156 798.261719 C 1010.84375 797.625 1009.792969 796.957031 1008.757812 796.269531 C 1007.726562 795.578125 1006.710938 794.863281 1005.710938 794.121094 C 1004.710938 793.382812 1003.730469 792.617188 1002.769531 791.828125 C 1001.808594 791.039062 1000.867188 790.230469 999.945312 789.394531 C 999.027344 788.558594 998.125 787.703125 997.246094 786.824219 C 996.367188 785.945312 995.511719 785.046875 994.675781 784.125 C 993.839844 783.203125 993.027344 782.261719 992.238281 781.304688 C 991.449219 780.34375 990.683594 779.363281 989.945312 778.363281 C 989.203125 777.367188 988.488281 776.351562 987.796875 775.316406 C 987.105469 774.285156 986.441406 773.234375 985.800781 772.167969 C 985.164062 771.101562 984.550781 770.019531 983.964844 768.925781 C 983.378906 767.828125 982.820312 766.71875 982.289062 765.597656 C 981.753906 764.472656 981.253906 763.335938 980.777344 762.1875 C 980.300781 761.039062 979.851562 759.882812 979.433594 758.710938 C 979.015625 757.542969 978.625 756.363281 978.265625 755.171875 C 977.902344 753.984375 977.570312 752.785156 977.269531 751.582031 C 976.96875 750.375 976.695312 749.164062 976.453125 747.945312 C 976.210938 746.726562 975.996094 745.5 975.816406 744.269531 C 975.632812 743.042969 975.480469 741.808594 975.359375 740.574219 C 975.238281 739.335938 975.144531 738.097656 975.085938 736.855469 C 975.023438 735.613281 974.992188 734.371094 974.992188 733.128906 L 974.992188 76.820312 C 974.992188 75.578125 975.023438 74.335938 975.085938 73.09375 C 975.144531 71.855469 975.238281 70.613281 975.359375 69.378906 C 975.480469 68.140625 975.632812 66.910156 975.816406 65.679688 C 975.996094 64.449219 976.210938 63.226562 976.453125 62.007812 C 976.695312 60.789062 976.96875 59.574219 977.269531 58.371094 C 977.570312 57.164062 977.902344 55.96875 978.265625 54.777344 C 978.625 53.589844 979.015625 52.410156 979.433594 51.238281 C 979.851562 50.070312 980.300781 48.910156 980.777344 47.761719 C 981.253906 46.613281 981.753906 45.476562 982.289062 44.355469 C 982.820312 43.230469 983.378906 42.121094 983.964844 41.023438 C 984.550781 39.929688 985.164062 38.847656 985.800781 37.78125 C 986.441406 36.714844 987.105469 35.667969 987.796875 34.632812 C 988.488281 33.601562 989.203125 32.585938 989.945312 31.585938 C 990.683594 30.585938 991.449219 29.609375 992.238281 28.648438 C 993.027344 27.6875 993.839844 26.746094 994.675781 25.824219 C 995.511719 24.90625 996.367188 24.003906 997.246094 23.125 C 998.125 22.246094 999.027344 21.390625 999.945312 20.554688 C 1000.867188 19.722656 1001.808594 18.910156 1002.769531 18.121094 C 1003.730469 17.332031 1004.710938 16.570312 1005.710938 15.828125 C 1006.710938 15.089844 1007.726562 14.371094 1008.757812 13.683594 C 1009.792969 12.992188 1010.84375 12.328125 1011.910156 11.6875 C 1012.976562 11.050781 1014.058594 10.4375 1015.15625 9.851562 C 1016.25 9.265625 1017.363281 8.707031 1018.484375 8.175781 C 1019.609375 7.644531 1020.746094 7.140625 1021.894531 6.664062 C 1023.042969 6.1875 1024.203125 5.742188 1025.375 5.324219 C 1026.546875 4.90625 1027.726562 4.515625 1028.914062 4.15625 C 1030.105469 3.792969 1031.304688 3.460938 1032.507812 3.160156 C 1033.714844 2.859375 1034.929688 2.585938 1036.148438 2.34375 C 1037.367188 2.101562 1038.59375 1.890625 1039.824219 1.707031 C 1041.050781 1.523438 1042.285156 1.371094 1043.523438 1.25 C 1044.761719 1.128906 1046 1.035156 1047.242188 0.976562 C 1048.484375 0.914062 1049.726562 0.882812 1050.96875 0.882812 L 1441.28125 0.882812 C 1442.523438 0.882812 1443.769531 0.914062 1445.007812 0.976562 C 1446.25 1.035156 1447.492188 1.128906 1448.730469 1.25 C 1449.964844 1.371094 1451.199219 1.523438 1452.429688 1.707031 C 1453.660156 1.890625 1454.882812 2.101562 1456.105469 2.34375 C 1457.324219 2.585938 1458.535156 2.859375 1459.742188 3.160156 C 1460.949219 3.460938 1462.148438 3.792969 1463.335938 4.15625 C 1464.527344 4.515625 1465.707031 4.90625 1466.878906 5.324219 C 1468.046875 5.742188 1469.207031 6.1875 1470.355469 6.664062 C 1471.503906 7.140625 1472.640625 7.644531 1473.765625 8.175781 C 1474.890625 8.707031 1476 9.265625 1477.097656 9.851562 C 1478.195312 10.4375 1479.273438 11.050781 1480.34375 11.6875 C 1481.410156 12.328125 1482.457031 12.992188 1483.492188 13.683594 C 1484.527344 14.371094 1485.542969 15.089844 1486.542969 15.828125 C 1487.539062 16.570312 1488.519531 17.332031 1489.480469 18.121094 C 1490.441406 18.910156 1491.382812 19.722656 1492.304688 20.554688 C 1493.226562 21.390625 1494.125 22.246094 1495.007812 23.125 C 1495.886719 24.003906 1496.742188 24.90625 1497.578125 25.824219 C 1498.414062 26.746094 1499.222656 27.6875 1500.011719 28.648438 C 1500.800781 29.609375 1501.566406 30.585938 1502.308594 31.585938 C 1503.046875 32.585938 1503.765625 33.601562 1504.453125 34.632812 C 1505.144531 35.667969 1505.8125 36.714844 1506.449219 37.78125 C 1507.089844 38.847656 1507.703125 39.929688 1508.289062 41.023438 C 1508.875 42.121094 1509.433594 43.230469 1509.964844 44.355469 C 1510.496094 45.476562 1511 46.613281 1511.476562 47.761719 C 1511.953125 48.910156 1512.398438 50.070312 1512.816406 51.238281 C 1513.238281 52.410156 1513.625 53.589844 1513.988281 54.777344 C 1514.347656 55.96875 1514.679688 57.164062 1514.980469 58.371094 C 1515.285156 59.574219 1515.558594 60.789062 1515.800781 62.007812 C 1516.042969 63.226562 1516.253906 64.449219 1516.4375 65.679688 C 1516.621094 66.910156 1516.773438 68.140625 1516.894531 69.378906 C 1517.015625 70.613281 1517.105469 71.855469 1517.167969 73.09375 C 1517.230469 74.335938 1517.257812 75.578125 1517.257812 76.820312 L 1517.257812 733.144531 C 1517.257812 734.386719 1517.226562 735.628906 1517.167969 736.871094 C 1517.105469 738.113281 1517.015625 739.351562 1516.890625 740.585938 C 1516.769531 741.824219 1516.617188 743.058594 1516.433594 744.285156 C 1516.253906 745.515625 1516.039062 746.738281 1515.796875 747.957031 C 1515.554688 749.175781 1515.28125 750.386719 1514.980469 751.59375 C 1514.675781 752.800781 1514.34375 753.996094 1513.984375 755.183594 C 1513.621094 756.375 1513.234375 757.554688 1512.8125 758.722656 C 1512.394531 759.894531 1511.945312 761.050781 1511.472656 762.199219 C 1510.996094 763.347656 1510.492188 764.484375 1509.960938 765.605469 C 1509.429688 766.730469 1508.867188 767.839844 1508.28125 768.933594 C 1507.695312 770.03125 1507.082031 771.113281 1506.445312 772.175781 C 1505.804688 773.242188 1505.140625 774.292969 1504.449219 775.324219 C 1503.757812 776.359375 1503.042969 777.375 1502.300781 778.371094 C 1501.5625 779.371094 1500.796875 780.347656 1500.007812 781.308594 C 1499.21875 782.269531 1498.40625 783.210938 1497.570312 784.132812 C 1496.738281 785.050781 1495.878906 785.953125 1495 786.832031 C 1494.121094 787.707031 1493.21875 788.566406 1492.300781 789.398438 C 1491.378906 790.234375 1490.4375 791.046875 1489.476562 791.832031 C 1488.515625 792.621094 1487.535156 793.386719 1486.535156 794.125 C 1485.539062 794.867188 1484.519531 795.582031 1483.488281 796.273438 C 1482.453125 796.960938 1481.402344 797.625 1480.335938 798.265625 C 1479.269531 798.902344 1478.1875 799.515625 1477.09375 800.101562 C 1475.996094 800.6875 1474.886719 801.246094 1473.761719 801.777344 C 1472.636719 802.308594 1471.5 802.8125 1470.351562 803.285156 C 1469.203125 803.761719 1468.046875 804.210938 1466.875 804.628906 C 1465.703125 805.046875 1464.523438 805.4375 1463.332031 805.796875 C 1462.144531 806.15625 1460.945312 806.488281 1459.738281 806.789062 C 1458.535156 807.09375 1457.320312 807.363281 1456.101562 807.605469 C 1454.882812 807.847656 1453.65625 808.0625 1452.429688 808.246094 C 1451.199219 808.425781 1449.964844 808.578125 1448.726562 808.699219 C 1447.492188 808.820312 1446.25 808.914062 1445.007812 808.972656 C 1443.765625 809.035156 1442.523438 809.066406 1441.28125 809.066406 Z M 1050.96875 9.136719 C 1049.863281 9.136719 1048.753906 9.164062 1047.648438 9.21875 C 1046.539062 9.273438 1045.4375 9.355469 1044.332031 9.464844 C 1043.230469 9.574219 1042.128906 9.707031 1041.035156 9.871094 C 1039.9375 10.035156 1038.847656 10.222656 1037.757812 10.4375 C 1036.671875 10.65625 1035.589844 10.898438 1034.515625 11.167969 C 1033.441406 11.4375 1032.375 11.730469 1031.3125 12.054688 C 1030.253906 12.375 1029.199219 12.722656 1028.15625 13.09375 C 1027.113281 13.46875 1026.078125 13.867188 1025.054688 14.289062 C 1024.03125 14.714844 1023.019531 15.164062 1022.015625 15.636719 C 1021.015625 16.109375 1020.023438 16.609375 1019.046875 17.128906 C 1018.070312 17.652344 1017.105469 18.199219 1016.15625 18.769531 C 1015.207031 19.335938 1014.269531 19.929688 1013.347656 20.546875 C 1012.425781 21.160156 1011.519531 21.796875 1010.628906 22.457031 C 1009.738281 23.117188 1008.867188 23.800781 1008.011719 24.5 C 1007.152344 25.203125 1006.3125 25.929688 1005.492188 26.671875 C 1004.671875 27.414062 1003.871094 28.179688 1003.085938 28.960938 C 1002.300781 29.746094 1001.539062 30.546875 1000.792969 31.367188 C 1000.050781 32.1875 999.324219 33.027344 998.621094 33.882812 C 997.917969 34.738281 997.238281 35.613281 996.578125 36.503906 C 995.917969 37.390625 995.28125 38.296875 994.664062 39.21875 C 994.046875 40.140625 993.457031 41.074219 992.886719 42.027344 C 992.316406 42.976562 991.769531 43.9375 991.246094 44.914062 C 990.726562 45.894531 990.226562 46.882812 989.753906 47.882812 C 989.277344 48.882812 988.832031 49.898438 988.40625 50.921875 C 987.980469 51.945312 987.582031 52.976562 987.210938 54.019531 C 986.835938 55.0625 986.488281 56.113281 986.167969 57.175781 C 985.84375 58.234375 985.550781 59.300781 985.28125 60.375 C 985.011719 61.449219 984.769531 62.53125 984.550781 63.617188 C 984.335938 64.703125 984.148438 65.792969 983.984375 66.890625 C 983.820312 67.984375 983.6875 69.085938 983.578125 70.1875 C 983.46875 71.289062 983.386719 72.394531 983.332031 73.5 C 983.277344 74.605469 983.25 75.714844 983.25 76.820312 L 983.25 733.144531 C 983.25 734.253906 983.277344 735.359375 983.332031 736.464844 C 983.386719 737.574219 983.46875 738.675781 983.578125 739.78125 C 983.6875 740.882812 983.820312 741.980469 983.984375 743.078125 C 984.148438 744.171875 984.335938 745.261719 984.550781 746.351562 C 984.769531 747.4375 985.011719 748.515625 985.28125 749.589844 C 985.550781 750.664062 985.84375 751.734375 986.167969 752.792969 C 986.488281 753.851562 986.835938 754.902344 987.210938 755.945312 C 987.582031 756.988281 987.980469 758.023438 988.40625 759.046875 C 988.832031 760.070312 989.277344 761.082031 989.753906 762.082031 C 990.226562 763.085938 990.726562 764.074219 991.246094 765.050781 C 991.769531 766.027344 992.316406 766.992188 992.886719 767.941406 C 993.457031 768.890625 994.046875 769.828125 994.664062 770.746094 C 995.28125 771.667969 995.917969 772.574219 996.578125 773.464844 C 997.238281 774.355469 997.917969 775.226562 998.621094 776.082031 C 999.324219 776.9375 1000.050781 777.777344 1000.792969 778.597656 C 1001.539062 779.417969 1002.300781 780.222656 1003.085938 781.003906 C 1003.871094 781.789062 1004.671875 782.550781 1005.492188 783.296875 C 1006.3125 784.039062 1007.152344 784.761719 1008.011719 785.464844 C 1008.867188 786.167969 1009.738281 786.847656 1010.628906 787.507812 C 1011.519531 788.167969 1012.425781 788.804688 1013.347656 789.421875 C 1014.269531 790.035156 1015.207031 790.628906 1016.15625 791.199219 C 1017.105469 791.769531 1018.070312 792.3125 1019.046875 792.835938 C 1020.023438 793.359375 1021.015625 793.855469 1022.015625 794.328125 C 1023.019531 794.804688 1024.03125 795.253906 1025.054688 795.675781 C 1026.078125 796.101562 1027.113281 796.5 1028.15625 796.871094 C 1029.199219 797.246094 1030.253906 797.59375 1031.3125 797.914062 C 1032.375 798.234375 1033.441406 798.53125 1034.515625 798.800781 C 1035.589844 799.070312 1036.671875 799.3125 1037.757812 799.527344 C 1038.847656 799.742188 1039.9375 799.933594 1041.035156 800.09375 C 1042.128906 800.257812 1043.230469 800.394531 1044.332031 800.503906 C 1045.4375 800.609375 1046.539062 800.691406 1047.648438 800.746094 C 1048.753906 800.800781 1049.863281 800.828125 1050.96875 800.828125 L 1441.28125 800.828125 C 1442.390625 800.828125 1443.496094 800.800781 1444.605469 800.746094 C 1445.710938 800.691406 1446.816406 800.609375 1447.917969 800.503906 C 1449.023438 800.394531 1450.121094 800.257812 1451.21875 800.097656 C 1452.3125 799.933594 1453.40625 799.742188 1454.492188 799.527344 C 1455.578125 799.3125 1456.660156 799.070312 1457.734375 798.800781 C 1458.8125 798.53125 1459.878906 798.234375 1460.9375 797.914062 C 1462 797.59375 1463.050781 797.246094 1464.09375 796.871094 C 1465.140625 796.5 1466.171875 796.101562 1467.195312 795.675781 C 1468.21875 795.253906 1469.234375 794.804688 1470.234375 794.328125 C 1471.238281 793.855469 1472.226562 793.359375 1473.203125 792.835938 C 1474.183594 792.3125 1475.144531 791.769531 1476.097656 791.199219 C 1477.046875 790.628906 1477.984375 790.035156 1478.90625 789.421875 C 1479.824219 788.804688 1480.730469 788.167969 1481.621094 787.507812 C 1482.511719 786.847656 1483.386719 786.167969 1484.242188 785.464844 C 1485.097656 784.761719 1485.9375 784.039062 1486.757812 783.296875 C 1487.582031 782.550781 1488.382812 781.789062 1489.167969 781.003906 C 1489.949219 780.222656 1490.714844 779.417969 1491.457031 778.597656 C 1492.203125 777.777344 1492.925781 776.9375 1493.628906 776.082031 C 1494.332031 775.226562 1495.015625 774.355469 1495.675781 773.464844 C 1496.335938 772.574219 1496.972656 771.667969 1497.589844 770.746094 C 1498.203125 769.828125 1498.796875 768.890625 1499.367188 767.941406 C 1499.9375 766.992188 1500.480469 766.027344 1501.003906 765.050781 C 1501.527344 764.074219 1502.023438 763.085938 1502.5 762.082031 C 1502.972656 761.082031 1503.421875 760.070312 1503.847656 759.046875 C 1504.269531 758.023438 1504.667969 756.988281 1505.042969 755.945312 C 1505.414062 754.902344 1505.761719 753.851562 1506.085938 752.792969 C 1506.40625 751.734375 1506.703125 750.664062 1506.972656 749.589844 C 1507.242188 748.515625 1507.484375 747.4375 1507.699219 746.351562 C 1507.914062 745.261719 1508.105469 744.171875 1508.269531 743.078125 C 1508.429688 741.980469 1508.566406 740.882812 1508.675781 739.78125 C 1508.785156 738.675781 1508.863281 737.574219 1508.917969 736.464844 C 1508.972656 735.359375 1509 734.253906 1509 733.144531 L 1509 76.820312 C 1509 75.714844 1508.972656 74.605469 1508.917969 73.5 C 1508.863281 72.394531 1508.785156 71.289062 1508.675781 70.1875 C 1508.566406 69.085938 1508.429688 67.984375 1508.269531 66.890625 C 1508.105469 65.792969 1507.914062 64.703125 1507.699219 63.617188 C 1507.484375 62.53125 1507.242188 61.449219 1506.972656 60.375 C 1506.703125 59.300781 1506.40625 58.234375 1506.085938 57.175781 C 1505.761719 56.113281 1505.414062 55.0625 1505.042969 54.019531 C 1504.667969 52.976562 1504.269531 51.945312 1503.847656 50.921875 C 1503.421875 49.898438 1502.972656 48.882812 1502.5 47.882812 C 1502.023438 46.882812 1501.527344 45.894531 1501.003906 44.914062 C 1500.480469 43.9375 1499.9375 42.976562 1499.367188 42.027344 C 1498.796875 41.074219 1498.203125 40.140625 1497.589844 39.21875 C 1496.972656 38.296875 1496.335938 37.390625 1495.675781 36.503906 C 1495.015625 35.613281 1494.332031 34.738281 1493.628906 33.882812 C 1492.925781 33.027344 1492.203125 32.1875 1491.457031 31.367188 C 1490.714844 30.546875 1489.949219 29.746094 1489.167969 28.960938 C 1488.382812 28.179688 1487.582031 27.414062 1486.757812 26.671875 C 1485.9375 25.929688 1485.097656 25.203125 1484.242188 24.5 C 1483.386719 23.800781 1482.511719 23.117188 1481.621094 22.457031 C 1480.730469 21.796875 1479.824219 21.160156 1478.90625 20.546875 C 1477.984375 19.929688 1477.046875 19.335938 1476.097656 18.769531 C 1475.144531 18.199219 1474.183594 17.652344 1473.203125 17.128906 C 1472.226562 16.609375 1471.238281 16.109375 1470.234375 15.636719 C 1469.234375 15.164062 1468.21875 14.714844 1467.195312 14.289062 C 1466.171875 13.867188 1465.140625 13.46875 1464.09375 13.09375 C 1463.050781 12.722656 1462 12.375 1460.941406 12.054688 C 1459.878906 11.730469 1458.8125 11.4375 1457.734375 11.167969 C 1456.660156 10.898438 1455.578125 10.65625 1454.492188 10.4375 C 1453.40625 10.222656 1452.3125 10.035156 1451.21875 9.871094 C 1450.121094 9.707031 1449.023438 9.574219 1447.917969 9.464844 C 1446.816406 9.355469 1445.710938 9.273438 1444.605469 9.21875 C 1443.496094 9.164062 1442.390625 9.136719 1441.28125 9.136719 Z M 1050.96875 9.136719 " fill-opacity="1" fill-rule="nonzero"/></g><g clip-path="url(#id2)"><g clip-path="url(#id3)"><g clip-path="url(#id4)"><path fill="#540b66" d="M 1085.683594 874.050781 C 930.621094 909.589844 776.160156 812.734375 740.617188 657.675781 C 705.074219 502.613281 802.042969 348.625 957.101562 313.082031 Z M 1085.683594 874.050781 " fill-opacity="1" fill-rule="nonzero"/></g></g></g><g clip-path="url(#id5)"><g clip-path="url(#id6)"><g clip-path="url(#id7)"><path fill="#540b66" d="M 1071.296875 456.582031 C 912.265625 452.59375 786.621094 320.480469 790.609375 161.449219 C 794.597656 2.417969 926.699219 -122.738281 1085.730469 -118.75 Z M 1071.296875 456.582031 " fill-opacity="1" fill-rule="nonzero"/></g></g></g></svg>