<svg xmlns="http://www.w3.org/2000/svg" xmlns:xlink="http://www.w3.org/1999/xlink" width="500" zoomAndPan="magnify" viewBox="0 0 375 374.999991" height="500" preserveAspectRatio="xMidYMid meet" version="1.0"><defs><g/><clipPath id="id1"><path d="M 103.027344 144 L 114 144 L 114 151 L 103.027344 151 Z M 103.027344 144 " clip-rule="nonzero"/></clipPath><clipPath id="id2"><path d="M 138 90.484375 L 217 90.484375 L 217 146 L 138 146 Z M 138 90.484375 " clip-rule="nonzero"/></clipPath><clipPath id="id3"><path d="M 124 114 L 271.777344 114 L 271.777344 177 L 124 177 Z M 124 114 " clip-rule="nonzero"/></clipPath><clipPath id="id4"><path d="M 103.027344 144 L 114 144 L 114 151 L 103.027344 151 Z M 103.027344 144 " clip-rule="nonzero"/></clipPath><clipPath id="id5"><path d="M 161 168 L 182 168 L 182 187.234375 L 161 187.234375 Z M 161 168 " clip-rule="nonzero"/></clipPath><clipPath id="id6"><path d="M 222 168 L 243 168 L 243 187.234375 L 222 187.234375 Z M 222 168 " clip-rule="nonzero"/></clipPath></defs><g clip-path="url(#id1)"><path fill="#c48e3c" d="M 113.855469 147.238281 C 113.628906 145.515625 112.066406 144.128906 110.34375 144.128906 L 106.433594 144.128906 C 104.714844 144.128906 103.484375 145.515625 103.710938 147.238281 C 103.933594 148.960938 105.496094 150.347656 107.21875 150.347656 L 111.128906 150.347656 C 112.847656 150.347656 114.078125 148.960938 113.855469 147.238281 Z M 113.855469 147.238281 " fill-opacity="1" fill-rule="evenodd"/></g><g clip-path="url(#id2)"><path fill="#c48e3c" d="M 176.867188 90.484375 L 186.339844 111.289062 C 186.496094 111.644531 186.855469 111.890625 187.257812 111.9375 L 215.011719 114.175781 C 215.835938 114.242188 216.441406 113.390625 216.105469 112.609375 L 208.863281 96.726562 C 208.707031 96.390625 208.417969 96.167969 208.0625 96.097656 L 176.890625 90.484375 Z M 145.515625 96.726562 L 138.121094 112.5625 C 137.761719 113.347656 138.386719 114.21875 139.238281 114.128906 L 167.035156 111.308594 C 167.4375 111.265625 167.773438 111.019531 167.929688 110.660156 L 176.867188 90.484375 L 146.320312 96.097656 C 145.964844 96.167969 145.671875 96.390625 145.515625 96.726562 Z M 176.980469 107.285156 L 176.980469 139.542969 L 202.628906 134.664062 L 202.628906 118.960938 C 202.628906 118.3125 203.210938 117.796875 203.859375 117.863281 L 207.011719 118.355469 C 207.570312 118.425781 207.992188 118.894531 207.992188 119.453125 L 207.992188 137.707031 C 207.992188 138.222656 207.636719 138.667969 207.121094 138.78125 L 179.058594 144.820312 C 177.695312 145.113281 176.285156 145.113281 174.945312 144.820312 L 147.171875 138.980469 C 146.679688 138.871094 146.320312 138.445312 146.296875 137.929688 L 145.828125 119.386719 C 145.808594 118.804688 146.253906 118.3125 146.835938 118.269531 L 170.429688 116.1875 C 170.832031 116.140625 171.191406 115.894531 171.347656 115.515625 L 174.902344 106.882812 C 175.371094 105.761719 177.023438 106.097656 177.023438 107.304688 Z M 176.980469 107.285156 " fill-opacity="1" fill-rule="evenodd"/></g><g clip-path="url(#id3)"><path fill="#540b66" d="M 150.835938 157.035156 L 161.605469 157.035156 C 163.480469 157.035156 165.203125 158.554688 165.449219 160.457031 C 165.671875 162.335938 164.355469 163.859375 162.453125 163.859375 L 127.550781 163.859375 C 125.875 163.859375 124.714844 165.199219 124.914062 166.855469 C 125.117188 168.53125 126.636719 169.851562 128.289062 169.851562 L 146.65625 169.851562 L 146.746094 176.339844 L 158.65625 176.339844 C 159.570312 169.851562 165.492188 165.109375 172.0625 165.109375 C 178.609375 165.109375 184.21875 169.875 184.664062 176.339844 L 205.042969 176.339844 L 205.042969 176.273438 L 216.753906 176.273438 C 218.226562 176.273438 219.570312 175.402344 220.128906 174.101562 L 221.066406 171.957031 C 223.164062 167.101562 228.195312 163.878906 233.667969 163.878906 C 238.605469 163.878906 243.007812 166.542969 244.996094 170.746094 L 246.738281 174.417969 C 247.277344 175.558594 248.460938 176.273438 249.800781 176.273438 L 266.335938 176.273438 C 267.945312 176.273438 269.398438 175.242188 269.84375 173.765625 L 270.894531 170.410156 C 271.585938 168.152344 270.515625 165.847656 268.324219 164.910156 L 269.109375 150.90625 C 269.421875 145.402344 268.078125 139.988281 265.242188 135.292969 L 258.515625 125.203125 C 253.800781 118.109375 245.511719 113.90625 236.460938 114.015625 L 224.527344 114.152344 L 219.234375 114.175781 C 218.742188 116.097656 216.933594 117.597656 214.71875 117.417969 L 210.429688 117.082031 C 210.898438 117.777344 211.167969 118.601562 211.167969 119.476562 L 211.167969 137.730469 C 211.167969 139.765625 209.757812 141.511719 207.769531 141.957031 L 179.703125 147.996094 C 177.917969 148.378906 176.039062 148.398438 174.253906 148.019531 L 165.269531 146.140625 L 150.277344 146.230469 L 146.789062 146.253906 L 135.996094 146.320312 C 134.34375 146.320312 133.160156 147.660156 133.359375 149.316406 C 133.5625 150.972656 135.082031 152.316406 136.734375 152.316406 L 146.457031 152.316406 L 146.523438 157.078125 L 150.855469 157.078125 Z M 224.507812 136.320312 C 222.898438 135.984375 221.804688 134.621094 221.871094 133.054688 L 222.25 124.957031 C 222.339844 123.03125 224.105469 121.511719 226.117188 121.625 L 241.800781 122.382812 C 245.644531 122.5625 249.0625 124.554688 250.894531 127.707031 L 257.308594 138.757812 C 258.402344 140.636719 256.527344 142.941406 254.292969 142.496094 L 224.507812 136.363281 Z M 224.507812 136.320312 " fill-opacity="1" fill-rule="evenodd"/></g><path fill="#c48e3c" d="M 139.28125 132.046875 C 139.484375 133.703125 141.003906 135.046875 142.65625 135.046875 L 142.96875 135.046875 L 142.8125 129.027344 L 141.917969 129.027344 C 140.265625 129.027344 139.082031 130.371094 139.28125 132.023438 Z M 139.28125 132.046875 " fill-opacity="1" fill-rule="evenodd"/><path fill="#c48e3c" d="M 132.3125 128.355469 C 134.03125 128.355469 135.261719 126.96875 135.035156 125.246094 C 134.8125 123.523438 133.25 122.136719 131.527344 122.136719 L 127.597656 122.136719 C 125.875 122.136719 124.644531 123.523438 124.871094 125.246094 C 125.09375 126.96875 126.65625 128.355469 128.378906 128.355469 Z M 132.3125 128.355469 " fill-opacity="1" fill-rule="evenodd"/><path fill="#c48e3c" d="M 126.65625 136.925781 L 122.726562 136.925781 C 121.003906 136.925781 119.773438 138.3125 120 140.035156 C 120.222656 141.757812 121.785156 143.144531 123.507812 143.144531 L 127.441406 143.144531 C 129.160156 143.144531 130.390625 141.757812 130.164062 140.035156 C 129.941406 138.3125 128.378906 136.925781 126.65625 136.925781 Z M 126.65625 136.925781 " fill-opacity="1" fill-rule="evenodd"/><g clip-path="url(#id4)"><path fill="#c48e3c" d="M 113.855469 147.238281 C 113.628906 145.515625 112.066406 144.128906 110.34375 144.128906 L 106.433594 144.128906 C 104.714844 144.128906 103.484375 145.515625 103.710938 147.238281 C 103.933594 148.960938 105.496094 150.347656 107.21875 150.347656 L 111.128906 150.347656 C 112.847656 150.347656 114.078125 148.960938 113.855469 147.238281 Z M 113.855469 147.238281 " fill-opacity="1" fill-rule="evenodd"/></g><path fill="#c48e3c" d="M 116.9375 156.273438 L 113.003906 156.273438 C 111.285156 156.273438 110.054688 157.660156 110.277344 159.382812 C 110.5 161.105469 112.066406 162.492188 113.785156 162.492188 L 117.71875 162.492188 C 119.441406 162.492188 120.667969 161.105469 120.445312 159.382812 C 120.222656 157.660156 118.65625 156.273438 116.9375 156.273438 Z M 116.9375 156.273438 " fill-opacity="1" fill-rule="evenodd"/><path fill="#c48e3c" d="M 132.800781 173.230469 L 128.871094 173.230469 C 127.148438 173.230469 125.921875 174.617188 126.144531 176.339844 C 126.367188 178.0625 127.929688 179.449219 129.652344 179.449219 L 133.585938 179.449219 C 135.304688 179.449219 136.535156 178.0625 136.308594 176.339844 C 136.085938 174.617188 134.523438 173.230469 132.800781 173.230469 Z M 132.800781 173.230469 " fill-opacity="1" fill-rule="evenodd"/><g clip-path="url(#id5)"><path fill="#540b66" d="M 172.085938 168.039062 C 166.476562 168.039062 161.738281 172.335938 161.492188 177.636719 C 161.246094 182.9375 165.582031 187.234375 171.191406 187.234375 C 176.800781 187.234375 181.535156 182.9375 181.78125 177.636719 C 182.027344 172.335938 177.695312 168.039062 172.085938 168.039062 Z M 172.085938 168.039062 " fill-opacity="1" fill-rule="evenodd"/></g><g clip-path="url(#id6)"><path fill="#540b66" d="M 233.199219 168.039062 C 227.589844 168.039062 222.851562 172.335938 222.605469 177.636719 C 222.363281 182.9375 226.695312 187.234375 232.304688 187.234375 C 237.914062 187.234375 242.652344 182.9375 242.898438 177.636719 C 243.140625 172.335938 238.808594 168.039062 233.199219 168.039062 Z M 233.199219 168.039062 " fill-opacity="1" fill-rule="evenodd"/></g><g fill="#540b66" fill-opacity="1"><g transform="translate(55.330078, 245.193382)"><g><path d="M 2.671875 0 C 2.359375 0 2.113281 -0.09375 1.9375 -0.28125 C 1.769531 -0.476562 1.703125 -0.734375 1.734375 -1.046875 L 6.5 -39.5625 C 6.53125 -39.863281 6.648438 -40.109375 6.859375 -40.296875 C 7.078125 -40.492188 7.34375 -40.59375 7.65625 -40.59375 L 21.640625 -40.59375 C 25.734375 -40.59375 28.988281 -39.597656 31.40625 -37.609375 C 33.820312 -35.617188 35.03125 -32.941406 35.03125 -29.578125 C 35.03125 -29.234375 34.992188 -28.671875 34.921875 -27.890625 L 33.0625 -12.703125 C 32.75 -10.191406 31.859375 -7.96875 30.390625 -6.03125 C 28.921875 -4.09375 26.992188 -2.601562 24.609375 -1.5625 C 22.234375 -0.519531 19.578125 0 16.640625 0 Z M 12 -8.640625 C 12 -8.367188 12.117188 -8.234375 12.359375 -8.234375 L 18.03125 -8.234375 C 19.539062 -8.234375 20.835938 -8.785156 21.921875 -9.890625 C 23.003906 -10.992188 23.679688 -12.472656 23.953125 -14.328125 L 25.40625 -26.28125 C 25.445312 -26.550781 25.46875 -26.914062 25.46875 -27.375 C 25.46875 -28.925781 25.0625 -30.144531 24.25 -31.03125 C 23.4375 -31.914062 22.332031 -32.359375 20.9375 -32.359375 L 15.3125 -32.359375 C 15.238281 -32.359375 15.148438 -32.316406 15.046875 -32.234375 C 14.953125 -32.160156 14.90625 -32.066406 14.90625 -31.953125 Z M 12 -8.640625 "/></g></g></g><g fill="#540b66" fill-opacity="1"><g transform="translate(90.069772, 245.193382)"><g><path d="M 10.265625 -31.953125 C 8.796875 -31.953125 7.613281 -32.382812 6.71875 -33.25 C 5.832031 -34.125 5.390625 -35.28125 5.390625 -36.71875 C 5.390625 -38.53125 5.976562 -40.023438 7.15625 -41.203125 C 8.34375 -42.390625 9.84375 -42.984375 11.65625 -42.984375 C 13.164062 -42.984375 14.351562 -42.566406 15.21875 -41.734375 C 16.09375 -40.898438 16.53125 -39.785156 16.53125 -38.390625 C 16.53125 -36.492188 15.9375 -34.945312 14.75 -33.75 C 13.570312 -32.550781 12.078125 -31.953125 10.265625 -31.953125 Z M 2.71875 0 C 2.414062 0 2.175781 -0.09375 2 -0.28125 C 1.820312 -0.476562 1.753906 -0.734375 1.796875 -1.046875 L 5.21875 -28.9375 C 5.332031 -29.632812 5.71875 -29.984375 6.375 -29.984375 L 13.6875 -29.984375 C 14 -29.984375 14.226562 -29.882812 14.375 -29.6875 C 14.53125 -29.5 14.59375 -29.25 14.5625 -28.9375 L 11.140625 -1.046875 C 11.097656 -0.734375 10.976562 -0.476562 10.78125 -0.28125 C 10.59375 -0.09375 10.34375 0 10.03125 0 Z M 2.71875 0 "/></g></g></g><g fill="#540b66" fill-opacity="1"><g transform="translate(104.974785, 245.193382)"><g><path d="M 21.40625 -30.453125 C 24.070312 -30.453125 26.195312 -29.664062 27.78125 -28.09375 C 29.363281 -26.53125 30.15625 -24.359375 30.15625 -21.578125 C 30.15625 -21.222656 30.117188 -20.625 30.046875 -19.78125 L 27.71875 -1.046875 C 27.6875 -0.734375 27.570312 -0.476562 27.375 -0.28125 C 27.1875 -0.09375 26.9375 0 26.625 0 L 19.3125 0 C 19 0 18.753906 -0.09375 18.578125 -0.28125 C 18.410156 -0.476562 18.347656 -0.734375 18.390625 -1.046875 L 20.46875 -17.6875 L 20.53125 -18.4375 C 20.53125 -19.5625 20.226562 -20.472656 19.625 -21.171875 C 19.03125 -21.867188 18.210938 -22.21875 17.171875 -22.21875 C 16.046875 -22.21875 15.066406 -21.800781 14.234375 -20.96875 C 13.398438 -20.132812 12.910156 -19.039062 12.765625 -17.6875 L 10.734375 -1.046875 C 10.617188 -0.347656 10.226562 0 9.5625 0 L 2.265625 0 C 1.953125 0 1.71875 -0.09375 1.5625 -0.28125 C 1.40625 -0.476562 1.347656 -0.734375 1.390625 -1.046875 L 4.8125 -28.9375 C 4.851562 -29.25 4.96875 -29.5 5.15625 -29.6875 C 5.351562 -29.882812 5.609375 -29.984375 5.921875 -29.984375 L 13.21875 -29.984375 C 13.53125 -29.984375 13.769531 -29.882812 13.9375 -29.6875 C 14.113281 -29.5 14.1875 -29.25 14.15625 -28.9375 L 13.921875 -27.3125 C 13.878906 -27.125 13.90625 -27.007812 14 -26.96875 C 14.101562 -26.925781 14.210938 -26.984375 14.328125 -27.140625 C 16.066406 -29.347656 18.425781 -30.453125 21.40625 -30.453125 Z M 21.40625 -30.453125 "/></g></g></g><g fill="#540b66" fill-opacity="1"><g transform="translate(135.944727, 245.193382)"><g><path d="M 22.453125 -28.9375 C 22.566406 -29.632812 22.953125 -29.984375 23.609375 -29.984375 L 30.90625 -29.984375 C 31.21875 -29.984375 31.453125 -29.882812 31.609375 -29.6875 C 31.765625 -29.5 31.820312 -29.25 31.78125 -28.9375 L 28.65625 -3.359375 C 28 1.929688 26.046875 5.71875 22.796875 8 C 19.546875 10.28125 15.660156 11.421875 11.140625 11.421875 C 9.671875 11.421875 8.023438 11.285156 6.203125 11.015625 C 5.546875 10.898438 5.296875 10.515625 5.453125 9.859375 L 6.5 3.421875 C 6.65625 2.679688 7.078125 2.375 7.765625 2.5 C 9.203125 2.800781 10.5 2.953125 11.65625 2.953125 C 13.78125 2.953125 15.519531 2.445312 16.875 1.4375 C 18.226562 0.4375 19.039062 -1.144531 19.3125 -3.3125 L 18.625 -2.71875 C 17.226562 -1.445312 15.273438 -0.8125 12.765625 -0.8125 C 10.285156 -0.8125 8.078125 -1.367188 6.140625 -2.484375 C 4.210938 -3.609375 2.976562 -5.582031 2.4375 -8.40625 C 2.238281 -9.300781 2.140625 -10.382812 2.140625 -11.65625 C 2.140625 -12.582031 2.21875 -13.78125 2.375 -15.25 C 2.726562 -18.113281 3.382812 -20.550781 4.34375 -22.5625 C 5.507812 -24.957031 7.125 -26.867188 9.1875 -28.296875 C 11.257812 -29.734375 13.550781 -30.453125 16.0625 -30.453125 C 18.695312 -30.453125 20.648438 -29.660156 21.921875 -28.078125 C 22.003906 -27.921875 22.09375 -27.859375 22.1875 -27.890625 C 22.28125 -27.929688 22.347656 -28.050781 22.390625 -28.25 Z M 19.71875 -10.96875 C 20.1875 -11.894531 20.535156 -13.34375 20.765625 -15.3125 C 20.921875 -16.625 21 -17.394531 21 -17.625 C 21 -18.207031 20.898438 -18.828125 20.703125 -19.484375 C 20.515625 -20.335938 20.128906 -21.003906 19.546875 -21.484375 C 18.960938 -21.972656 18.1875 -22.21875 17.21875 -22.21875 C 15.476562 -22.21875 14.128906 -21.304688 13.171875 -19.484375 C 12.429688 -18.398438 11.96875 -16.972656 11.78125 -15.203125 C 11.695312 -14.734375 11.65625 -14.09375 11.65625 -13.28125 C 11.65625 -12.351562 11.769531 -11.597656 12 -11.015625 C 12.195312 -10.203125 12.601562 -9.546875 13.21875 -9.046875 C 13.84375 -8.546875 14.640625 -8.296875 15.609375 -8.296875 C 17.492188 -8.296875 18.863281 -9.1875 19.71875 -10.96875 Z M 19.71875 -10.96875 "/></g></g></g><g fill="#540b66" fill-opacity="1"><g transform="translate(167.61063, 245.193382)"><g><path d="M 2.84375 -12.703125 C 2.53125 -12.703125 2.296875 -12.796875 2.140625 -12.984375 C 1.984375 -13.179688 1.925781 -13.4375 1.96875 -13.75 L 2.71875 -19.890625 C 2.757812 -20.203125 2.882812 -20.453125 3.09375 -20.640625 C 3.3125 -20.835938 3.578125 -20.9375 3.890625 -20.9375 L 22.328125 -20.9375 C 22.640625 -20.9375 22.875 -20.835938 23.03125 -20.640625 C 23.1875 -20.453125 23.242188 -20.203125 23.203125 -19.890625 L 22.453125 -13.75 C 22.410156 -13.4375 22.28125 -13.179688 22.0625 -12.984375 C 21.851562 -12.796875 21.59375 -12.703125 21.28125 -12.703125 Z M 2.84375 -12.703125 "/></g></g></g><g fill="#540b66" fill-opacity="1"><g transform="translate(190.925082, 245.193382)"><g><path d="M 2.671875 0 C 2.359375 0 2.113281 -0.09375 1.9375 -0.28125 C 1.769531 -0.476562 1.703125 -0.734375 1.734375 -1.046875 L 6.5 -39.5625 C 6.53125 -39.863281 6.648438 -40.109375 6.859375 -40.296875 C 7.078125 -40.492188 7.34375 -40.59375 7.65625 -40.59375 L 21.640625 -40.59375 C 25.734375 -40.59375 28.988281 -39.597656 31.40625 -37.609375 C 33.820312 -35.617188 35.03125 -32.941406 35.03125 -29.578125 C 35.03125 -29.234375 34.992188 -28.671875 34.921875 -27.890625 L 33.0625 -12.703125 C 32.75 -10.191406 31.859375 -7.96875 30.390625 -6.03125 C 28.921875 -4.09375 26.992188 -2.601562 24.609375 -1.5625 C 22.234375 -0.519531 19.578125 0 16.640625 0 Z M 12 -8.640625 C 12 -8.367188 12.117188 -8.234375 12.359375 -8.234375 L 18.03125 -8.234375 C 19.539062 -8.234375 20.835938 -8.785156 21.921875 -9.890625 C 23.003906 -10.992188 23.679688 -12.472656 23.953125 -14.328125 L 25.40625 -26.28125 C 25.445312 -26.550781 25.46875 -26.914062 25.46875 -27.375 C 25.46875 -28.925781 25.0625 -30.144531 24.25 -31.03125 C 23.4375 -31.914062 22.332031 -32.359375 20.9375 -32.359375 L 15.3125 -32.359375 C 15.238281 -32.359375 15.148438 -32.316406 15.046875 -32.234375 C 14.953125 -32.160156 14.90625 -32.066406 14.90625 -31.953125 Z M 12 -8.640625 "/></g></g></g><g fill="#540b66" fill-opacity="1"><g transform="translate(225.664776, 245.193382)"><g><path d="M 14.5 0.46875 C 11.132812 0.46875 8.390625 -0.457031 6.265625 -2.3125 C 4.140625 -4.175781 2.863281 -6.691406 2.4375 -9.859375 C 2.320312 -10.671875 2.265625 -11.503906 2.265625 -12.359375 C 2.265625 -13.242188 2.320312 -14.148438 2.4375 -15.078125 C 2.664062 -16.929688 3.128906 -18.804688 3.828125 -20.703125 C 5.097656 -23.753906 7.007812 -26.140625 9.5625 -27.859375 C 12.113281 -29.585938 15.054688 -30.453125 18.390625 -30.453125 C 21.671875 -30.453125 24.351562 -29.585938 26.4375 -27.859375 C 28.53125 -26.140625 29.828125 -23.773438 30.328125 -20.765625 C 30.484375 -19.878906 30.5625 -18.832031 30.5625 -17.625 C 30.5625 -16.550781 30.523438 -15.742188 30.453125 -15.203125 C 30.222656 -13.265625 29.796875 -11.5625 29.171875 -10.09375 C 28.015625 -6.84375 26.140625 -4.269531 23.546875 -2.375 C 20.953125 -0.476562 17.9375 0.46875 14.5 0.46875 Z M 15.546875 -7.765625 C 16.628906 -7.765625 17.578125 -8.125 18.390625 -8.84375 C 19.203125 -9.5625 19.835938 -10.539062 20.296875 -11.78125 C 20.609375 -12.625 20.859375 -13.722656 21.046875 -15.078125 C 21.128906 -15.929688 21.171875 -16.53125 21.171875 -16.875 C 21.171875 -18.539062 20.847656 -19.847656 20.203125 -20.796875 C 19.566406 -21.742188 18.59375 -22.21875 17.28125 -22.21875 C 15.082031 -22.21875 13.535156 -20.957031 12.640625 -18.4375 C 12.210938 -17.476562 11.941406 -16.359375 11.828125 -15.078125 C 11.710938 -14.347656 11.65625 -13.632812 11.65625 -12.9375 C 11.65625 -11.382812 11.984375 -10.132812 12.640625 -9.1875 C 13.296875 -8.238281 14.265625 -7.765625 15.546875 -7.765625 Z M 15.546875 -7.765625 "/></g></g></g><g fill="#540b66" fill-opacity="1"><g transform="translate(257.040697, 245.193382)"><g><path d="M 21.40625 -30.453125 C 24.070312 -30.453125 26.195312 -29.664062 27.78125 -28.09375 C 29.363281 -26.53125 30.15625 -24.359375 30.15625 -21.578125 C 30.15625 -21.222656 30.117188 -20.625 30.046875 -19.78125 L 27.71875 -1.046875 C 27.6875 -0.734375 27.570312 -0.476562 27.375 -0.28125 C 27.1875 -0.09375 26.9375 0 26.625 0 L 19.3125 0 C 19 0 18.753906 -0.09375 18.578125 -0.28125 C 18.410156 -0.476562 18.347656 -0.734375 18.390625 -1.046875 L 20.46875 -17.6875 L 20.53125 -18.4375 C 20.53125 -19.5625 20.226562 -20.472656 19.625 -21.171875 C 19.03125 -21.867188 18.210938 -22.21875 17.171875 -22.21875 C 16.046875 -22.21875 15.066406 -21.800781 14.234375 -20.96875 C 13.398438 -20.132812 12.910156 -19.039062 12.765625 -17.6875 L 10.734375 -1.046875 C 10.617188 -0.347656 10.226562 0 9.5625 0 L 2.265625 0 C 1.953125 0 1.71875 -0.09375 1.5625 -0.28125 C 1.40625 -0.476562 1.347656 -0.734375 1.390625 -1.046875 L 4.8125 -28.9375 C 4.851562 -29.25 4.96875 -29.5 5.15625 -29.6875 C 5.351562 -29.882812 5.609375 -29.984375 5.921875 -29.984375 L 13.21875 -29.984375 C 13.53125 -29.984375 13.769531 -29.882812 13.9375 -29.6875 C 14.113281 -29.5 14.1875 -29.25 14.15625 -28.9375 L 13.921875 -27.3125 C 13.878906 -27.125 13.90625 -27.007812 14 -26.96875 C 14.101562 -26.925781 14.210938 -26.984375 14.328125 -27.140625 C 16.066406 -29.347656 18.425781 -30.453125 21.40625 -30.453125 Z M 21.40625 -30.453125 "/></g></g></g><g fill="#540b66" fill-opacity="1"><g transform="translate(288.010651, 245.193382)"><g><path d="M 22.453125 -28.9375 C 22.566406 -29.632812 22.953125 -29.984375 23.609375 -29.984375 L 30.90625 -29.984375 C 31.21875 -29.984375 31.453125 -29.882812 31.609375 -29.6875 C 31.765625 -29.5 31.820312 -29.25 31.78125 -28.9375 L 28.65625 -3.359375 C 28 1.929688 26.046875 5.71875 22.796875 8 C 19.546875 10.28125 15.660156 11.421875 11.140625 11.421875 C 9.671875 11.421875 8.023438 11.285156 6.203125 11.015625 C 5.546875 10.898438 5.296875 10.515625 5.453125 9.859375 L 6.5 3.421875 C 6.65625 2.679688 7.078125 2.375 7.765625 2.5 C 9.203125 2.800781 10.5 2.953125 11.65625 2.953125 C 13.78125 2.953125 15.519531 2.445312 16.875 1.4375 C 18.226562 0.4375 19.039062 -1.144531 19.3125 -3.3125 L 18.625 -2.71875 C 17.226562 -1.445312 15.273438 -0.8125 12.765625 -0.8125 C 10.285156 -0.8125 8.078125 -1.367188 6.140625 -2.484375 C 4.210938 -3.609375 2.976562 -5.582031 2.4375 -8.40625 C 2.238281 -9.300781 2.140625 -10.382812 2.140625 -11.65625 C 2.140625 -12.582031 2.21875 -13.78125 2.375 -15.25 C 2.726562 -18.113281 3.382812 -20.550781 4.34375 -22.5625 C 5.507812 -24.957031 7.125 -26.867188 9.1875 -28.296875 C 11.257812 -29.734375 13.550781 -30.453125 16.0625 -30.453125 C 18.695312 -30.453125 20.648438 -29.660156 21.921875 -28.078125 C 22.003906 -27.921875 22.09375 -27.859375 22.1875 -27.890625 C 22.28125 -27.929688 22.347656 -28.050781 22.390625 -28.25 Z M 19.71875 -10.96875 C 20.1875 -11.894531 20.535156 -13.34375 20.765625 -15.3125 C 20.921875 -16.625 21 -17.394531 21 -17.625 C 21 -18.207031 20.898438 -18.828125 20.703125 -19.484375 C 20.515625 -20.335938 20.128906 -21.003906 19.546875 -21.484375 C 18.960938 -21.972656 18.1875 -22.21875 17.21875 -22.21875 C 15.476562 -22.21875 14.128906 -21.304688 13.171875 -19.484375 C 12.429688 -18.398438 11.96875 -16.972656 11.78125 -15.203125 C 11.695312 -14.734375 11.65625 -14.09375 11.65625 -13.28125 C 11.65625 -12.351562 11.769531 -11.597656 12 -11.015625 C 12.195312 -10.203125 12.601562 -9.546875 13.21875 -9.046875 C 13.84375 -8.546875 14.640625 -8.296875 15.609375 -8.296875 C 17.492188 -8.296875 18.863281 -9.1875 19.71875 -10.96875 Z M 19.71875 -10.96875 "/></g></g></g><g fill="#540b66" fill-opacity="1"><g transform="translate(111.566929, 284.292111)"><g><path d="M 8.765625 -9.203125 C 8.753906 -9.128906 8.726562 -9.070312 8.6875 -9.03125 C 8.644531 -8.988281 8.582031 -8.96875 8.5 -8.96875 L 3.625 -8.96875 C 3.570312 -8.96875 3.546875 -8.9375 3.546875 -8.875 L 3.203125 -6.109375 C 3.203125 -6.046875 3.222656 -6.015625 3.265625 -6.015625 L 6.53125 -6.015625 C 6.59375 -6.015625 6.640625 -5.992188 6.671875 -5.953125 C 6.710938 -5.910156 6.726562 -5.851562 6.71875 -5.78125 L 6.609375 -4.765625 C 6.578125 -4.609375 6.484375 -4.53125 6.328125 -4.53125 L 3.09375 -4.53125 C 3.039062 -4.53125 3.003906 -4.5 2.984375 -4.4375 L 2.640625 -1.578125 C 2.640625 -1.523438 2.664062 -1.5 2.71875 -1.5 L 7.59375 -1.5 C 7.75 -1.5 7.816406 -1.414062 7.796875 -1.25 L 7.65625 -0.234375 C 7.644531 -0.171875 7.617188 -0.113281 7.578125 -0.0625 C 7.535156 -0.0195312 7.476562 0 7.40625 0 L 1 0 C 0.84375 0 0.773438 -0.078125 0.796875 -0.234375 L 2.015625 -10.21875 C 2.046875 -10.375 2.132812 -10.453125 2.28125 -10.453125 L 8.6875 -10.453125 C 8.757812 -10.453125 8.8125 -10.429688 8.84375 -10.390625 C 8.882812 -10.347656 8.898438 -10.289062 8.890625 -10.21875 Z M 8.765625 -9.203125 "/></g></g></g><g fill="#540b66" fill-opacity="1"><g transform="translate(123.722455, 284.292111)"><g><path d="M 0.84375 0 C 0.78125 0 0.726562 -0.0195312 0.6875 -0.0625 C 0.65625 -0.113281 0.644531 -0.171875 0.65625 -0.234375 L 1.875 -10.21875 C 1.894531 -10.375 1.984375 -10.453125 2.140625 -10.453125 L 3.359375 -10.453125 C 3.429688 -10.453125 3.484375 -10.429688 3.515625 -10.390625 C 3.546875 -10.347656 3.5625 -10.289062 3.5625 -10.21875 L 2.328125 -0.234375 C 2.316406 -0.171875 2.289062 -0.113281 2.25 -0.0625 C 2.207031 -0.0195312 2.148438 0 2.078125 0 Z M 0.84375 0 "/></g></g></g><g fill="#540b66" fill-opacity="1"><g transform="translate(130.831731, 284.292111)"><g/></g></g><g fill="#540b66" fill-opacity="1"><g transform="translate(137.313965, 284.292111)"><g><path d="M 4.296875 0.125 C 3.304688 0.125 2.519531 -0.144531 1.9375 -0.6875 C 1.351562 -1.238281 1.0625 -1.972656 1.0625 -2.890625 C 1.0625 -2.984375 1.070312 -3.148438 1.09375 -3.390625 L 1.9375 -10.21875 C 1.957031 -10.375 2.046875 -10.453125 2.203125 -10.453125 L 3.421875 -10.453125 C 3.492188 -10.453125 3.546875 -10.429688 3.578125 -10.390625 C 3.609375 -10.347656 3.617188 -10.289062 3.609375 -10.21875 L 2.78125 -3.359375 C 2.769531 -3.285156 2.765625 -3.179688 2.765625 -3.046875 C 2.765625 -2.535156 2.914062 -2.128906 3.21875 -1.828125 C 3.53125 -1.523438 3.953125 -1.375 4.484375 -1.375 C 5.066406 -1.375 5.5625 -1.554688 5.96875 -1.921875 C 6.375 -2.296875 6.613281 -2.773438 6.6875 -3.359375 L 7.53125 -10.21875 C 7.539062 -10.289062 7.566406 -10.347656 7.609375 -10.390625 C 7.648438 -10.429688 7.707031 -10.453125 7.78125 -10.453125 L 9 -10.453125 C 9.164062 -10.453125 9.238281 -10.375 9.21875 -10.21875 L 8.359375 -3.390625 C 8.285156 -2.691406 8.0625 -2.078125 7.6875 -1.546875 C 7.320312 -1.015625 6.847656 -0.601562 6.265625 -0.3125 C 5.679688 -0.0195312 5.023438 0.125 4.296875 0.125 Z M 4.96875 -11.59375 C 4.851562 -11.59375 4.796875 -11.640625 4.796875 -11.734375 C 4.796875 -11.785156 4.804688 -11.832031 4.828125 -11.875 L 5.765625 -13.296875 C 5.835938 -13.398438 5.9375 -13.453125 6.0625 -13.453125 L 7.203125 -13.453125 C 7.316406 -13.453125 7.375 -13.414062 7.375 -13.34375 C 7.375 -13.28125 7.351562 -13.222656 7.3125 -13.171875 L 6.203125 -11.734375 C 6.140625 -11.640625 6.039062 -11.59375 5.90625 -11.59375 Z M 4.96875 -11.59375 "/></g></g></g><g fill="#540b66" fill-opacity="1"><g transform="translate(150.111468, 284.292111)"><g><path d="M 0.84375 0 C 0.78125 0 0.726562 -0.0195312 0.6875 -0.0625 C 0.65625 -0.113281 0.644531 -0.171875 0.65625 -0.234375 L 1.875 -10.21875 C 1.894531 -10.375 1.984375 -10.453125 2.140625 -10.453125 L 3.359375 -10.453125 C 3.429688 -10.453125 3.484375 -10.429688 3.515625 -10.390625 C 3.546875 -10.347656 3.5625 -10.289062 3.5625 -10.21875 L 2.328125 -0.234375 C 2.316406 -0.171875 2.289062 -0.113281 2.25 -0.0625 C 2.207031 -0.0195312 2.148438 0 2.078125 0 Z M 0.84375 0 "/></g></g></g><g fill="#540b66" fill-opacity="1"><g transform="translate(157.220744, 284.292111)"><g><path d="M 5.328125 -6.46875 C 5.316406 -6.394531 5.289062 -6.335938 5.25 -6.296875 C 5.207031 -6.253906 5.144531 -6.234375 5.0625 -6.234375 L 3.65625 -6.234375 C 3.59375 -6.234375 3.5625 -6.203125 3.5625 -6.140625 L 3.140625 -2.609375 C 3.128906 -2.546875 3.125 -2.453125 3.125 -2.328125 C 3.125 -2.046875 3.195312 -1.84375 3.34375 -1.71875 C 3.488281 -1.59375 3.707031 -1.53125 4 -1.53125 L 4.375 -1.53125 C 4.457031 -1.53125 4.507812 -1.503906 4.53125 -1.453125 C 4.5625 -1.410156 4.578125 -1.351562 4.578125 -1.28125 L 4.453125 -0.28125 C 4.429688 -0.132812 4.347656 -0.0507812 4.203125 -0.03125 L 3.5 -0.015625 C 2.8125 -0.015625 2.289062 -0.125 1.9375 -0.34375 C 1.59375 -0.5625 1.421875 -0.960938 1.421875 -1.546875 C 1.421875 -1.617188 1.429688 -1.753906 1.453125 -1.953125 L 1.953125 -6.140625 C 1.953125 -6.203125 1.925781 -6.234375 1.875 -6.234375 L 1.125 -6.234375 C 1.050781 -6.234375 0.992188 -6.253906 0.953125 -6.296875 C 0.921875 -6.335938 0.910156 -6.394531 0.921875 -6.46875 L 1.046875 -7.390625 C 1.066406 -7.554688 1.148438 -7.640625 1.296875 -7.640625 L 2.046875 -7.640625 C 2.109375 -7.640625 2.144531 -7.664062 2.15625 -7.71875 L 2.359375 -9.390625 C 2.367188 -9.460938 2.394531 -9.519531 2.4375 -9.5625 C 2.488281 -9.613281 2.546875 -9.640625 2.609375 -9.640625 L 3.765625 -9.640625 C 3.847656 -9.640625 3.898438 -9.613281 3.921875 -9.5625 C 3.953125 -9.519531 3.960938 -9.460938 3.953125 -9.390625 L 3.765625 -7.71875 C 3.753906 -7.695312 3.753906 -7.675781 3.765625 -7.65625 C 3.785156 -7.644531 3.8125 -7.640625 3.84375 -7.640625 L 5.25 -7.640625 C 5.320312 -7.640625 5.375 -7.613281 5.40625 -7.5625 C 5.4375 -7.519531 5.445312 -7.460938 5.4375 -7.390625 Z M 5.328125 -6.46875 "/></g></g></g><g fill="#540b66" fill-opacity="1"><g transform="translate(166.226099, 284.292111)"><g><path d="M 2.609375 -8.59375 C 2.335938 -8.59375 2.109375 -8.675781 1.921875 -8.84375 C 1.742188 -9.007812 1.65625 -9.226562 1.65625 -9.5 C 1.65625 -9.851562 1.769531 -10.148438 2 -10.390625 C 2.238281 -10.628906 2.535156 -10.75 2.890625 -10.75 C 3.171875 -10.75 3.398438 -10.664062 3.578125 -10.5 C 3.753906 -10.332031 3.84375 -10.109375 3.84375 -9.828125 C 3.84375 -9.472656 3.722656 -9.175781 3.484375 -8.9375 C 3.253906 -8.707031 2.960938 -8.59375 2.609375 -8.59375 Z M 0.953125 0 C 0.796875 0 0.726562 -0.078125 0.75 -0.234375 L 1.625 -7.390625 C 1.65625 -7.554688 1.742188 -7.640625 1.890625 -7.640625 L 3.109375 -7.640625 C 3.265625 -7.640625 3.332031 -7.554688 3.3125 -7.390625 L 2.4375 -0.234375 C 2.425781 -0.171875 2.394531 -0.113281 2.34375 -0.0625 C 2.300781 -0.0195312 2.25 0 2.1875 0 Z M 0.953125 0 "/></g></g></g><g fill="#540b66" fill-opacity="1"><g transform="translate(173.499608, 284.292111)"><g><path d="M 9.484375 -7.75 C 10.148438 -7.75 10.664062 -7.5625 11.03125 -7.1875 C 11.394531 -6.8125 11.578125 -6.28125 11.578125 -5.59375 C 11.578125 -5.5 11.566406 -5.34375 11.546875 -5.125 L 10.9375 -0.234375 C 10.914062 -0.078125 10.832031 0 10.6875 0 L 9.46875 0 C 9.394531 0 9.34375 -0.0195312 9.3125 -0.0625 C 9.28125 -0.113281 9.269531 -0.171875 9.28125 -0.234375 L 9.828125 -4.765625 C 9.835938 -4.828125 9.84375 -4.914062 9.84375 -5.03125 C 9.84375 -5.40625 9.738281 -5.703125 9.53125 -5.921875 C 9.332031 -6.148438 9.054688 -6.265625 8.703125 -6.265625 C 8.304688 -6.265625 7.96875 -6.128906 7.6875 -5.859375 C 7.40625 -5.585938 7.238281 -5.226562 7.1875 -4.78125 L 6.625 -0.234375 C 6.601562 -0.078125 6.515625 0 6.359375 0 L 5.15625 0 C 5.082031 0 5.023438 -0.0195312 4.984375 -0.0625 C 4.953125 -0.113281 4.941406 -0.171875 4.953125 -0.234375 L 5.515625 -4.765625 C 5.523438 -4.828125 5.53125 -4.910156 5.53125 -5.015625 C 5.53125 -5.398438 5.425781 -5.703125 5.21875 -5.921875 C 5.019531 -6.148438 4.738281 -6.265625 4.375 -6.265625 C 4.007812 -6.265625 3.695312 -6.148438 3.4375 -5.921875 C 3.175781 -5.703125 3 -5.40625 2.90625 -5.03125 L 2.3125 -0.234375 C 2.300781 -0.171875 2.273438 -0.113281 2.234375 -0.0625 C 2.191406 -0.0195312 2.132812 0 2.0625 0 L 0.84375 0 C 0.769531 0 0.710938 -0.0195312 0.671875 -0.0625 C 0.640625 -0.113281 0.628906 -0.171875 0.640625 -0.234375 L 1.53125 -7.390625 C 1.539062 -7.554688 1.625 -7.640625 1.78125 -7.640625 L 2.984375 -7.640625 C 3.140625 -7.640625 3.210938 -7.554688 3.203125 -7.390625 L 3.15625 -6.984375 C 3.144531 -6.953125 3.148438 -6.929688 3.171875 -6.921875 C 3.203125 -6.910156 3.222656 -6.921875 3.234375 -6.953125 C 3.722656 -7.484375 4.367188 -7.75 5.171875 -7.75 C 5.648438 -7.75 6.050781 -7.648438 6.375 -7.453125 C 6.695312 -7.265625 6.929688 -6.984375 7.078125 -6.609375 C 7.097656 -6.578125 7.117188 -6.5625 7.140625 -6.5625 C 7.171875 -6.5625 7.191406 -6.582031 7.203125 -6.625 C 7.472656 -7 7.804688 -7.28125 8.203125 -7.46875 C 8.597656 -7.65625 9.023438 -7.75 9.484375 -7.75 Z M 9.484375 -7.75 "/></g></g></g><g fill="#540b66" fill-opacity="1"><g transform="translate(189.088966, 284.292111)"><g><path d="M 3.75 0.125 C 2.988281 0.125 2.359375 -0.0703125 1.859375 -0.46875 C 1.359375 -0.875 1.039062 -1.429688 0.90625 -2.140625 C 0.851562 -2.398438 0.828125 -2.691406 0.828125 -3.015625 C 0.828125 -3.203125 0.84375 -3.476562 0.875 -3.84375 C 0.957031 -4.46875 1.101562 -5.035156 1.3125 -5.546875 C 1.625 -6.242188 2.078125 -6.785156 2.671875 -7.171875 C 3.265625 -7.554688 3.953125 -7.75 4.734375 -7.75 C 5.472656 -7.75 6.082031 -7.554688 6.5625 -7.171875 C 7.050781 -6.785156 7.367188 -6.25 7.515625 -5.5625 C 7.578125 -5.28125 7.609375 -4.957031 7.609375 -4.59375 C 7.609375 -4.363281 7.59375 -4.117188 7.5625 -3.859375 C 7.476562 -3.234375 7.328125 -2.664062 7.109375 -2.15625 C 6.796875 -1.445312 6.34375 -0.890625 5.75 -0.484375 C 5.164062 -0.078125 4.5 0.125 3.75 0.125 Z M 3.921875 -1.375 C 4.285156 -1.375 4.609375 -1.476562 4.890625 -1.6875 C 5.171875 -1.894531 5.390625 -2.1875 5.546875 -2.5625 C 5.703125 -2.894531 5.804688 -3.316406 5.859375 -3.828125 C 5.890625 -4.097656 5.90625 -4.347656 5.90625 -4.578125 C 5.90625 -4.710938 5.894531 -4.878906 5.875 -5.078125 C 5.800781 -5.453125 5.644531 -5.742188 5.40625 -5.953125 C 5.175781 -6.160156 4.878906 -6.265625 4.515625 -6.265625 C 4.140625 -6.265625 3.8125 -6.160156 3.53125 -5.953125 C 3.25 -5.742188 3.03125 -5.453125 2.875 -5.078125 C 2.726562 -4.703125 2.625 -4.285156 2.5625 -3.828125 C 2.539062 -3.578125 2.53125 -3.332031 2.53125 -3.09375 C 2.53125 -2.945312 2.535156 -2.769531 2.546875 -2.5625 C 2.617188 -2.1875 2.773438 -1.894531 3.015625 -1.6875 C 3.253906 -1.476562 3.554688 -1.375 3.921875 -1.375 Z M 3.921875 -1.375 "/></g></g></g><g fill="#540b66" fill-opacity="1"><g transform="translate(200.736877, 284.292111)"><g/></g></g><g fill="#540b66" fill-opacity="1"><g transform="translate(207.219108, 284.292111)"><g><path d="M 8.65625 -10.453125 C 8.726562 -10.453125 8.78125 -10.429688 8.8125 -10.390625 C 8.851562 -10.347656 8.867188 -10.289062 8.859375 -10.21875 L 8.734375 -9.1875 C 8.722656 -9.113281 8.695312 -9.054688 8.65625 -9.015625 C 8.613281 -8.972656 8.550781 -8.953125 8.46875 -8.953125 L 5.890625 -8.953125 C 5.835938 -8.953125 5.800781 -8.921875 5.78125 -8.859375 L 4.71875 -0.234375 C 4.707031 -0.171875 4.679688 -0.113281 4.640625 -0.0625 C 4.597656 -0.0195312 4.539062 0 4.46875 0 L 3.234375 0 C 3.171875 0 3.117188 -0.0195312 3.078125 -0.0625 C 3.046875 -0.113281 3.035156 -0.171875 3.046875 -0.234375 L 4.109375 -8.859375 C 4.109375 -8.921875 4.078125 -8.953125 4.015625 -8.953125 L 1.53125 -8.953125 C 1.375 -8.953125 1.304688 -9.03125 1.328125 -9.1875 L 1.46875 -10.21875 C 1.488281 -10.375 1.570312 -10.453125 1.71875 -10.453125 Z M 8.65625 -10.453125 "/></g></g></g><g fill="#540b66" fill-opacity="1"><g transform="translate(219.19548, 284.292111)"><g><path d="M 5 -7.71875 C 5.300781 -7.71875 5.550781 -7.664062 5.75 -7.5625 C 5.863281 -7.5 5.894531 -7.398438 5.84375 -7.265625 L 5.46875 -6.015625 C 5.4375 -5.941406 5.394531 -5.894531 5.34375 -5.875 C 5.300781 -5.851562 5.242188 -5.851562 5.171875 -5.875 C 5.054688 -5.914062 4.90625 -5.9375 4.71875 -5.9375 C 4.601562 -5.9375 4.507812 -5.929688 4.4375 -5.921875 C 4.03125 -5.898438 3.671875 -5.75 3.359375 -5.46875 C 3.054688 -5.195312 2.878906 -4.84375 2.828125 -4.40625 L 2.3125 -0.234375 C 2.300781 -0.171875 2.273438 -0.113281 2.234375 -0.0625 C 2.191406 -0.0195312 2.132812 0 2.0625 0 L 0.84375 0 C 0.769531 0 0.710938 -0.0195312 0.671875 -0.0625 C 0.640625 -0.113281 0.628906 -0.171875 0.640625 -0.234375 L 1.53125 -7.390625 C 1.539062 -7.554688 1.625 -7.640625 1.78125 -7.640625 L 2.984375 -7.640625 C 3.140625 -7.640625 3.210938 -7.554688 3.203125 -7.390625 L 3.125 -6.8125 C 3.125 -6.769531 3.128906 -6.742188 3.140625 -6.734375 C 3.160156 -6.722656 3.1875 -6.738281 3.21875 -6.78125 C 3.675781 -7.40625 4.269531 -7.71875 5 -7.71875 Z M 5 -7.71875 "/></g></g></g><g fill="#540b66" fill-opacity="1"><g transform="translate(228.230693, 284.292111)"><g><path d="M 6 -7.390625 C 6.007812 -7.460938 6.035156 -7.519531 6.078125 -7.5625 C 6.128906 -7.613281 6.195312 -7.640625 6.28125 -7.640625 L 7.484375 -7.640625 C 7.640625 -7.640625 7.707031 -7.554688 7.6875 -7.390625 L 6.8125 -0.234375 C 6.800781 -0.171875 6.769531 -0.113281 6.71875 -0.0625 C 6.675781 -0.0195312 6.617188 0 6.546875 0 L 5.328125 0 C 5.171875 0 5.101562 -0.078125 5.125 -0.234375 L 5.171875 -0.59375 C 5.179688 -0.632812 5.171875 -0.660156 5.140625 -0.671875 C 5.117188 -0.679688 5.097656 -0.671875 5.078125 -0.640625 C 4.597656 -0.128906 4.019531 0.125 3.34375 0.125 C 2.664062 0.125 2.109375 -0.0625 1.671875 -0.4375 C 1.242188 -0.8125 0.960938 -1.320312 0.828125 -1.96875 C 0.765625 -2.289062 0.734375 -2.617188 0.734375 -2.953125 C 0.734375 -3.273438 0.753906 -3.570312 0.796875 -3.84375 C 0.867188 -4.539062 1.019531 -5.144531 1.25 -5.65625 C 1.550781 -6.3125 1.960938 -6.820312 2.484375 -7.1875 C 3.003906 -7.5625 3.613281 -7.75 4.3125 -7.75 C 4.96875 -7.75 5.488281 -7.515625 5.875 -7.046875 C 5.894531 -7.003906 5.910156 -6.988281 5.921875 -7 C 5.941406 -7.007812 5.957031 -7.035156 5.96875 -7.078125 Z M 5 -2.09375 C 5.269531 -2.476562 5.457031 -3.054688 5.5625 -3.828125 C 5.582031 -4.085938 5.59375 -4.320312 5.59375 -4.53125 C 5.59375 -4.976562 5.53125 -5.332031 5.40625 -5.59375 C 5.207031 -6.039062 4.875 -6.265625 4.40625 -6.265625 C 3.90625 -6.265625 3.492188 -6.050781 3.171875 -5.625 C 2.828125 -5.175781 2.613281 -4.570312 2.53125 -3.8125 C 2.5 -3.570312 2.484375 -3.351562 2.484375 -3.15625 C 2.484375 -2.75 2.539062 -2.398438 2.65625 -2.109375 C 2.851562 -1.628906 3.234375 -1.390625 3.796875 -1.390625 C 4.273438 -1.390625 4.675781 -1.625 5 -2.09375 Z M 5 -2.09375 "/></g></g></g><g fill="#540b66" fill-opacity="1"><g transform="translate(239.789031, 284.292111)"><g><path d="M 9.484375 -7.75 C 10.148438 -7.75 10.664062 -7.5625 11.03125 -7.1875 C 11.394531 -6.8125 11.578125 -6.28125 11.578125 -5.59375 C 11.578125 -5.5 11.566406 -5.34375 11.546875 -5.125 L 10.9375 -0.234375 C 10.914062 -0.078125 10.832031 0 10.6875 0 L 9.46875 0 C 9.394531 0 9.34375 -0.0195312 9.3125 -0.0625 C 9.28125 -0.113281 9.269531 -0.171875 9.28125 -0.234375 L 9.828125 -4.765625 C 9.835938 -4.828125 9.84375 -4.914062 9.84375 -5.03125 C 9.84375 -5.40625 9.738281 -5.703125 9.53125 -5.921875 C 9.332031 -6.148438 9.054688 -6.265625 8.703125 -6.265625 C 8.304688 -6.265625 7.96875 -6.128906 7.6875 -5.859375 C 7.40625 -5.585938 7.238281 -5.226562 7.1875 -4.78125 L 6.625 -0.234375 C 6.601562 -0.078125 6.515625 0 6.359375 0 L 5.15625 0 C 5.082031 0 5.023438 -0.0195312 4.984375 -0.0625 C 4.953125 -0.113281 4.941406 -0.171875 4.953125 -0.234375 L 5.515625 -4.765625 C 5.523438 -4.828125 5.53125 -4.910156 5.53125 -5.015625 C 5.53125 -5.398438 5.425781 -5.703125 5.21875 -5.921875 C 5.019531 -6.148438 4.738281 -6.265625 4.375 -6.265625 C 4.007812 -6.265625 3.695312 -6.148438 3.4375 -5.921875 C 3.175781 -5.703125 3 -5.40625 2.90625 -5.03125 L 2.3125 -0.234375 C 2.300781 -0.171875 2.273438 -0.113281 2.234375 -0.0625 C 2.191406 -0.0195312 2.132812 0 2.0625 0 L 0.84375 0 C 0.769531 0 0.710938 -0.0195312 0.671875 -0.0625 C 0.640625 -0.113281 0.628906 -0.171875 0.640625 -0.234375 L 1.53125 -7.390625 C 1.539062 -7.554688 1.625 -7.640625 1.78125 -7.640625 L 2.984375 -7.640625 C 3.140625 -7.640625 3.210938 -7.554688 3.203125 -7.390625 L 3.15625 -6.984375 C 3.144531 -6.953125 3.148438 -6.929688 3.171875 -6.921875 C 3.203125 -6.910156 3.222656 -6.921875 3.234375 -6.953125 C 3.722656 -7.484375 4.367188 -7.75 5.171875 -7.75 C 5.648438 -7.75 6.050781 -7.648438 6.375 -7.453125 C 6.695312 -7.265625 6.929688 -6.984375 7.078125 -6.609375 C 7.097656 -6.578125 7.117188 -6.5625 7.140625 -6.5625 C 7.171875 -6.5625 7.191406 -6.582031 7.203125 -6.625 C 7.472656 -7 7.804688 -7.28125 8.203125 -7.46875 C 8.597656 -7.65625 9.023438 -7.75 9.484375 -7.75 Z M 9.484375 -7.75 "/></g></g></g><g fill="#540b66" fill-opacity="1"><g transform="translate(255.378389, 284.292111)"><g><path d="M 3.75 0.125 C 2.988281 0.125 2.359375 -0.0703125 1.859375 -0.46875 C 1.359375 -0.875 1.039062 -1.429688 0.90625 -2.140625 C 0.851562 -2.398438 0.828125 -2.691406 0.828125 -3.015625 C 0.828125 -3.203125 0.84375 -3.476562 0.875 -3.84375 C 0.957031 -4.46875 1.101562 -5.035156 1.3125 -5.546875 C 1.625 -6.242188 2.078125 -6.785156 2.671875 -7.171875 C 3.265625 -7.554688 3.953125 -7.75 4.734375 -7.75 C 5.472656 -7.75 6.082031 -7.554688 6.5625 -7.171875 C 7.050781 -6.785156 7.367188 -6.25 7.515625 -5.5625 C 7.578125 -5.28125 7.609375 -4.957031 7.609375 -4.59375 C 7.609375 -4.363281 7.59375 -4.117188 7.5625 -3.859375 C 7.476562 -3.234375 7.328125 -2.664062 7.109375 -2.15625 C 6.796875 -1.445312 6.34375 -0.890625 5.75 -0.484375 C 5.164062 -0.078125 4.5 0.125 3.75 0.125 Z M 3.921875 -1.375 C 4.285156 -1.375 4.609375 -1.476562 4.890625 -1.6875 C 5.171875 -1.894531 5.390625 -2.1875 5.546875 -2.5625 C 5.703125 -2.894531 5.804688 -3.316406 5.859375 -3.828125 C 5.890625 -4.097656 5.90625 -4.347656 5.90625 -4.578125 C 5.90625 -4.710938 5.894531 -4.878906 5.875 -5.078125 C 5.800781 -5.453125 5.644531 -5.742188 5.40625 -5.953125 C 5.175781 -6.160156 4.878906 -6.265625 4.515625 -6.265625 C 4.140625 -6.265625 3.8125 -6.160156 3.53125 -5.953125 C 3.25 -5.742188 3.03125 -5.453125 2.875 -5.078125 C 2.726562 -4.703125 2.625 -4.285156 2.5625 -3.828125 C 2.539062 -3.578125 2.53125 -3.332031 2.53125 -3.09375 C 2.53125 -2.945312 2.535156 -2.769531 2.546875 -2.5625 C 2.617188 -2.1875 2.773438 -1.894531 3.015625 -1.6875 C 3.253906 -1.476562 3.554688 -1.375 3.921875 -1.375 Z M 3.921875 -1.375 "/></g></g></g></svg>