<svg xmlns="http://www.w3.org/2000/svg" xmlns:xlink="http://www.w3.org/1999/xlink" width="1920" zoomAndPan="magnify" viewBox="0 0 1440 809.999993" height="1080" preserveAspectRatio="xMidYMid meet" version="1.0"><defs><clipPath id="id1"><path d="M 964.558594 0 L 1440 0 L 1440 810 L 964.558594 810 Z M 964.558594 0 " clip-rule="nonzero"/></clipPath></defs><path fill="#540b66" d="M 1040.519531 5.011719 L 1430.847656 5.011719 C 1432.023438 5.011719 1433.199219 5.039062 1434.371094 5.097656 C 1435.546875 5.15625 1436.71875 5.242188 1437.886719 5.355469 C 1439.058594 5.472656 1440.222656 5.617188 1441.386719 5.789062 C 1442.550781 5.960938 1443.707031 6.160156 1444.859375 6.390625 C 1446.011719 6.621094 1447.160156 6.878906 1448.300781 7.164062 C 1449.441406 7.449219 1450.574219 7.761719 1451.699219 8.101562 C 1452.824219 8.445312 1453.9375 8.8125 1455.046875 9.207031 C 1456.152344 9.605469 1457.25 10.027344 1458.335938 10.476562 C 1459.421875 10.925781 1460.496094 11.402344 1461.558594 11.90625 C 1462.621094 12.40625 1463.671875 12.933594 1464.707031 13.488281 C 1465.746094 14.042969 1466.765625 14.621094 1467.777344 15.226562 C 1468.785156 15.828125 1469.777344 16.457031 1470.753906 17.109375 C 1471.730469 17.765625 1472.691406 18.441406 1473.636719 19.140625 C 1474.582031 19.839844 1475.507812 20.5625 1476.417969 21.308594 C 1477.324219 22.054688 1478.214844 22.820312 1479.085938 23.609375 C 1479.957031 24.398438 1480.808594 25.207031 1481.640625 26.039062 C 1482.472656 26.871094 1483.28125 27.722656 1484.070312 28.589844 C 1484.859375 29.460938 1485.628906 30.351562 1486.375 31.257812 C 1487.121094 32.167969 1487.84375 33.09375 1488.542969 34.039062 C 1489.242188 34.980469 1489.917969 35.941406 1490.574219 36.917969 C 1491.226562 37.894531 1491.855469 38.886719 1492.460938 39.894531 C 1493.0625 40.902344 1493.644531 41.925781 1494.195312 42.960938 C 1494.75 43.996094 1495.28125 45.046875 1495.78125 46.109375 C 1496.285156 47.171875 1496.761719 48.246094 1497.210938 49.332031 C 1497.660156 50.417969 1498.082031 51.511719 1498.480469 52.617188 C 1498.875 53.726562 1499.246094 54.839844 1499.585938 55.964844 C 1499.925781 57.089844 1500.242188 58.222656 1500.527344 59.359375 C 1500.8125 60.5 1501.070312 61.644531 1501.296875 62.796875 C 1501.527344 63.949219 1501.730469 65.109375 1501.902344 66.269531 C 1502.074219 67.433594 1502.21875 68.597656 1502.332031 69.769531 C 1502.449219 70.9375 1502.535156 72.109375 1502.59375 73.28125 C 1502.648438 74.457031 1502.679688 75.628906 1502.679688 76.804688 L 1502.679688 733.144531 C 1502.679688 734.320312 1502.648438 735.496094 1502.59375 736.667969 C 1502.535156 737.84375 1502.449219 739.011719 1502.332031 740.183594 C 1502.21875 741.351562 1502.074219 742.519531 1501.902344 743.679688 C 1501.730469 744.84375 1501.527344 746 1501.296875 747.152344 C 1501.070312 748.304688 1500.8125 749.449219 1500.527344 750.589844 C 1500.242188 751.730469 1499.925781 752.863281 1499.585938 753.984375 C 1499.246094 755.109375 1498.875 756.226562 1498.480469 757.332031 C 1498.082031 758.4375 1497.660156 759.535156 1497.210938 760.621094 C 1496.761719 761.707031 1496.285156 762.777344 1495.78125 763.839844 C 1495.28125 764.902344 1494.75 765.953125 1494.195312 766.988281 C 1493.644531 768.023438 1493.0625 769.046875 1492.460938 770.054688 C 1491.855469 771.0625 1491.226562 772.054688 1490.574219 773.03125 C 1489.917969 774.007812 1489.242188 774.96875 1488.542969 775.914062 C 1487.84375 776.855469 1487.121094 777.78125 1486.375 778.691406 C 1485.628906 779.597656 1484.859375 780.488281 1484.070312 781.359375 C 1483.28125 782.230469 1482.472656 783.082031 1481.640625 783.910156 C 1480.808594 784.742188 1479.957031 785.550781 1479.085938 786.339844 C 1478.214844 787.128906 1477.324219 787.898438 1476.417969 788.640625 C 1475.507812 789.386719 1474.582031 790.109375 1473.636719 790.808594 C 1472.691406 791.511719 1471.730469 792.1875 1470.753906 792.839844 C 1469.777344 793.492188 1468.785156 794.121094 1467.777344 794.726562 C 1466.765625 795.328125 1465.746094 795.90625 1464.707031 796.460938 C 1463.671875 797.015625 1462.621094 797.542969 1461.558594 798.046875 C 1460.496094 798.546875 1459.421875 799.023438 1458.335938 799.472656 C 1457.25 799.921875 1456.152344 800.347656 1455.046875 800.742188 C 1453.9375 801.136719 1452.824219 801.507812 1451.699219 801.847656 C 1450.574219 802.1875 1449.441406 802.5 1448.300781 802.789062 C 1447.160156 803.074219 1446.011719 803.328125 1444.859375 803.558594 C 1443.707031 803.789062 1442.550781 803.988281 1441.386719 804.160156 C 1440.222656 804.335938 1439.058594 804.476562 1437.886719 804.59375 C 1436.71875 804.707031 1435.546875 804.792969 1434.371094 804.851562 C 1433.199219 804.910156 1432.023438 804.9375 1430.847656 804.9375 L 1040.519531 804.9375 C 1039.34375 804.9375 1038.167969 804.910156 1036.996094 804.851562 C 1035.820312 804.792969 1034.648438 804.707031 1033.480469 804.59375 C 1032.308594 804.476562 1031.140625 804.335938 1029.980469 804.160156 C 1028.816406 803.988281 1027.660156 803.789062 1026.503906 803.558594 C 1025.351562 803.328125 1024.207031 803.074219 1023.066406 802.789062 C 1021.925781 802.5 1020.792969 802.1875 1019.667969 801.847656 C 1018.542969 801.507812 1017.425781 801.136719 1016.320312 800.742188 C 1015.214844 800.347656 1014.117188 799.921875 1013.03125 799.472656 C 1011.945312 799.023438 1010.871094 798.546875 1009.808594 798.046875 C 1008.746094 797.542969 1007.695312 797.015625 1006.65625 796.460938 C 1005.621094 795.90625 1004.597656 795.328125 1003.589844 794.722656 C 1002.582031 794.121094 1001.589844 793.492188 1000.613281 792.839844 C 999.632812 792.1875 998.671875 791.511719 997.730469 790.808594 C 996.785156 790.109375 995.859375 789.386719 994.949219 788.640625 C 994.039062 787.898438 993.152344 787.128906 992.28125 786.339844 C 991.410156 785.550781 990.558594 784.742188 989.726562 783.910156 C 988.894531 783.082031 988.085938 782.230469 987.296875 781.359375 C 986.503906 780.488281 985.738281 779.597656 984.992188 778.691406 C 984.246094 777.78125 983.523438 776.855469 982.824219 775.914062 C 982.121094 774.96875 981.445312 774.007812 980.792969 773.03125 C 980.140625 772.054688 979.511719 771.0625 978.90625 770.054688 C 978.300781 769.046875 977.722656 768.023438 977.167969 766.988281 C 976.613281 765.953125 976.085938 764.902344 975.582031 763.839844 C 975.082031 762.777344 974.605469 761.707031 974.15625 760.621094 C 973.707031 759.535156 973.28125 758.4375 972.886719 757.332031 C 972.492188 756.226562 972.121094 755.109375 971.78125 753.984375 C 971.4375 752.863281 971.125 751.730469 970.839844 750.589844 C 970.554688 749.449219 970.296875 748.304688 970.066406 747.152344 C 969.839844 746 969.636719 744.84375 969.464844 743.679688 C 969.292969 742.519531 969.148438 741.351562 969.035156 740.183594 C 968.917969 739.011719 968.832031 737.84375 968.773438 736.667969 C 968.714844 735.496094 968.6875 734.320312 968.6875 733.144531 L 968.6875 76.804688 C 968.6875 75.628906 968.714844 74.457031 968.773438 73.28125 C 968.832031 72.109375 968.917969 70.9375 969.035156 69.769531 C 969.148438 68.597656 969.292969 67.433594 969.464844 66.269531 C 969.636719 65.109375 969.839844 63.949219 970.066406 62.796875 C 970.296875 61.644531 970.554688 60.5 970.839844 59.359375 C 971.125 58.222656 971.4375 57.089844 971.78125 55.964844 C 972.121094 54.839844 972.492188 53.726562 972.886719 52.617188 C 973.28125 51.511719 973.707031 50.417969 974.15625 49.332031 C 974.605469 48.246094 975.082031 47.171875 975.582031 46.109375 C 976.085938 45.046875 976.613281 43.996094 977.167969 42.960938 C 977.722656 41.925781 978.300781 40.902344 978.90625 39.894531 C 979.511719 38.886719 980.140625 37.894531 980.792969 36.917969 C 981.445312 35.941406 982.121094 34.980469 982.824219 34.039062 C 983.523438 33.09375 984.246094 32.167969 984.992188 31.257812 C 985.738281 30.351562 986.503906 29.460938 987.296875 28.589844 C 988.085938 27.722656 988.894531 26.871094 989.726562 26.039062 C 990.558594 25.207031 991.410156 24.398438 992.28125 23.609375 C 993.152344 22.820312 994.039062 22.054688 994.949219 21.308594 C 995.859375 20.5625 996.785156 19.839844 997.730469 19.140625 C 998.671875 18.441406 999.632812 17.765625 1000.613281 17.109375 C 1001.589844 16.457031 1002.582031 15.828125 1003.589844 15.226562 C 1004.597656 14.621094 1005.621094 14.042969 1006.65625 13.488281 C 1007.695312 12.933594 1008.746094 12.40625 1009.808594 11.90625 C 1010.871094 11.402344 1011.945312 10.925781 1013.03125 10.476562 C 1014.117188 10.027344 1015.214844 9.605469 1016.320312 9.207031 C 1017.425781 8.8125 1018.542969 8.445312 1019.667969 8.101562 C 1020.792969 7.761719 1021.925781 7.449219 1023.066406 7.164062 C 1024.207031 6.878906 1025.351562 6.621094 1026.503906 6.390625 C 1027.660156 6.160156 1028.816406 5.960938 1029.980469 5.789062 C 1031.140625 5.617188 1032.308594 5.472656 1033.480469 5.355469 C 1034.648438 5.242188 1035.820312 5.15625 1036.996094 5.097656 C 1038.167969 5.039062 1039.34375 5.011719 1040.519531 5.011719 Z M 1040.519531 5.011719 " fill-opacity="1" fill-rule="nonzero"/><g clip-path="url(#id1)"><path fill="#540b66" d="M 1430.847656 809.066406 L 1040.535156 809.066406 C 1039.292969 809.066406 1038.050781 809.035156 1036.808594 808.972656 C 1035.566406 808.914062 1034.328125 808.820312 1033.089844 808.699219 C 1031.851562 808.578125 1030.617188 808.425781 1029.386719 808.242188 C 1028.15625 808.0625 1026.933594 807.847656 1025.714844 807.605469 C 1024.492188 807.363281 1023.28125 807.09375 1022.074219 806.789062 C 1020.867188 806.488281 1019.671875 806.15625 1018.480469 805.796875 C 1017.289062 805.433594 1016.109375 805.046875 1014.941406 804.625 C 1013.769531 804.207031 1012.609375 803.761719 1011.460938 803.285156 C 1010.3125 802.808594 1009.175781 802.304688 1008.050781 801.773438 C 1006.925781 801.242188 1005.816406 800.683594 1004.71875 800.097656 C 1003.625 799.511719 1002.542969 798.902344 1001.476562 798.261719 C 1000.410156 797.625 999.359375 796.957031 998.324219 796.269531 C 997.289062 795.578125 996.273438 794.863281 995.277344 794.121094 C 994.277344 793.382812 993.296875 792.617188 992.335938 791.828125 C 991.375 791.039062 990.433594 790.230469 989.511719 789.394531 C 988.589844 788.558594 987.691406 787.703125 986.8125 786.824219 C 985.933594 785.945312 985.074219 785.046875 984.238281 784.125 C 983.40625 783.203125 982.59375 782.261719 981.804688 781.304688 C 981.015625 780.34375 980.25 779.363281 979.511719 778.363281 C 978.769531 777.367188 978.054688 776.351562 977.363281 775.316406 C 976.671875 774.285156 976.007812 773.234375 975.367188 772.167969 C 974.726562 771.101562 974.117188 770.019531 973.53125 768.925781 C 972.941406 767.828125 972.382812 766.71875 971.851562 765.597656 C 971.320312 764.472656 970.816406 763.335938 970.339844 762.1875 C 969.867188 761.039062 969.417969 759.882812 969 758.710938 C 968.582031 757.542969 968.191406 756.363281 967.828125 755.171875 C 967.46875 753.984375 967.136719 752.785156 966.835938 751.582031 C 966.53125 750.375 966.261719 749.164062 966.019531 747.945312 C 965.777344 746.726562 965.5625 745.5 965.378906 744.269531 C 965.199219 743.042969 965.046875 741.808594 964.925781 740.574219 C 964.800781 739.335938 964.710938 738.097656 964.648438 736.855469 C 964.589844 735.613281 964.558594 734.371094 964.558594 733.128906 L 964.558594 76.820312 C 964.558594 75.578125 964.589844 74.335938 964.648438 73.09375 C 964.710938 71.855469 964.800781 70.613281 964.925781 69.378906 C 965.046875 68.140625 965.199219 66.910156 965.378906 65.679688 C 965.5625 64.449219 965.777344 63.226562 966.019531 62.007812 C 966.261719 60.789062 966.53125 59.574219 966.835938 58.371094 C 967.136719 57.164062 967.46875 55.96875 967.828125 54.777344 C 968.191406 53.589844 968.582031 52.410156 969 51.238281 C 969.417969 50.070312 969.867188 48.910156 970.339844 47.761719 C 970.816406 46.613281 971.320312 45.476562 971.851562 44.355469 C 972.382812 43.230469 972.941406 42.121094 973.53125 41.023438 C 974.117188 39.929688 974.726562 38.847656 975.367188 37.78125 C 976.007812 36.714844 976.671875 35.667969 977.363281 34.632812 C 978.054688 33.601562 978.769531 32.585938 979.511719 31.585938 C 980.25 30.585938 981.015625 29.609375 981.804688 28.648438 C 982.59375 27.6875 983.40625 26.746094 984.238281 25.824219 C 985.074219 24.90625 985.933594 24.003906 986.8125 23.125 C 987.691406 22.246094 988.589844 21.390625 989.511719 20.554688 C 990.433594 19.722656 991.375 18.910156 992.335938 18.121094 C 993.296875 17.332031 994.277344 16.570312 995.277344 15.828125 C 996.273438 15.089844 997.289062 14.371094 998.324219 13.683594 C 999.359375 12.992188 1000.410156 12.328125 1001.476562 11.6875 C 1002.542969 11.050781 1003.625 10.4375 1004.71875 9.851562 C 1005.816406 9.265625 1006.925781 8.707031 1008.050781 8.175781 C 1009.175781 7.644531 1010.3125 7.140625 1011.460938 6.664062 C 1012.609375 6.1875 1013.769531 5.742188 1014.941406 5.324219 C 1016.109375 4.90625 1017.289062 4.515625 1018.480469 4.15625 C 1019.671875 3.792969 1020.867188 3.460938 1022.074219 3.160156 C 1023.28125 2.859375 1024.492188 2.585938 1025.714844 2.34375 C 1026.933594 2.101562 1028.15625 1.890625 1029.386719 1.707031 C 1030.617188 1.523438 1031.851562 1.371094 1033.089844 1.25 C 1034.328125 1.128906 1035.566406 1.035156 1036.808594 0.976562 C 1038.050781 0.914062 1039.292969 0.882812 1040.535156 0.882812 L 1430.847656 0.882812 C 1432.089844 0.882812 1433.332031 0.914062 1434.574219 0.976562 C 1435.816406 1.035156 1437.054688 1.128906 1438.292969 1.25 C 1439.53125 1.371094 1440.765625 1.523438 1441.996094 1.707031 C 1443.226562 1.890625 1444.449219 2.101562 1445.667969 2.34375 C 1446.890625 2.585938 1448.101562 2.859375 1449.308594 3.160156 C 1450.515625 3.460938 1451.710938 3.792969 1452.902344 4.15625 C 1454.09375 4.515625 1455.273438 4.90625 1456.441406 5.324219 C 1457.613281 5.742188 1458.773438 6.1875 1459.921875 6.664062 C 1461.070312 7.140625 1462.207031 7.644531 1463.332031 8.175781 C 1464.457031 8.707031 1465.566406 9.265625 1466.664062 9.851562 C 1467.757812 10.4375 1468.839844 11.050781 1469.90625 11.6875 C 1470.972656 12.328125 1472.023438 12.992188 1473.058594 13.683594 C 1474.089844 14.371094 1475.109375 15.089844 1476.105469 15.828125 C 1477.105469 16.570312 1478.085938 17.332031 1479.046875 18.121094 C 1480.007812 18.910156 1480.949219 19.722656 1481.871094 20.554688 C 1482.792969 21.390625 1483.691406 22.246094 1484.570312 23.125 C 1485.449219 24.003906 1486.308594 24.90625 1487.144531 25.824219 C 1487.976562 26.746094 1488.789062 27.6875 1489.578125 28.648438 C 1490.367188 29.609375 1491.132812 30.585938 1491.871094 31.585938 C 1492.613281 32.585938 1493.328125 33.601562 1494.019531 34.632812 C 1494.710938 35.667969 1495.375 36.714844 1496.015625 37.78125 C 1496.65625 38.847656 1497.265625 39.929688 1497.851562 41.023438 C 1498.4375 42.121094 1499 43.230469 1499.53125 44.355469 C 1500.0625 45.476562 1500.566406 46.613281 1501.042969 47.761719 C 1501.515625 48.910156 1501.964844 50.070312 1502.382812 51.238281 C 1502.800781 52.410156 1503.191406 53.589844 1503.554688 54.777344 C 1503.914062 55.96875 1504.246094 57.164062 1504.546875 58.371094 C 1504.851562 59.574219 1505.121094 60.789062 1505.363281 62.007812 C 1505.605469 63.226562 1505.820312 64.449219 1506.003906 65.679688 C 1506.183594 66.910156 1506.335938 68.140625 1506.457031 69.378906 C 1506.582031 70.613281 1506.671875 71.855469 1506.734375 73.09375 C 1506.792969 74.335938 1506.824219 75.578125 1506.824219 76.820312 L 1506.824219 733.144531 C 1506.824219 734.386719 1506.792969 735.628906 1506.730469 736.871094 C 1506.671875 738.113281 1506.578125 739.351562 1506.457031 740.585938 C 1506.335938 741.824219 1506.183594 743.058594 1506 744.285156 C 1505.816406 745.515625 1505.605469 746.738281 1505.363281 747.957031 C 1505.117188 749.175781 1504.847656 750.386719 1504.542969 751.59375 C 1504.242188 752.800781 1503.910156 753.996094 1503.550781 755.183594 C 1503.1875 756.375 1502.796875 757.554688 1502.378906 758.722656 C 1501.960938 759.894531 1501.511719 761.050781 1501.035156 762.199219 C 1500.558594 763.347656 1500.054688 764.484375 1499.523438 765.605469 C 1498.992188 766.730469 1498.433594 767.839844 1497.847656 768.933594 C 1497.261719 770.03125 1496.648438 771.113281 1496.007812 772.175781 C 1495.371094 773.242188 1494.707031 774.292969 1494.015625 775.324219 C 1493.324219 776.359375 1492.609375 777.375 1491.867188 778.371094 C 1491.125 779.371094 1490.363281 780.347656 1489.574219 781.308594 C 1488.785156 782.269531 1487.972656 783.210938 1487.136719 784.132812 C 1486.300781 785.050781 1485.445312 785.953125 1484.566406 786.832031 C 1483.6875 787.707031 1482.785156 788.566406 1481.863281 789.398438 C 1480.945312 790.234375 1480.003906 791.046875 1479.042969 791.832031 C 1478.078125 792.621094 1477.101562 793.386719 1476.101562 794.125 C 1475.101562 794.867188 1474.085938 795.582031 1473.050781 796.273438 C 1472.019531 796.960938 1470.96875 797.625 1469.902344 798.265625 C 1468.835938 798.902344 1467.753906 799.515625 1466.65625 800.101562 C 1465.5625 800.6875 1464.453125 801.246094 1463.328125 801.777344 C 1462.203125 802.308594 1461.066406 802.8125 1459.917969 803.285156 C 1458.769531 803.761719 1457.609375 804.210938 1456.441406 804.628906 C 1455.269531 805.046875 1454.089844 805.4375 1452.898438 805.796875 C 1451.710938 806.15625 1450.511719 806.488281 1449.304688 806.789062 C 1448.097656 807.09375 1446.886719 807.363281 1445.667969 807.605469 C 1444.449219 807.847656 1443.222656 808.0625 1441.992188 808.246094 C 1440.765625 808.425781 1439.53125 808.578125 1438.292969 808.699219 C 1437.054688 808.820312 1435.816406 808.914062 1434.574219 808.972656 C 1433.332031 809.035156 1432.089844 809.066406 1430.847656 809.066406 Z M 1040.535156 9.136719 C 1039.425781 9.136719 1038.320312 9.164062 1037.214844 9.21875 C 1036.105469 9.273438 1035 9.355469 1033.898438 9.464844 C 1032.796875 9.574219 1031.695312 9.707031 1030.597656 9.871094 C 1029.503906 10.035156 1028.410156 10.222656 1027.324219 10.4375 C 1026.238281 10.65625 1025.15625 10.898438 1024.082031 11.167969 C 1023.007812 11.4375 1021.9375 11.730469 1020.878906 12.054688 C 1019.816406 12.375 1018.765625 12.722656 1017.722656 13.09375 C 1016.679688 13.46875 1015.644531 13.867188 1014.621094 14.289062 C 1013.597656 14.714844 1012.585938 15.164062 1011.582031 15.636719 C 1010.582031 16.109375 1009.589844 16.609375 1008.613281 17.128906 C 1007.636719 17.652344 1006.671875 18.199219 1005.722656 18.769531 C 1004.769531 19.335938 1003.835938 19.929688 1002.914062 20.546875 C 1001.992188 21.160156 1001.085938 21.796875 1000.195312 22.457031 C 999.304688 23.117188 998.433594 23.800781 997.574219 24.5 C 996.71875 25.203125 995.878906 25.929688 995.058594 26.671875 C 994.238281 27.414062 993.433594 28.179688 992.652344 28.960938 C 991.867188 29.746094 991.101562 30.546875 990.359375 31.367188 C 989.613281 32.1875 988.890625 33.027344 988.1875 33.882812 C 987.484375 34.738281 986.804688 35.613281 986.144531 36.503906 C 985.484375 37.390625 984.84375 38.296875 984.230469 39.21875 C 983.613281 40.140625 983.019531 41.074219 982.449219 42.027344 C 981.882812 42.976562 981.335938 43.9375 980.8125 44.914062 C 980.289062 45.894531 979.792969 46.882812 979.316406 47.882812 C 978.84375 48.882812 978.394531 49.898438 977.972656 50.921875 C 977.546875 51.945312 977.148438 52.976562 976.773438 54.019531 C 976.402344 55.0625 976.054688 56.113281 975.734375 57.175781 C 975.410156 58.234375 975.117188 59.300781 974.847656 60.375 C 974.578125 61.449219 974.332031 62.53125 974.117188 63.617188 C 973.902344 64.703125 973.710938 65.792969 973.550781 66.890625 C 973.386719 67.984375 973.25 69.085938 973.144531 70.1875 C 973.035156 71.289062 972.953125 72.394531 972.898438 73.5 C 972.84375 74.605469 972.816406 75.714844 972.816406 76.820312 L 972.816406 733.144531 C 972.816406 734.253906 972.84375 735.359375 972.898438 736.464844 C 972.953125 737.574219 973.035156 738.675781 973.144531 739.78125 C 973.25 740.882812 973.386719 741.980469 973.550781 743.078125 C 973.710938 744.171875 973.902344 745.261719 974.117188 746.351562 C 974.332031 747.4375 974.578125 748.515625 974.847656 749.589844 C 975.117188 750.664062 975.410156 751.734375 975.734375 752.792969 C 976.054688 753.851562 976.402344 754.902344 976.773438 755.945312 C 977.148438 756.988281 977.546875 758.023438 977.972656 759.046875 C 978.394531 760.070312 978.84375 761.082031 979.316406 762.082031 C 979.792969 763.085938 980.289062 764.074219 980.8125 765.050781 C 981.335938 766.027344 981.882812 766.992188 982.449219 767.941406 C 983.019531 768.890625 983.613281 769.828125 984.230469 770.746094 C 984.84375 771.667969 985.484375 772.574219 986.144531 773.464844 C 986.804688 774.355469 987.484375 775.226562 988.1875 776.082031 C 988.890625 776.9375 989.613281 777.777344 990.359375 778.597656 C 991.101562 779.417969 991.867188 780.222656 992.652344 781.003906 C 993.433594 781.789062 994.238281 782.550781 995.058594 783.296875 C 995.878906 784.039062 996.71875 784.761719 997.574219 785.464844 C 998.433594 786.167969 999.304688 786.847656 1000.195312 787.507812 C 1001.085938 788.167969 1001.992188 788.804688 1002.914062 789.421875 C 1003.835938 790.035156 1004.769531 790.628906 1005.722656 791.199219 C 1006.671875 791.769531 1007.636719 792.3125 1008.613281 792.835938 C 1009.589844 793.359375 1010.582031 793.855469 1011.582031 794.328125 C 1012.582031 794.804688 1013.597656 795.253906 1014.621094 795.675781 C 1015.644531 796.101562 1016.679688 796.5 1017.722656 796.871094 C 1018.765625 797.246094 1019.816406 797.59375 1020.878906 797.914062 C 1021.9375 798.234375 1023.007812 798.53125 1024.082031 798.800781 C 1025.15625 799.070312 1026.238281 799.3125 1027.324219 799.527344 C 1028.410156 799.742188 1029.503906 799.933594 1030.597656 800.09375 C 1031.695312 800.257812 1032.796875 800.394531 1033.898438 800.503906 C 1035 800.609375 1036.105469 800.691406 1037.214844 800.746094 C 1038.320312 800.800781 1039.425781 800.828125 1040.535156 800.828125 L 1430.847656 800.828125 C 1431.957031 800.828125 1433.0625 800.800781 1434.167969 800.746094 C 1435.277344 800.691406 1436.382812 800.609375 1437.484375 800.503906 C 1438.585938 800.394531 1439.6875 800.257812 1440.785156 800.097656 C 1441.878906 799.933594 1442.972656 799.742188 1444.058594 799.527344 C 1445.144531 799.3125 1446.226562 799.070312 1447.300781 798.800781 C 1448.375 798.53125 1449.445312 798.234375 1450.503906 797.914062 C 1451.566406 797.59375 1452.617188 797.246094 1453.660156 796.871094 C 1454.703125 796.5 1455.738281 796.101562 1456.761719 795.675781 C 1457.785156 795.253906 1458.796875 794.804688 1459.800781 794.328125 C 1460.800781 793.855469 1461.792969 793.359375 1462.769531 792.835938 C 1463.746094 792.3125 1464.710938 791.769531 1465.660156 791.199219 C 1466.613281 790.628906 1467.546875 790.035156 1468.46875 789.421875 C 1469.390625 788.804688 1470.296875 788.167969 1471.1875 787.507812 C 1472.078125 786.847656 1472.949219 786.167969 1473.808594 785.464844 C 1474.664062 784.761719 1475.503906 784.039062 1476.324219 783.296875 C 1477.144531 782.550781 1477.949219 781.789062 1478.730469 781.003906 C 1479.515625 780.222656 1480.277344 779.417969 1481.023438 778.597656 C 1481.769531 777.777344 1482.492188 776.9375 1483.195312 776.082031 C 1483.898438 775.226562 1484.578125 774.355469 1485.238281 773.464844 C 1485.898438 772.574219 1486.539062 771.667969 1487.152344 770.746094 C 1487.769531 769.828125 1488.363281 768.890625 1488.929688 767.941406 C 1489.5 766.992188 1490.046875 766.027344 1490.570312 765.050781 C 1491.09375 764.074219 1491.589844 763.085938 1492.0625 762.082031 C 1492.539062 761.082031 1492.988281 760.070312 1493.410156 759.046875 C 1493.835938 758.023438 1494.234375 756.988281 1494.609375 755.945312 C 1494.980469 754.902344 1495.328125 753.851562 1495.648438 752.792969 C 1495.972656 751.734375 1496.265625 750.664062 1496.535156 749.589844 C 1496.804688 748.515625 1497.046875 747.4375 1497.265625 746.351562 C 1497.480469 745.261719 1497.671875 744.171875 1497.832031 743.078125 C 1497.996094 741.980469 1498.132812 740.882812 1498.238281 739.78125 C 1498.347656 738.675781 1498.429688 737.574219 1498.484375 736.464844 C 1498.539062 735.359375 1498.566406 734.253906 1498.566406 733.144531 L 1498.566406 76.820312 C 1498.566406 75.714844 1498.539062 74.605469 1498.484375 73.5 C 1498.429688 72.394531 1498.347656 71.289062 1498.238281 70.1875 C 1498.132812 69.085938 1497.996094 67.984375 1497.832031 66.890625 C 1497.671875 65.792969 1497.480469 64.703125 1497.265625 63.617188 C 1497.046875 62.53125 1496.804688 61.449219 1496.535156 60.375 C 1496.265625 59.300781 1495.972656 58.234375 1495.648438 57.175781 C 1495.328125 56.113281 1494.980469 55.0625 1494.609375 54.019531 C 1494.234375 52.976562 1493.835938 51.945312 1493.410156 50.921875 C 1492.988281 49.898438 1492.539062 48.882812 1492.0625 47.882812 C 1491.589844 46.882812 1491.09375 45.894531 1490.570312 44.914062 C 1490.046875 43.9375 1489.5 42.976562 1488.929688 42.027344 C 1488.363281 41.074219 1487.769531 40.140625 1487.152344 39.21875 C 1486.539062 38.296875 1485.898438 37.390625 1485.238281 36.503906 C 1484.578125 35.613281 1483.898438 34.738281 1483.195312 33.882812 C 1482.492188 33.027344 1481.769531 32.1875 1481.023438 31.367188 C 1480.277344 30.546875 1479.515625 29.746094 1478.730469 28.960938 C 1477.949219 28.179688 1477.144531 27.414062 1476.324219 26.671875 C 1475.503906 25.929688 1474.664062 25.203125 1473.808594 24.5 C 1472.949219 23.800781 1472.078125 23.117188 1471.1875 22.457031 C 1470.296875 21.796875 1469.390625 21.160156 1468.46875 20.546875 C 1467.546875 19.929688 1466.613281 19.335938 1465.660156 18.769531 C 1464.710938 18.199219 1463.746094 17.652344 1462.769531 17.128906 C 1461.792969 16.609375 1460.800781 16.109375 1459.800781 15.636719 C 1458.796875 15.164062 1457.785156 14.714844 1456.761719 14.289062 C 1455.738281 13.867188 1454.703125 13.46875 1453.660156 13.09375 C 1452.617188 12.722656 1451.566406 12.375 1450.503906 12.054688 C 1449.445312 11.730469 1448.375 11.4375 1447.300781 11.167969 C 1446.226562 10.898438 1445.144531 10.65625 1444.058594 10.4375 C 1442.972656 10.222656 1441.878906 10.035156 1440.785156 9.871094 C 1439.6875 9.707031 1438.585938 9.574219 1437.484375 9.464844 C 1436.382812 9.355469 1435.277344 9.273438 1434.167969 9.21875 C 1433.0625 9.164062 1431.957031 9.136719 1430.847656 9.136719 Z M 1040.535156 9.136719 " fill-opacity="1" fill-rule="nonzero"/></g></svg>